<?xml version="1.0" encoding="utf-8" standalone="no"?>
<!DOCTYPE svg PUBLIC "-//W3C//DTD SVG 1.1//EN"
  "http://www.w3.org/Graphics/SVG/1.1/DTD/svg11.dtd">
<!-- Created with matplotlib (https://matplotlib.org/) -->
<svg height="1009.558125pt" version="1.1" viewBox="0 0 1040.542187 1009.558125" width="1040.542187pt" xmlns="http://www.w3.org/2000/svg" xmlns:xlink="http://www.w3.org/1999/xlink">
 <metadata>
  <rdf:RDF xmlns:cc="http://creativecommons.org/ns#" xmlns:dc="http://purl.org/dc/elements/1.1/" xmlns:rdf="http://www.w3.org/1999/02/22-rdf-syntax-ns#">
   <cc:Work>
    <dc:type rdf:resource="http://purl.org/dc/dcmitype/StillImage"/>
    <dc:date>2021-08-11T14:41:11.334601</dc:date>
    <dc:format>image/svg+xml</dc:format>
    <dc:creator>
     <cc:Agent>
      <dc:title>Matplotlib v3.3.4, https://matplotlib.org/</dc:title>
     </cc:Agent>
    </dc:creator>
   </cc:Work>
  </rdf:RDF>
 </metadata>
 <defs>
  <style type="text/css">*{stroke-linecap:butt;stroke-linejoin:round;}</style>
 </defs>
 <g id="figure_1">
  <g id="patch_1">
   <path d="M 0 1009.558125 
L 1040.542187 1009.558125 
L 1040.542187 0 
L 0 0 
z
" style="fill:none;"/>
  </g>
  <g id="axes_1">
   <g id="patch_2">
    <path d="M 28.942188 985.68 
L 1033.342188 985.68 
L 1033.342188 7.2 
L 28.942188 7.2 
z
" style="fill:#ffffff;"/>
   </g>
   <g id="PathCollection_1">
    <defs>
     <path d="M 0 3 
C 0.795609 3 1.55874 2.683901 2.12132 2.12132 
C 2.683901 1.55874 3 0.795609 3 0 
C 3 -0.795609 2.683901 -1.55874 2.12132 -2.12132 
C 1.55874 -2.683901 0.795609 -3 0 -3 
C -0.795609 -3 -1.55874 -2.683901 -2.12132 -2.12132 
C -2.683901 -1.55874 -3 -0.795609 -3 0 
C -3 0.795609 -2.683901 1.55874 -2.12132 2.12132 
C -1.55874 2.683901 -0.795609 3 0 3 
z
" id="m4a958f37bc" style="stroke:#00bfbf;"/>
    </defs>
    <g clip-path="url(#pf89bd3ed84)">
     <use style="fill:#00bfbf;stroke:#00bfbf;" x="822.645796" xlink:href="#m4a958f37bc" y="633.58952"/>
     <use style="fill:#00bfbf;stroke:#00bfbf;" x="451.61421" xlink:href="#m4a958f37bc" y="383.812021"/>
     <use style="fill:#00bfbf;stroke:#00bfbf;" x="437.332405" xlink:href="#m4a958f37bc" y="634.622552"/>
     <use style="fill:#00bfbf;stroke:#00bfbf;" x="516.745182" xlink:href="#m4a958f37bc" y="282.28598"/>
     <use style="fill:#00bfbf;stroke:#00bfbf;" x="294.975023" xlink:href="#m4a958f37bc" y="326.461823"/>
     <use style="fill:#00bfbf;stroke:#00bfbf;" x="463.616562" xlink:href="#m4a958f37bc" y="519.073328"/>
     <use style="fill:#00bfbf;stroke:#00bfbf;" x="401.438103" xlink:href="#m4a958f37bc" y="773.154198"/>
     <use style="fill:#00bfbf;stroke:#00bfbf;" x="840.393247" xlink:href="#m4a958f37bc" y="338.685134"/>
     <use style="fill:#00bfbf;stroke:#00bfbf;" x="367.392304" xlink:href="#m4a958f37bc" y="499.559963"/>
     <use style="fill:#00bfbf;stroke:#00bfbf;" x="400.390426" xlink:href="#m4a958f37bc" y="638.971894"/>
     <use style="fill:#00bfbf;stroke:#00bfbf;" x="365.573445" xlink:href="#m4a958f37bc" y="361.657254"/>
     <use style="fill:#00bfbf;stroke:#00bfbf;" x="343.636293" xlink:href="#m4a958f37bc" y="585.781096"/>
     <use style="fill:#00bfbf;stroke:#00bfbf;" x="713.96609" xlink:href="#m4a958f37bc" y="865.908678"/>
     <use style="fill:#00bfbf;stroke:#00bfbf;" x="767.760858" xlink:href="#m4a958f37bc" y="676.157825"/>
    </g>
   </g>
   <g id="PathCollection_2">
    <defs>
     <path d="M 0 3 
C 0.795609 3 1.55874 2.683901 2.12132 2.12132 
C 2.683901 1.55874 3 0.795609 3 0 
C 3 -0.795609 2.683901 -1.55874 2.12132 -2.12132 
C 1.55874 -2.683901 0.795609 -3 0 -3 
C -0.795609 -3 -1.55874 -2.683901 -2.12132 -2.12132 
C -2.683901 -1.55874 -3 -0.795609 -3 0 
C -3 0.795609 -2.683901 1.55874 -2.12132 2.12132 
C -1.55874 2.683901 -0.795609 3 0 3 
z
" id="m48eb150928" style="stroke:#bfbf00;"/>
    </defs>
    <g clip-path="url(#pf89bd3ed84)">
     <use style="fill:#bfbf00;stroke:#bfbf00;" x="339.077898" xlink:href="#m48eb150928" y="655.728738"/>
     <use style="fill:#bfbf00;stroke:#bfbf00;" x="853.954354" xlink:href="#m48eb150928" y="786.193166"/>
     <use style="fill:#bfbf00;stroke:#bfbf00;" x="985.145941" xlink:href="#m48eb150928" y="730.601568"/>
     <use style="fill:#bfbf00;stroke:#bfbf00;" x="814.180911" xlink:href="#m48eb150928" y="853.300519"/>
     <use style="fill:#bfbf00;stroke:#bfbf00;" x="561.312781" xlink:href="#m48eb150928" y="430.199774"/>
     <use style="fill:#bfbf00;stroke:#bfbf00;" x="615.084848" xlink:href="#m48eb150928" y="531.89668"/>
     <use style="fill:#bfbf00;stroke:#bfbf00;" x="355.960257" xlink:href="#m48eb150928" y="643.053666"/>
     <use style="fill:#bfbf00;stroke:#bfbf00;" x="371.199248" xlink:href="#m48eb150928" y="729.198194"/>
     <use style="fill:#bfbf00;stroke:#bfbf00;" x="347.376513" xlink:href="#m48eb150928" y="413.042901"/>
     <use style="fill:#bfbf00;stroke:#bfbf00;" x="330.720297" xlink:href="#m48eb150928" y="768.601839"/>
     <use style="fill:#bfbf00;stroke:#bfbf00;" x="510.728104" xlink:href="#m48eb150928" y="531.609369"/>
     <use style="fill:#bfbf00;stroke:#bfbf00;" x="488.493047" xlink:href="#m48eb150928" y="453.666035"/>
     <use style="fill:#bfbf00;stroke:#bfbf00;" x="536.402289" xlink:href="#m48eb150928" y="345.979992"/>
     <use style="fill:#bfbf00;stroke:#bfbf00;" x="889.670075" xlink:href="#m48eb150928" y="614.674712"/>
     <use style="fill:#bfbf00;stroke:#bfbf00;" x="412.985711" xlink:href="#m48eb150928" y="549.848784"/>
     <use style="fill:#bfbf00;stroke:#bfbf00;" x="102.789776" xlink:href="#m48eb150928" y="539.916769"/>
     <use style="fill:#bfbf00;stroke:#bfbf00;" x="541.561375" xlink:href="#m48eb150928" y="574.930979"/>
     <use style="fill:#bfbf00;stroke:#bfbf00;" x="556.508466" xlink:href="#m48eb150928" y="645.013249"/>
     <use style="fill:#bfbf00;stroke:#bfbf00;" x="189.190042" xlink:href="#m48eb150928" y="685.064793"/>
     <use style="fill:#bfbf00;stroke:#bfbf00;" x="739.08986" xlink:href="#m48eb150928" y="575.817963"/>
     <use style="fill:#bfbf00;stroke:#bfbf00;" x="638.746066" xlink:href="#m48eb150928" y="480.121644"/>
     <use style="fill:#bfbf00;stroke:#bfbf00;" x="664.245612" xlink:href="#m48eb150928" y="537.063439"/>
     <use style="fill:#bfbf00;stroke:#bfbf00;" x="615.002147" xlink:href="#m48eb150928" y="614.340397"/>
     <use style="fill:#bfbf00;stroke:#bfbf00;" x="793.47669" xlink:href="#m48eb150928" y="556.982541"/>
     <use style="fill:#bfbf00;stroke:#bfbf00;" x="672.204341" xlink:href="#m48eb150928" y="51.862599"/>
     <use style="fill:#bfbf00;stroke:#bfbf00;" x="445.329395" xlink:href="#m48eb150928" y="403.168446"/>
     <use style="fill:#bfbf00;stroke:#bfbf00;" x="679.700939" xlink:href="#m48eb150928" y="362.903899"/>
     <use style="fill:#bfbf00;stroke:#bfbf00;" x="677.495133" xlink:href="#m48eb150928" y="625.363908"/>
     <use style="fill:#bfbf00;stroke:#bfbf00;" x="529.569833" xlink:href="#m48eb150928" y="536.491007"/>
     <use style="fill:#bfbf00;stroke:#bfbf00;" x="893.886676" xlink:href="#m48eb150928" y="534.277486"/>
     <use style="fill:#bfbf00;stroke:#bfbf00;" x="231.804081" xlink:href="#m48eb150928" y="365.266322"/>
     <use style="fill:#bfbf00;stroke:#bfbf00;" x="547.714638" xlink:href="#m48eb150928" y="732.049818"/>
     <use style="fill:#bfbf00;stroke:#bfbf00;" x="852.805257" xlink:href="#m48eb150928" y="530.205552"/>
     <use style="fill:#bfbf00;stroke:#bfbf00;" x="201.428299" xlink:href="#m48eb150928" y="562.795597"/>
     <use style="fill:#bfbf00;stroke:#bfbf00;" x="709.698872" xlink:href="#m48eb150928" y="537.934369"/>
     <use style="fill:#bfbf00;stroke:#bfbf00;" x="554.733472" xlink:href="#m48eb150928" y="203.002291"/>
     <use style="fill:#bfbf00;stroke:#bfbf00;" x="760.945345" xlink:href="#m48eb150928" y="845.93859"/>
     <use style="fill:#bfbf00;stroke:#bfbf00;" x="206.762135" xlink:href="#m48eb150928" y="458.742662"/>
     <use style="fill:#bfbf00;stroke:#bfbf00;" x="202.217625" xlink:href="#m48eb150928" y="687.780736"/>
     <use style="fill:#bfbf00;stroke:#bfbf00;" x="78.520662" xlink:href="#m48eb150928" y="521.564216"/>
     <use style="fill:#bfbf00;stroke:#bfbf00;" x="74.596733" xlink:href="#m48eb150928" y="518.279403"/>
     <use style="fill:#bfbf00;stroke:#bfbf00;" x="293.568265" xlink:href="#m48eb150928" y="512.247044"/>
     <use style="fill:#bfbf00;stroke:#bfbf00;" x="456.397023" xlink:href="#m48eb150928" y="466.02017"/>
     <use style="fill:#bfbf00;stroke:#bfbf00;" x="664.165086" xlink:href="#m48eb150928" y="671.559032"/>
     <use style="fill:#bfbf00;stroke:#bfbf00;" x="602.777974" xlink:href="#m48eb150928" y="542.681485"/>
     <use style="fill:#bfbf00;stroke:#bfbf00;" x="862.863233" xlink:href="#m48eb150928" y="795.0904"/>
     <use style="fill:#bfbf00;stroke:#bfbf00;" x="756.679503" xlink:href="#m48eb150928" y="310.091955"/>
     <use style="fill:#bfbf00;stroke:#bfbf00;" x="78.834161" xlink:href="#m48eb150928" y="522.311685"/>
     <use style="fill:#bfbf00;stroke:#bfbf00;" x="564.174504" xlink:href="#m48eb150928" y="502.768319"/>
     <use style="fill:#bfbf00;stroke:#bfbf00;" x="294.788525" xlink:href="#m48eb150928" y="518.330705"/>
     <use style="fill:#bfbf00;stroke:#bfbf00;" x="768.666337" xlink:href="#m48eb150928" y="786.93305"/>
     <use style="fill:#bfbf00;stroke:#bfbf00;" x="987.396634" xlink:href="#m48eb150928" y="688.459058"/>
     <use style="fill:#bfbf00;stroke:#bfbf00;" x="616.893181" xlink:href="#m48eb150928" y="453.370823"/>
     <use style="fill:#bfbf00;stroke:#bfbf00;" x="242.279647" xlink:href="#m48eb150928" y="343.835217"/>
     <use style="fill:#bfbf00;stroke:#bfbf00;" x="797.659509" xlink:href="#m48eb150928" y="324.538257"/>
     <use style="fill:#bfbf00;stroke:#bfbf00;" x="987.687642" xlink:href="#m48eb150928" y="707.700133"/>
     <use style="fill:#bfbf00;stroke:#bfbf00;" x="903.137798" xlink:href="#m48eb150928" y="525.750214"/>
     <use style="fill:#bfbf00;stroke:#bfbf00;" x="772.831658" xlink:href="#m48eb150928" y="440.948615"/>
     <use style="fill:#bfbf00;stroke:#bfbf00;" x="611.789308" xlink:href="#m48eb150928" y="386.590768"/>
     <use style="fill:#bfbf00;stroke:#bfbf00;" x="724.950567" xlink:href="#m48eb150928" y="456.63027"/>
     <use style="fill:#bfbf00;stroke:#bfbf00;" x="648.877617" xlink:href="#m48eb150928" y="821.670777"/>
     <use style="fill:#bfbf00;stroke:#bfbf00;" x="710.60296" xlink:href="#m48eb150928" y="790.910701"/>
     <use style="fill:#bfbf00;stroke:#bfbf00;" x="418.082368" xlink:href="#m48eb150928" y="466.343804"/>
     <use style="fill:#bfbf00;stroke:#bfbf00;" x="446.762843" xlink:href="#m48eb150928" y="800.525614"/>
     <use style="fill:#bfbf00;stroke:#bfbf00;" x="84.977955" xlink:href="#m48eb150928" y="689.750136"/>
     <use style="fill:#bfbf00;stroke:#bfbf00;" x="204.069981" xlink:href="#m48eb150928" y="515.584824"/>
     <use style="fill:#bfbf00;stroke:#bfbf00;" x="189.365894" xlink:href="#m48eb150928" y="593.295351"/>
     <use style="fill:#bfbf00;stroke:#bfbf00;" x="821.470924" xlink:href="#m48eb150928" y="941.203636"/>
     <use style="fill:#bfbf00;stroke:#bfbf00;" x="823.104305" xlink:href="#m48eb150928" y="763.956864"/>
     <use style="fill:#bfbf00;stroke:#bfbf00;" x="707.134905" xlink:href="#m48eb150928" y="415.978525"/>
     <use style="fill:#bfbf00;stroke:#bfbf00;" x="939.597982" xlink:href="#m48eb150928" y="560.114882"/>
     <use style="fill:#bfbf00;stroke:#bfbf00;" x="682.907642" xlink:href="#m48eb150928" y="275.279492"/>
     <use style="fill:#bfbf00;stroke:#bfbf00;" x="648.059433" xlink:href="#m48eb150928" y="423.825599"/>
     <use style="fill:#bfbf00;stroke:#bfbf00;" x="311.589734" xlink:href="#m48eb150928" y="568.324482"/>
     <use style="fill:#bfbf00;stroke:#bfbf00;" x="178.609936" xlink:href="#m48eb150928" y="585.176387"/>
     <use style="fill:#bfbf00;stroke:#bfbf00;" x="554.702892" xlink:href="#m48eb150928" y="614.324806"/>
     <use style="fill:#bfbf00;stroke:#bfbf00;" x="521.705917" xlink:href="#m48eb150928" y="824.781038"/>
     <use style="fill:#bfbf00;stroke:#bfbf00;" x="364.762857" xlink:href="#m48eb150928" y="208.443022"/>
    </g>
   </g>
   <g id="PathCollection_3">
    <defs>
     <path d="M 0 3 
C 0.795609 3 1.55874 2.683901 2.12132 2.12132 
C 2.683901 1.55874 3 0.795609 3 0 
C 3 -0.795609 2.683901 -1.55874 2.12132 -2.12132 
C 1.55874 -2.683901 0.795609 -3 0 -3 
C -0.795609 -3 -1.55874 -2.683901 -2.12132 -2.12132 
C -2.683901 -1.55874 -3 -0.795609 -3 0 
C -3 0.795609 -2.683901 1.55874 -2.12132 2.12132 
C -1.55874 2.683901 -0.795609 3 0 3 
z
" id="m7af8b3623b" style="stroke:#bf00bf;"/>
    </defs>
    <g clip-path="url(#pf89bd3ed84)">
     <use style="fill:#bf00bf;stroke:#bf00bf;" x="892.159566" xlink:href="#m7af8b3623b" y="342.772921"/>
     <use style="fill:#bf00bf;stroke:#bf00bf;" x="751.901151" xlink:href="#m7af8b3623b" y="595.071132"/>
     <use style="fill:#bf00bf;stroke:#bf00bf;" x="282.347426" xlink:href="#m7af8b3623b" y="663.344122"/>
     <use style="fill:#bf00bf;stroke:#bf00bf;" x="388.829429" xlink:href="#m7af8b3623b" y="560.688072"/>
     <use style="fill:#bf00bf;stroke:#bf00bf;" x="672.588512" xlink:href="#m7af8b3623b" y="51.676364"/>
     <use style="fill:#bf00bf;stroke:#bf00bf;" x="278.022791" xlink:href="#m7af8b3623b" y="600.043765"/>
     <use style="fill:#bf00bf;stroke:#bf00bf;" x="611.710604" xlink:href="#m7af8b3623b" y="726.133694"/>
     <use style="fill:#bf00bf;stroke:#bf00bf;" x="701.596225" xlink:href="#m7af8b3623b" y="684.922286"/>
    </g>
   </g>
   <g id="matplotlib.axis_1">
    <g id="xtick_1">
     <g id="line2d_1">
      <defs>
       <path d="M 0 0 
L 0 3.5 
" id="m2c5efaa635" style="stroke:#000000;stroke-width:0.8;"/>
      </defs>
      <g>
       <use style="stroke:#000000;stroke-width:0.8;" x="154.202096" xlink:href="#m2c5efaa635" y="985.68"/>
      </g>
     </g>
     <g id="text_1">
      <!-- −8 -->
      <g transform="translate(146.831002 1000.278437)scale(0.1 -0.1)">
       <defs>
        <path d="M 10.59375 35.5 
L 73.1875 35.5 
L 73.1875 27.203125 
L 10.59375 27.203125 
z
" id="DejaVuSans-8722"/>
        <path d="M 31.78125 34.625 
Q 24.75 34.625 20.71875 30.859375 
Q 16.703125 27.09375 16.703125 20.515625 
Q 16.703125 13.921875 20.71875 10.15625 
Q 24.75 6.390625 31.78125 6.390625 
Q 38.8125 6.390625 42.859375 10.171875 
Q 46.921875 13.96875 46.921875 20.515625 
Q 46.921875 27.09375 42.890625 30.859375 
Q 38.875 34.625 31.78125 34.625 
z
M 21.921875 38.8125 
Q 15.578125 40.375 12.03125 44.71875 
Q 8.5 49.078125 8.5 55.328125 
Q 8.5 64.0625 14.71875 69.140625 
Q 20.953125 74.21875 31.78125 74.21875 
Q 42.671875 74.21875 48.875 69.140625 
Q 55.078125 64.0625 55.078125 55.328125 
Q 55.078125 49.078125 51.53125 44.71875 
Q 48 40.375 41.703125 38.8125 
Q 48.828125 37.15625 52.796875 32.3125 
Q 56.78125 27.484375 56.78125 20.515625 
Q 56.78125 9.90625 50.3125 4.234375 
Q 43.84375 -1.421875 31.78125 -1.421875 
Q 19.734375 -1.421875 13.25 4.234375 
Q 6.78125 9.90625 6.78125 20.515625 
Q 6.78125 27.484375 10.78125 32.3125 
Q 14.796875 37.15625 21.921875 38.8125 
z
M 18.3125 54.390625 
Q 18.3125 48.734375 21.84375 45.5625 
Q 25.390625 42.390625 31.78125 42.390625 
Q 38.140625 42.390625 41.71875 45.5625 
Q 45.3125 48.734375 45.3125 54.390625 
Q 45.3125 60.0625 41.71875 63.234375 
Q 38.140625 66.40625 31.78125 66.40625 
Q 25.390625 66.40625 21.84375 63.234375 
Q 18.3125 60.0625 18.3125 54.390625 
z
" id="DejaVuSans-56"/>
       </defs>
       <use xlink:href="#DejaVuSans-8722"/>
       <use x="83.789062" xlink:href="#DejaVuSans-56"/>
      </g>
     </g>
    </g>
    <g id="xtick_2">
     <g id="line2d_2">
      <g>
       <use style="stroke:#000000;stroke-width:0.8;" x="279.982777" xlink:href="#m2c5efaa635" y="985.68"/>
      </g>
     </g>
     <g id="text_2">
      <!-- −6 -->
      <g transform="translate(272.611683 1000.278437)scale(0.1 -0.1)">
       <defs>
        <path d="M 33.015625 40.375 
Q 26.375 40.375 22.484375 35.828125 
Q 18.609375 31.296875 18.609375 23.390625 
Q 18.609375 15.53125 22.484375 10.953125 
Q 26.375 6.390625 33.015625 6.390625 
Q 39.65625 6.390625 43.53125 10.953125 
Q 47.40625 15.53125 47.40625 23.390625 
Q 47.40625 31.296875 43.53125 35.828125 
Q 39.65625 40.375 33.015625 40.375 
z
M 52.59375 71.296875 
L 52.59375 62.3125 
Q 48.875 64.0625 45.09375 64.984375 
Q 41.3125 65.921875 37.59375 65.921875 
Q 27.828125 65.921875 22.671875 59.328125 
Q 17.53125 52.734375 16.796875 39.40625 
Q 19.671875 43.65625 24.015625 45.921875 
Q 28.375 48.1875 33.59375 48.1875 
Q 44.578125 48.1875 50.953125 41.515625 
Q 57.328125 34.859375 57.328125 23.390625 
Q 57.328125 12.15625 50.6875 5.359375 
Q 44.046875 -1.421875 33.015625 -1.421875 
Q 20.359375 -1.421875 13.671875 8.265625 
Q 6.984375 17.96875 6.984375 36.375 
Q 6.984375 53.65625 15.1875 63.9375 
Q 23.390625 74.21875 37.203125 74.21875 
Q 40.921875 74.21875 44.703125 73.484375 
Q 48.484375 72.75 52.59375 71.296875 
z
" id="DejaVuSans-54"/>
       </defs>
       <use xlink:href="#DejaVuSans-8722"/>
       <use x="83.789062" xlink:href="#DejaVuSans-54"/>
      </g>
     </g>
    </g>
    <g id="xtick_3">
     <g id="line2d_3">
      <g>
       <use style="stroke:#000000;stroke-width:0.8;" x="405.763457" xlink:href="#m2c5efaa635" y="985.68"/>
      </g>
     </g>
     <g id="text_3">
      <!-- −4 -->
      <g transform="translate(398.392363 1000.278437)scale(0.1 -0.1)">
       <defs>
        <path d="M 37.796875 64.3125 
L 12.890625 25.390625 
L 37.796875 25.390625 
z
M 35.203125 72.90625 
L 47.609375 72.90625 
L 47.609375 25.390625 
L 58.015625 25.390625 
L 58.015625 17.1875 
L 47.609375 17.1875 
L 47.609375 0 
L 37.796875 0 
L 37.796875 17.1875 
L 4.890625 17.1875 
L 4.890625 26.703125 
z
" id="DejaVuSans-52"/>
       </defs>
       <use xlink:href="#DejaVuSans-8722"/>
       <use x="83.789062" xlink:href="#DejaVuSans-52"/>
      </g>
     </g>
    </g>
    <g id="xtick_4">
     <g id="line2d_4">
      <g>
       <use style="stroke:#000000;stroke-width:0.8;" x="531.544138" xlink:href="#m2c5efaa635" y="985.68"/>
      </g>
     </g>
     <g id="text_4">
      <!-- −2 -->
      <g transform="translate(524.173044 1000.278437)scale(0.1 -0.1)">
       <defs>
        <path d="M 19.1875 8.296875 
L 53.609375 8.296875 
L 53.609375 0 
L 7.328125 0 
L 7.328125 8.296875 
Q 12.9375 14.109375 22.625 23.890625 
Q 32.328125 33.6875 34.8125 36.53125 
Q 39.546875 41.84375 41.421875 45.53125 
Q 43.3125 49.21875 43.3125 52.78125 
Q 43.3125 58.59375 39.234375 62.25 
Q 35.15625 65.921875 28.609375 65.921875 
Q 23.96875 65.921875 18.8125 64.3125 
Q 13.671875 62.703125 7.8125 59.421875 
L 7.8125 69.390625 
Q 13.765625 71.78125 18.9375 73 
Q 24.125 74.21875 28.421875 74.21875 
Q 39.75 74.21875 46.484375 68.546875 
Q 53.21875 62.890625 53.21875 53.421875 
Q 53.21875 48.921875 51.53125 44.890625 
Q 49.859375 40.875 45.40625 35.40625 
Q 44.1875 33.984375 37.640625 27.21875 
Q 31.109375 20.453125 19.1875 8.296875 
z
" id="DejaVuSans-50"/>
       </defs>
       <use xlink:href="#DejaVuSans-8722"/>
       <use x="83.789062" xlink:href="#DejaVuSans-50"/>
      </g>
     </g>
    </g>
    <g id="xtick_5">
     <g id="line2d_5">
      <g>
       <use style="stroke:#000000;stroke-width:0.8;" x="657.324818" xlink:href="#m2c5efaa635" y="985.68"/>
      </g>
     </g>
     <g id="text_5">
      <!-- 0 -->
      <g transform="translate(654.143568 1000.278437)scale(0.1 -0.1)">
       <defs>
        <path d="M 31.78125 66.40625 
Q 24.171875 66.40625 20.328125 58.90625 
Q 16.5 51.421875 16.5 36.375 
Q 16.5 21.390625 20.328125 13.890625 
Q 24.171875 6.390625 31.78125 6.390625 
Q 39.453125 6.390625 43.28125 13.890625 
Q 47.125 21.390625 47.125 36.375 
Q 47.125 51.421875 43.28125 58.90625 
Q 39.453125 66.40625 31.78125 66.40625 
z
M 31.78125 74.21875 
Q 44.046875 74.21875 50.515625 64.515625 
Q 56.984375 54.828125 56.984375 36.375 
Q 56.984375 17.96875 50.515625 8.265625 
Q 44.046875 -1.421875 31.78125 -1.421875 
Q 19.53125 -1.421875 13.0625 8.265625 
Q 6.59375 17.96875 6.59375 36.375 
Q 6.59375 54.828125 13.0625 64.515625 
Q 19.53125 74.21875 31.78125 74.21875 
z
" id="DejaVuSans-48"/>
       </defs>
       <use xlink:href="#DejaVuSans-48"/>
      </g>
     </g>
    </g>
    <g id="xtick_6">
     <g id="line2d_6">
      <g>
       <use style="stroke:#000000;stroke-width:0.8;" x="783.105499" xlink:href="#m2c5efaa635" y="985.68"/>
      </g>
     </g>
     <g id="text_6">
      <!-- 2 -->
      <g transform="translate(779.924249 1000.278437)scale(0.1 -0.1)">
       <use xlink:href="#DejaVuSans-50"/>
      </g>
     </g>
    </g>
    <g id="xtick_7">
     <g id="line2d_7">
      <g>
       <use style="stroke:#000000;stroke-width:0.8;" x="908.886179" xlink:href="#m2c5efaa635" y="985.68"/>
      </g>
     </g>
     <g id="text_7">
      <!-- 4 -->
      <g transform="translate(905.704929 1000.278437)scale(0.1 -0.1)">
       <use xlink:href="#DejaVuSans-52"/>
      </g>
     </g>
    </g>
   </g>
   <g id="matplotlib.axis_2">
    <g id="ytick_1">
     <g id="line2d_8">
      <defs>
       <path d="M 0 0 
L -3.5 0 
" id="m6b93ead396" style="stroke:#000000;stroke-width:0.8;"/>
      </defs>
      <g>
       <use style="stroke:#000000;stroke-width:0.8;" x="28.942188" xlink:href="#m6b93ead396" y="898.907832"/>
      </g>
     </g>
     <g id="text_8">
      <!-- −8 -->
      <g transform="translate(7.2 902.70705)scale(0.1 -0.1)">
       <use xlink:href="#DejaVuSans-8722"/>
       <use x="83.789062" xlink:href="#DejaVuSans-56"/>
      </g>
     </g>
    </g>
    <g id="ytick_2">
     <g id="line2d_9">
      <g>
       <use style="stroke:#000000;stroke-width:0.8;" x="28.942188" xlink:href="#m6b93ead396" y="722.172307"/>
      </g>
     </g>
     <g id="text_9">
      <!-- −6 -->
      <g transform="translate(7.2 725.971526)scale(0.1 -0.1)">
       <use xlink:href="#DejaVuSans-8722"/>
       <use x="83.789062" xlink:href="#DejaVuSans-54"/>
      </g>
     </g>
    </g>
    <g id="ytick_3">
     <g id="line2d_10">
      <g>
       <use style="stroke:#000000;stroke-width:0.8;" x="28.942188" xlink:href="#m6b93ead396" y="545.436783"/>
      </g>
     </g>
     <g id="text_10">
      <!-- −4 -->
      <g transform="translate(7.2 549.236002)scale(0.1 -0.1)">
       <use xlink:href="#DejaVuSans-8722"/>
       <use x="83.789062" xlink:href="#DejaVuSans-52"/>
      </g>
     </g>
    </g>
    <g id="ytick_4">
     <g id="line2d_11">
      <g>
       <use style="stroke:#000000;stroke-width:0.8;" x="28.942188" xlink:href="#m6b93ead396" y="368.701259"/>
      </g>
     </g>
     <g id="text_11">
      <!-- −2 -->
      <g transform="translate(7.2 372.500478)scale(0.1 -0.1)">
       <use xlink:href="#DejaVuSans-8722"/>
       <use x="83.789062" xlink:href="#DejaVuSans-50"/>
      </g>
     </g>
    </g>
    <g id="ytick_5">
     <g id="line2d_12">
      <g>
       <use style="stroke:#000000;stroke-width:0.8;" x="28.942188" xlink:href="#m6b93ead396" y="191.965735"/>
      </g>
     </g>
     <g id="text_12">
      <!-- 0 -->
      <g transform="translate(15.579688 195.764954)scale(0.1 -0.1)">
       <use xlink:href="#DejaVuSans-48"/>
      </g>
     </g>
    </g>
    <g id="ytick_6">
     <g id="line2d_13">
      <g>
       <use style="stroke:#000000;stroke-width:0.8;" x="28.942188" xlink:href="#m6b93ead396" y="15.230211"/>
      </g>
     </g>
     <g id="text_13">
      <!-- 2 -->
      <g transform="translate(15.579688 19.02943)scale(0.1 -0.1)">
       <use xlink:href="#DejaVuSans-50"/>
      </g>
     </g>
    </g>
   </g>
   <g id="patch_3">
    <path d="M 28.942188 985.68 
L 28.942188 7.2 
" style="fill:none;stroke:#000000;stroke-linecap:square;stroke-linejoin:miter;stroke-width:0.8;"/>
   </g>
   <g id="patch_4">
    <path d="M 1033.342188 985.68 
L 1033.342188 7.2 
" style="fill:none;stroke:#000000;stroke-linecap:square;stroke-linejoin:miter;stroke-width:0.8;"/>
   </g>
   <g id="patch_5">
    <path d="M 28.942188 985.68 
L 1033.342187 985.68 
" style="fill:none;stroke:#000000;stroke-linecap:square;stroke-linejoin:miter;stroke-width:0.8;"/>
   </g>
   <g id="patch_6">
    <path d="M 28.942188 7.2 
L 1033.342187 7.2 
" style="fill:none;stroke:#000000;stroke-linecap:square;stroke-linejoin:miter;stroke-width:0.8;"/>
   </g>
   <g id="text_14">
    <!-- peopl -->
    <g transform="translate(339.540118 652.680301)scale(0.1 -0.1)">
     <defs>
      <path d="M 18.109375 8.203125 
L 18.109375 -20.796875 
L 9.078125 -20.796875 
L 9.078125 54.6875 
L 18.109375 54.6875 
L 18.109375 46.390625 
Q 20.953125 51.265625 25.265625 53.625 
Q 29.59375 56 35.59375 56 
Q 45.5625 56 51.78125 48.09375 
Q 58.015625 40.1875 58.015625 27.296875 
Q 58.015625 14.40625 51.78125 6.484375 
Q 45.5625 -1.421875 35.59375 -1.421875 
Q 29.59375 -1.421875 25.265625 0.953125 
Q 20.953125 3.328125 18.109375 8.203125 
z
M 48.6875 27.296875 
Q 48.6875 37.203125 44.609375 42.84375 
Q 40.53125 48.484375 33.40625 48.484375 
Q 26.265625 48.484375 22.1875 42.84375 
Q 18.109375 37.203125 18.109375 27.296875 
Q 18.109375 17.390625 22.1875 11.75 
Q 26.265625 6.109375 33.40625 6.109375 
Q 40.53125 6.109375 44.609375 11.75 
Q 48.6875 17.390625 48.6875 27.296875 
z
" id="DejaVuSans-112"/>
      <path d="M 56.203125 29.59375 
L 56.203125 25.203125 
L 14.890625 25.203125 
Q 15.484375 15.921875 20.484375 11.0625 
Q 25.484375 6.203125 34.421875 6.203125 
Q 39.59375 6.203125 44.453125 7.46875 
Q 49.3125 8.734375 54.109375 11.28125 
L 54.109375 2.78125 
Q 49.265625 0.734375 44.1875 -0.34375 
Q 39.109375 -1.421875 33.890625 -1.421875 
Q 20.796875 -1.421875 13.15625 6.1875 
Q 5.515625 13.8125 5.515625 26.8125 
Q 5.515625 40.234375 12.765625 48.109375 
Q 20.015625 56 32.328125 56 
Q 43.359375 56 49.78125 48.890625 
Q 56.203125 41.796875 56.203125 29.59375 
z
M 47.21875 32.234375 
Q 47.125 39.59375 43.09375 43.984375 
Q 39.0625 48.390625 32.421875 48.390625 
Q 24.90625 48.390625 20.390625 44.140625 
Q 15.875 39.890625 15.1875 32.171875 
z
" id="DejaVuSans-101"/>
      <path d="M 30.609375 48.390625 
Q 23.390625 48.390625 19.1875 42.75 
Q 14.984375 37.109375 14.984375 27.296875 
Q 14.984375 17.484375 19.15625 11.84375 
Q 23.34375 6.203125 30.609375 6.203125 
Q 37.796875 6.203125 41.984375 11.859375 
Q 46.1875 17.53125 46.1875 27.296875 
Q 46.1875 37.015625 41.984375 42.703125 
Q 37.796875 48.390625 30.609375 48.390625 
z
M 30.609375 56 
Q 42.328125 56 49.015625 48.375 
Q 55.71875 40.765625 55.71875 27.296875 
Q 55.71875 13.875 49.015625 6.21875 
Q 42.328125 -1.421875 30.609375 -1.421875 
Q 18.84375 -1.421875 12.171875 6.21875 
Q 5.515625 13.875 5.515625 27.296875 
Q 5.515625 40.765625 12.171875 48.375 
Q 18.84375 56 30.609375 56 
z
" id="DejaVuSans-111"/>
      <path d="M 9.421875 75.984375 
L 18.40625 75.984375 
L 18.40625 0 
L 9.421875 0 
z
" id="DejaVuSans-108"/>
     </defs>
     <use xlink:href="#DejaVuSans-112"/>
     <use x="63.476562" xlink:href="#DejaVuSans-101"/>
     <use x="125" xlink:href="#DejaVuSans-111"/>
     <use x="186.181641" xlink:href="#DejaVuSans-112"/>
     <use x="249.658203" xlink:href="#DejaVuSans-108"/>
    </g>
   </g>
   <g id="text_15">
    <!-- cnn -->
    <g transform="translate(854.2611 783.144728)scale(0.1 -0.1)">
     <defs>
      <path d="M 48.78125 52.59375 
L 48.78125 44.1875 
Q 44.96875 46.296875 41.140625 47.34375 
Q 37.3125 48.390625 33.40625 48.390625 
Q 24.65625 48.390625 19.8125 42.84375 
Q 14.984375 37.3125 14.984375 27.296875 
Q 14.984375 17.28125 19.8125 11.734375 
Q 24.65625 6.203125 33.40625 6.203125 
Q 37.3125 6.203125 41.140625 7.25 
Q 44.96875 8.296875 48.78125 10.40625 
L 48.78125 2.09375 
Q 45.015625 0.34375 40.984375 -0.53125 
Q 36.96875 -1.421875 32.421875 -1.421875 
Q 20.0625 -1.421875 12.78125 6.34375 
Q 5.515625 14.109375 5.515625 27.296875 
Q 5.515625 40.671875 12.859375 48.328125 
Q 20.21875 56 33.015625 56 
Q 37.15625 56 41.109375 55.140625 
Q 45.0625 54.296875 48.78125 52.59375 
z
" id="DejaVuSans-99"/>
      <path d="M 54.890625 33.015625 
L 54.890625 0 
L 45.90625 0 
L 45.90625 32.71875 
Q 45.90625 40.484375 42.875 44.328125 
Q 39.84375 48.1875 33.796875 48.1875 
Q 26.515625 48.1875 22.3125 43.546875 
Q 18.109375 38.921875 18.109375 30.90625 
L 18.109375 0 
L 9.078125 0 
L 9.078125 54.6875 
L 18.109375 54.6875 
L 18.109375 46.1875 
Q 21.34375 51.125 25.703125 53.5625 
Q 30.078125 56 35.796875 56 
Q 45.21875 56 50.046875 50.171875 
Q 54.890625 44.34375 54.890625 33.015625 
z
" id="DejaVuSans-110"/>
     </defs>
     <use xlink:href="#DejaVuSans-99"/>
     <use x="54.980469" xlink:href="#DejaVuSans-110"/>
     <use x="118.359375" xlink:href="#DejaVuSans-110"/>
    </g>
   </g>
   <g id="text_16">
    <!-- trump -->
    <g transform="translate(823.154238 630.541083)scale(0.1 -0.1)">
     <defs>
      <path d="M 18.3125 70.21875 
L 18.3125 54.6875 
L 36.8125 54.6875 
L 36.8125 47.703125 
L 18.3125 47.703125 
L 18.3125 18.015625 
Q 18.3125 11.328125 20.140625 9.421875 
Q 21.96875 7.515625 27.59375 7.515625 
L 36.8125 7.515625 
L 36.8125 0 
L 27.59375 0 
Q 17.1875 0 13.234375 3.875 
Q 9.28125 7.765625 9.28125 18.015625 
L 9.28125 47.703125 
L 2.6875 47.703125 
L 2.6875 54.6875 
L 9.28125 54.6875 
L 9.28125 70.21875 
z
" id="DejaVuSans-116"/>
      <path d="M 41.109375 46.296875 
Q 39.59375 47.171875 37.8125 47.578125 
Q 36.03125 48 33.890625 48 
Q 26.265625 48 22.1875 43.046875 
Q 18.109375 38.09375 18.109375 28.8125 
L 18.109375 0 
L 9.078125 0 
L 9.078125 54.6875 
L 18.109375 54.6875 
L 18.109375 46.1875 
Q 20.953125 51.171875 25.484375 53.578125 
Q 30.03125 56 36.53125 56 
Q 37.453125 56 38.578125 55.875 
Q 39.703125 55.765625 41.0625 55.515625 
z
" id="DejaVuSans-114"/>
      <path d="M 8.5 21.578125 
L 8.5 54.6875 
L 17.484375 54.6875 
L 17.484375 21.921875 
Q 17.484375 14.15625 20.5 10.265625 
Q 23.53125 6.390625 29.59375 6.390625 
Q 36.859375 6.390625 41.078125 11.03125 
Q 45.3125 15.671875 45.3125 23.6875 
L 45.3125 54.6875 
L 54.296875 54.6875 
L 54.296875 0 
L 45.3125 0 
L 45.3125 8.40625 
Q 42.046875 3.421875 37.71875 1 
Q 33.40625 -1.421875 27.6875 -1.421875 
Q 18.265625 -1.421875 13.375 4.4375 
Q 8.5 10.296875 8.5 21.578125 
z
M 31.109375 56 
z
" id="DejaVuSans-117"/>
      <path d="M 52 44.1875 
Q 55.375 50.25 60.0625 53.125 
Q 64.75 56 71.09375 56 
Q 79.640625 56 84.28125 50.015625 
Q 88.921875 44.046875 88.921875 33.015625 
L 88.921875 0 
L 79.890625 0 
L 79.890625 32.71875 
Q 79.890625 40.578125 77.09375 44.375 
Q 74.3125 48.1875 68.609375 48.1875 
Q 61.625 48.1875 57.5625 43.546875 
Q 53.515625 38.921875 53.515625 30.90625 
L 53.515625 0 
L 44.484375 0 
L 44.484375 32.71875 
Q 44.484375 40.625 41.703125 44.40625 
Q 38.921875 48.1875 33.109375 48.1875 
Q 26.21875 48.1875 22.15625 43.53125 
Q 18.109375 38.875 18.109375 30.90625 
L 18.109375 0 
L 9.078125 0 
L 9.078125 54.6875 
L 18.109375 54.6875 
L 18.109375 46.1875 
Q 21.1875 51.21875 25.484375 53.609375 
Q 29.78125 56 35.6875 56 
Q 41.65625 56 45.828125 52.96875 
Q 50 49.953125 52 44.1875 
z
" id="DejaVuSans-109"/>
     </defs>
     <use xlink:href="#DejaVuSans-116"/>
     <use x="39.208984" xlink:href="#DejaVuSans-114"/>
     <use x="80.322266" xlink:href="#DejaVuSans-117"/>
     <use x="143.701172" xlink:href="#DejaVuSans-109"/>
     <use x="241.113281" xlink:href="#DejaVuSans-112"/>
    </g>
   </g>
   <g id="text_17">
    <!-- time -->
    <g transform="translate(451.99239 380.763583)scale(0.1 -0.1)">
     <defs>
      <path d="M 9.421875 54.6875 
L 18.40625 54.6875 
L 18.40625 0 
L 9.421875 0 
z
M 9.421875 75.984375 
L 18.40625 75.984375 
L 18.40625 64.59375 
L 9.421875 64.59375 
z
" id="DejaVuSans-105"/>
     </defs>
     <use xlink:href="#DejaVuSans-116"/>
     <use x="39.208984" xlink:href="#DejaVuSans-105"/>
     <use x="66.992188" xlink:href="#DejaVuSans-109"/>
     <use x="164.404297" xlink:href="#DejaVuSans-101"/>
    </g>
   </g>
   <g id="text_18">
    <!-- cuomo -->
    <g transform="translate(985.709009 727.55313)scale(0.1 -0.1)">
     <use xlink:href="#DejaVuSans-99"/>
     <use x="54.980469" xlink:href="#DejaVuSans-117"/>
     <use x="118.359375" xlink:href="#DejaVuSans-111"/>
     <use x="179.541016" xlink:href="#DejaVuSans-109"/>
     <use x="276.953125" xlink:href="#DejaVuSans-111"/>
    </g>
   </g>
   <g id="text_19">
    <!-- news -->
    <g transform="translate(814.615818 850.252082)scale(0.1 -0.1)">
     <defs>
      <path d="M 4.203125 54.6875 
L 13.1875 54.6875 
L 24.421875 12.015625 
L 35.59375 54.6875 
L 46.1875 54.6875 
L 57.421875 12.015625 
L 68.609375 54.6875 
L 77.59375 54.6875 
L 63.28125 0 
L 52.6875 0 
L 40.921875 44.828125 
L 29.109375 0 
L 18.5 0 
z
" id="DejaVuSans-119"/>
      <path d="M 44.28125 53.078125 
L 44.28125 44.578125 
Q 40.484375 46.53125 36.375 47.5 
Q 32.28125 48.484375 27.875 48.484375 
Q 21.1875 48.484375 17.84375 46.4375 
Q 14.5 44.390625 14.5 40.28125 
Q 14.5 37.15625 16.890625 35.375 
Q 19.28125 33.59375 26.515625 31.984375 
L 29.59375 31.296875 
Q 39.15625 29.25 43.1875 25.515625 
Q 47.21875 21.78125 47.21875 15.09375 
Q 47.21875 7.46875 41.1875 3.015625 
Q 35.15625 -1.421875 24.609375 -1.421875 
Q 20.21875 -1.421875 15.453125 -0.5625 
Q 10.6875 0.296875 5.421875 2 
L 5.421875 11.28125 
Q 10.40625 8.6875 15.234375 7.390625 
Q 20.0625 6.109375 24.8125 6.109375 
Q 31.15625 6.109375 34.5625 8.28125 
Q 37.984375 10.453125 37.984375 14.40625 
Q 37.984375 18.0625 35.515625 20.015625 
Q 33.0625 21.96875 24.703125 23.78125 
L 21.578125 24.515625 
Q 13.234375 26.265625 9.515625 29.90625 
Q 5.8125 33.546875 5.8125 39.890625 
Q 5.8125 47.609375 11.28125 51.796875 
Q 16.75 56 26.8125 56 
Q 31.78125 56 36.171875 55.265625 
Q 40.578125 54.546875 44.28125 53.078125 
z
" id="DejaVuSans-115"/>
     </defs>
     <use xlink:href="#DejaVuSans-110"/>
     <use x="63.378906" xlink:href="#DejaVuSans-101"/>
     <use x="124.902344" xlink:href="#DejaVuSans-119"/>
     <use x="206.689453" xlink:href="#DejaVuSans-115"/>
    </g>
   </g>
   <g id="text_20">
    <!-- year -->
    <g transform="translate(561.686759 427.151336)scale(0.1 -0.1)">
     <defs>
      <path d="M 32.171875 -5.078125 
Q 28.375 -14.84375 24.75 -17.8125 
Q 21.140625 -20.796875 15.09375 -20.796875 
L 7.90625 -20.796875 
L 7.90625 -13.28125 
L 13.1875 -13.28125 
Q 16.890625 -13.28125 18.9375 -11.515625 
Q 21 -9.765625 23.484375 -3.21875 
L 25.09375 0.875 
L 2.984375 54.6875 
L 12.5 54.6875 
L 29.59375 11.921875 
L 46.6875 54.6875 
L 56.203125 54.6875 
z
" id="DejaVuSans-121"/>
      <path d="M 34.28125 27.484375 
Q 23.390625 27.484375 19.1875 25 
Q 14.984375 22.515625 14.984375 16.5 
Q 14.984375 11.71875 18.140625 8.90625 
Q 21.296875 6.109375 26.703125 6.109375 
Q 34.1875 6.109375 38.703125 11.40625 
Q 43.21875 16.703125 43.21875 25.484375 
L 43.21875 27.484375 
z
M 52.203125 31.203125 
L 52.203125 0 
L 43.21875 0 
L 43.21875 8.296875 
Q 40.140625 3.328125 35.546875 0.953125 
Q 30.953125 -1.421875 24.3125 -1.421875 
Q 15.921875 -1.421875 10.953125 3.296875 
Q 6 8.015625 6 15.921875 
Q 6 25.140625 12.171875 29.828125 
Q 18.359375 34.515625 30.609375 34.515625 
L 43.21875 34.515625 
L 43.21875 35.40625 
Q 43.21875 41.609375 39.140625 45 
Q 35.0625 48.390625 27.6875 48.390625 
Q 23 48.390625 18.546875 47.265625 
Q 14.109375 46.140625 10.015625 43.890625 
L 10.015625 52.203125 
Q 14.9375 54.109375 19.578125 55.046875 
Q 24.21875 56 28.609375 56 
Q 40.484375 56 46.34375 49.84375 
Q 52.203125 43.703125 52.203125 31.203125 
z
" id="DejaVuSans-97"/>
     </defs>
     <use xlink:href="#DejaVuSans-121"/>
     <use x="59.179688" xlink:href="#DejaVuSans-101"/>
     <use x="120.703125" xlink:href="#DejaVuSans-97"/>
     <use x="181.982422" xlink:href="#DejaVuSans-114"/>
    </g>
   </g>
   <g id="text_21">
    <!-- man -->
    <g transform="translate(615.456725 528.848243)scale(0.1 -0.1)">
     <use xlink:href="#DejaVuSans-109"/>
     <use x="97.412109" xlink:href="#DejaVuSans-97"/>
     <use x="158.691406" xlink:href="#DejaVuSans-110"/>
    </g>
   </g>
   <g id="text_22">
    <!-- covid -->
    <g transform="translate(356.40777 640.005229)scale(0.1 -0.1)">
     <defs>
      <path d="M 2.984375 54.6875 
L 12.5 54.6875 
L 29.59375 8.796875 
L 46.6875 54.6875 
L 56.203125 54.6875 
L 35.6875 0 
L 23.484375 0 
z
" id="DejaVuSans-118"/>
      <path d="M 45.40625 46.390625 
L 45.40625 75.984375 
L 54.390625 75.984375 
L 54.390625 0 
L 45.40625 0 
L 45.40625 8.203125 
Q 42.578125 3.328125 38.25 0.953125 
Q 33.9375 -1.421875 27.875 -1.421875 
Q 17.96875 -1.421875 11.734375 6.484375 
Q 5.515625 14.40625 5.515625 27.296875 
Q 5.515625 40.1875 11.734375 48.09375 
Q 17.96875 56 27.875 56 
Q 33.9375 56 38.25 53.625 
Q 42.578125 51.265625 45.40625 46.390625 
z
M 14.796875 27.296875 
Q 14.796875 17.390625 18.875 11.75 
Q 22.953125 6.109375 30.078125 6.109375 
Q 37.203125 6.109375 41.296875 11.75 
Q 45.40625 17.390625 45.40625 27.296875 
Q 45.40625 37.203125 41.296875 42.84375 
Q 37.203125 48.484375 30.078125 48.484375 
Q 22.953125 48.484375 18.875 42.84375 
Q 14.796875 37.203125 14.796875 27.296875 
z
" id="DejaVuSans-100"/>
     </defs>
     <use xlink:href="#DejaVuSans-99"/>
     <use x="54.980469" xlink:href="#DejaVuSans-111"/>
     <use x="116.162109" xlink:href="#DejaVuSans-118"/>
     <use x="175.341797" xlink:href="#DejaVuSans-105"/>
     <use x="203.125" xlink:href="#DejaVuSans-100"/>
    </g>
   </g>
   <g id="text_23">
    <!-- god -->
    <g transform="translate(371.514398 726.149757)scale(0.1 -0.1)">
     <defs>
      <path d="M 45.40625 27.984375 
Q 45.40625 37.75 41.375 43.109375 
Q 37.359375 48.484375 30.078125 48.484375 
Q 22.859375 48.484375 18.828125 43.109375 
Q 14.796875 37.75 14.796875 27.984375 
Q 14.796875 18.265625 18.828125 12.890625 
Q 22.859375 7.515625 30.078125 7.515625 
Q 37.359375 7.515625 41.375 12.890625 
Q 45.40625 18.265625 45.40625 27.984375 
z
M 54.390625 6.78125 
Q 54.390625 -7.171875 48.1875 -13.984375 
Q 42 -20.796875 29.203125 -20.796875 
Q 24.46875 -20.796875 20.265625 -20.09375 
Q 16.0625 -19.390625 12.109375 -17.921875 
L 12.109375 -9.1875 
Q 16.0625 -11.328125 19.921875 -12.34375 
Q 23.78125 -13.375 27.78125 -13.375 
Q 36.625 -13.375 41.015625 -8.765625 
Q 45.40625 -4.15625 45.40625 5.171875 
L 45.40625 9.625 
Q 42.625 4.78125 38.28125 2.390625 
Q 33.9375 0 27.875 0 
Q 17.828125 0 11.671875 7.65625 
Q 5.515625 15.328125 5.515625 27.984375 
Q 5.515625 40.671875 11.671875 48.328125 
Q 17.828125 56 27.875 56 
Q 33.9375 56 38.28125 53.609375 
Q 42.625 51.21875 45.40625 46.390625 
L 45.40625 54.6875 
L 54.390625 54.6875 
z
" id="DejaVuSans-103"/>
     </defs>
     <use xlink:href="#DejaVuSans-103"/>
     <use x="63.476562" xlink:href="#DejaVuSans-111"/>
     <use x="124.658203" xlink:href="#DejaVuSans-100"/>
    </g>
   </g>
   <g id="text_24">
    <!-- guy -->
    <g transform="translate(347.689562 409.994464)scale(0.1 -0.1)">
     <use xlink:href="#DejaVuSans-103"/>
     <use x="63.476562" xlink:href="#DejaVuSans-117"/>
     <use x="126.855469" xlink:href="#DejaVuSans-121"/>
    </g>
   </g>
   <g id="text_25">
    <!-- vaccin -->
    <g transform="translate(331.262355 765.553402)scale(0.1 -0.1)">
     <use xlink:href="#DejaVuSans-118"/>
     <use x="59.179688" xlink:href="#DejaVuSans-97"/>
     <use x="120.458984" xlink:href="#DejaVuSans-99"/>
     <use x="175.439453" xlink:href="#DejaVuSans-99"/>
     <use x="230.419922" xlink:href="#DejaVuSans-105"/>
     <use x="258.203125" xlink:href="#DejaVuSans-110"/>
    </g>
   </g>
   <g id="text_26">
    <!-- thing -->
    <g transform="translate(484.571322 528.560931)scale(0.1 -0.1)">
     <defs>
      <path d="M 54.890625 33.015625 
L 54.890625 0 
L 45.90625 0 
L 45.90625 32.71875 
Q 45.90625 40.484375 42.875 44.328125 
Q 39.84375 48.1875 33.796875 48.1875 
Q 26.515625 48.1875 22.3125 43.546875 
Q 18.109375 38.921875 18.109375 30.90625 
L 18.109375 0 
L 9.078125 0 
L 9.078125 75.984375 
L 18.109375 75.984375 
L 18.109375 46.1875 
Q 21.34375 51.125 25.703125 53.5625 
Q 30.078125 56 35.796875 56 
Q 45.21875 56 50.046875 50.171875 
Q 54.890625 44.34375 54.890625 33.015625 
z
" id="DejaVuSans-104"/>
     </defs>
     <use xlink:href="#DejaVuSans-116"/>
     <use x="39.208984" xlink:href="#DejaVuSans-104"/>
     <use x="102.587891" xlink:href="#DejaVuSans-105"/>
     <use x="130.371094" xlink:href="#DejaVuSans-110"/>
     <use x="193.75" xlink:href="#DejaVuSans-103"/>
    </g>
   </g>
   <g id="text_27">
    <!-- way -->
    <g transform="translate(488.831308 450.617597)scale(0.1 -0.1)">
     <use xlink:href="#DejaVuSans-119"/>
     <use x="81.787109" xlink:href="#DejaVuSans-97"/>
     <use x="143.066406" xlink:href="#DejaVuSans-121"/>
    </g>
   </g>
   <g id="text_28">
    <!-- countri -->
    <g transform="translate(536.99267 342.931554)scale(0.1 -0.1)">
     <use xlink:href="#DejaVuSans-99"/>
     <use x="54.980469" xlink:href="#DejaVuSans-111"/>
     <use x="116.162109" xlink:href="#DejaVuSans-117"/>
     <use x="179.541016" xlink:href="#DejaVuSans-110"/>
     <use x="242.919922" xlink:href="#DejaVuSans-116"/>
     <use x="282.128906" xlink:href="#DejaVuSans-114"/>
     <use x="323.242188" xlink:href="#DejaVuSans-105"/>
    </g>
   </g>
   <g id="text_29">
    <!-- biden -->
    <g transform="translate(890.140699 611.626274)scale(0.1 -0.1)">
     <defs>
      <path d="M 48.6875 27.296875 
Q 48.6875 37.203125 44.609375 42.84375 
Q 40.53125 48.484375 33.40625 48.484375 
Q 26.265625 48.484375 22.1875 42.84375 
Q 18.109375 37.203125 18.109375 27.296875 
Q 18.109375 17.390625 22.1875 11.75 
Q 26.265625 6.109375 33.40625 6.109375 
Q 40.53125 6.109375 44.609375 11.75 
Q 48.6875 17.390625 48.6875 27.296875 
z
M 18.109375 46.390625 
Q 20.953125 51.265625 25.265625 53.625 
Q 29.59375 56 35.59375 56 
Q 45.5625 56 51.78125 48.09375 
Q 58.015625 40.1875 58.015625 27.296875 
Q 58.015625 14.40625 51.78125 6.484375 
Q 45.5625 -1.421875 35.59375 -1.421875 
Q 29.59375 -1.421875 25.265625 0.953125 
Q 20.953125 3.328125 18.109375 8.203125 
L 18.109375 0 
L 9.078125 0 
L 9.078125 75.984375 
L 18.109375 75.984375 
z
" id="DejaVuSans-98"/>
     </defs>
     <use xlink:href="#DejaVuSans-98"/>
     <use x="63.476562" xlink:href="#DejaVuSans-105"/>
     <use x="91.259766" xlink:href="#DejaVuSans-100"/>
     <use x="154.736328" xlink:href="#DejaVuSans-101"/>
     <use x="216.259766" xlink:href="#DejaVuSans-110"/>
    </g>
   </g>
   <g id="text_30">
    <!-- tax -->
    <g transform="translate(892.426393 339.724484)scale(0.1 -0.1)">
     <defs>
      <path d="M 54.890625 54.6875 
L 35.109375 28.078125 
L 55.90625 0 
L 45.3125 0 
L 29.390625 21.484375 
L 13.484375 0 
L 2.875 0 
L 24.125 28.609375 
L 4.6875 54.6875 
L 15.28125 54.6875 
L 29.78125 35.203125 
L 44.28125 54.6875 
z
" id="DejaVuSans-120"/>
     </defs>
     <use xlink:href="#DejaVuSans-116"/>
     <use x="39.208984" xlink:href="#DejaVuSans-97"/>
     <use x="100.488281" xlink:href="#DejaVuSans-120"/>
    </g>
   </g>
   <g id="text_31">
    <!-- life -->
    <g transform="translate(413.246235 546.800346)scale(0.1 -0.1)">
     <defs>
      <path d="M 37.109375 75.984375 
L 37.109375 68.5 
L 28.515625 68.5 
Q 23.6875 68.5 21.796875 66.546875 
Q 19.921875 64.59375 19.921875 59.515625 
L 19.921875 54.6875 
L 34.71875 54.6875 
L 34.71875 47.703125 
L 19.921875 47.703125 
L 19.921875 0 
L 10.890625 0 
L 10.890625 47.703125 
L 2.296875 47.703125 
L 2.296875 54.6875 
L 10.890625 54.6875 
L 10.890625 58.5 
Q 10.890625 67.625 15.140625 71.796875 
Q 19.390625 75.984375 28.609375 75.984375 
z
" id="DejaVuSans-102"/>
     </defs>
     <use xlink:href="#DejaVuSans-108"/>
     <use x="27.783203" xlink:href="#DejaVuSans-105"/>
     <use x="55.566406" xlink:href="#DejaVuSans-102"/>
     <use x="90.771484" xlink:href="#DejaVuSans-101"/>
    </g>
   </g>
   <g id="text_32">
    <!-- mask -->
    <g transform="translate(103.23939 536.868331)scale(0.1 -0.1)">
     <defs>
      <path d="M 9.078125 75.984375 
L 18.109375 75.984375 
L 18.109375 31.109375 
L 44.921875 54.6875 
L 56.390625 54.6875 
L 27.390625 29.109375 
L 57.625 0 
L 45.90625 0 
L 18.109375 26.703125 
L 18.109375 0 
L 9.078125 0 
z
" id="DejaVuSans-107"/>
     </defs>
     <use xlink:href="#DejaVuSans-109"/>
     <use x="97.412109" xlink:href="#DejaVuSans-97"/>
     <use x="158.691406" xlink:href="#DejaVuSans-115"/>
     <use x="210.791016" xlink:href="#DejaVuSans-107"/>
    </g>
   </g>
   <g id="text_33">
    <!-- world -->
    <g transform="translate(542.023595 571.882541)scale(0.1 -0.1)">
     <use xlink:href="#DejaVuSans-119"/>
     <use x="81.787109" xlink:href="#DejaVuSans-111"/>
     <use x="142.96875" xlink:href="#DejaVuSans-114"/>
     <use x="184.082031" xlink:href="#DejaVuSans-108"/>
     <use x="211.865234" xlink:href="#DejaVuSans-100"/>
    </g>
   </g>
   <g id="text_34">
    <!-- day -->
    <g transform="translate(556.817313 641.964811)scale(0.1 -0.1)">
     <use xlink:href="#DejaVuSans-100"/>
     <use x="63.476562" xlink:href="#DejaVuSans-97"/>
     <use x="124.755859" xlink:href="#DejaVuSans-121"/>
    </g>
   </g>
   <g id="text_35">
    <!-- state -->
    <g transform="translate(437.756807 631.574114)scale(0.1 -0.1)">
     <use xlink:href="#DejaVuSans-115"/>
     <use x="52.099609" xlink:href="#DejaVuSans-116"/>
     <use x="91.308594" xlink:href="#DejaVuSans-97"/>
     <use x="152.587891" xlink:href="#DejaVuSans-116"/>
     <use x="191.796875" xlink:href="#DejaVuSans-101"/>
    </g>
   </g>
   <g id="text_36">
    <!-- desanti -->
    <g transform="translate(151.693146 682.016356)scale(0.1 -0.1)">
     <use xlink:href="#DejaVuSans-100"/>
     <use x="63.476562" xlink:href="#DejaVuSans-101"/>
     <use x="125" xlink:href="#DejaVuSans-115"/>
     <use x="177.099609" xlink:href="#DejaVuSans-97"/>
     <use x="238.378906" xlink:href="#DejaVuSans-110"/>
     <use x="301.757812" xlink:href="#DejaVuSans-116"/>
     <use x="340.966797" xlink:href="#DejaVuSans-105"/>
    </g>
   </g>
   <g id="text_37">
    <!-- presid -->
    <g transform="translate(739.606706 572.769526)scale(0.1 -0.1)">
     <use xlink:href="#DejaVuSans-112"/>
     <use x="63.476562" xlink:href="#DejaVuSans-114"/>
     <use x="102.339844" xlink:href="#DejaVuSans-101"/>
     <use x="163.863281" xlink:href="#DejaVuSans-115"/>
     <use x="215.962891" xlink:href="#DejaVuSans-105"/>
     <use x="243.746094" xlink:href="#DejaVuSans-100"/>
    </g>
   </g>
   <g id="text_38">
    <!-- money -->
    <g transform="translate(639.317538 477.073207)scale(0.1 -0.1)">
     <use xlink:href="#DejaVuSans-109"/>
     <use x="97.412109" xlink:href="#DejaVuSans-111"/>
     <use x="158.59375" xlink:href="#DejaVuSans-110"/>
     <use x="221.972656" xlink:href="#DejaVuSans-101"/>
     <use x="283.496094" xlink:href="#DejaVuSans-121"/>
    </g>
   </g>
   <g id="text_39">
    <!-- noth -->
    <g transform="translate(664.625893 534.015001)scale(0.1 -0.1)">
     <use xlink:href="#DejaVuSans-110"/>
     <use x="63.378906" xlink:href="#DejaVuSans-111"/>
     <use x="124.560547" xlink:href="#DejaVuSans-116"/>
     <use x="163.769531" xlink:href="#DejaVuSans-104"/>
    </g>
   </g>
   <g id="text_40">
    <!-- one -->
    <g transform="translate(615.313095 611.291959)scale(0.1 -0.1)">
     <use xlink:href="#DejaVuSans-111"/>
     <use x="61.181641" xlink:href="#DejaVuSans-110"/>
     <use x="124.560547" xlink:href="#DejaVuSans-101"/>
    </g>
   </g>
   <g id="text_41">
    <!-- lol -->
    <g transform="translate(793.674184 553.934103)scale(0.1 -0.1)">
     <use xlink:href="#DejaVuSans-108"/>
     <use x="27.783203" xlink:href="#DejaVuSans-111"/>
     <use x="88.964844" xlink:href="#DejaVuSans-108"/>
    </g>
   </g>
   <g id="text_42">
    <!-- space -->
    <g transform="translate(642.568967 60.82136)scale(0.1 -0.1)">
     <use xlink:href="#DejaVuSans-115"/>
     <use x="52.099609" xlink:href="#DejaVuSans-112"/>
     <use x="115.576172" xlink:href="#DejaVuSans-97"/>
     <use x="176.855469" xlink:href="#DejaVuSans-99"/>
     <use x="231.835938" xlink:href="#DejaVuSans-101"/>
    </g>
   </g>
   <g id="text_43">
    <!-- everyon -->
    <g transform="translate(446.010119 400.120009)scale(0.1 -0.1)">
     <use xlink:href="#DejaVuSans-101"/>
     <use x="61.523438" xlink:href="#DejaVuSans-118"/>
     <use x="120.703125" xlink:href="#DejaVuSans-101"/>
     <use x="182.226562" xlink:href="#DejaVuSans-114"/>
     <use x="223.339844" xlink:href="#DejaVuSans-121"/>
     <use x="282.519531" xlink:href="#DejaVuSans-111"/>
     <use x="343.701172" xlink:href="#DejaVuSans-110"/>
    </g>
   </g>
   <g id="text_44">
    <!-- thank -->
    <g transform="translate(517.22421 279.237542)scale(0.1 -0.1)">
     <use xlink:href="#DejaVuSans-116"/>
     <use x="39.208984" xlink:href="#DejaVuSans-104"/>
     <use x="102.587891" xlink:href="#DejaVuSans-97"/>
     <use x="163.867188" xlink:href="#DejaVuSans-110"/>
     <use x="227.246094" xlink:href="#DejaVuSans-107"/>
    </g>
   </g>
   <g id="text_45">
    <!-- right -->
    <g transform="translate(295.372112 323.413386)scale(0.1 -0.1)">
     <use xlink:href="#DejaVuSans-114"/>
     <use x="41.113281" xlink:href="#DejaVuSans-105"/>
     <use x="68.896484" xlink:href="#DejaVuSans-103"/>
     <use x="132.373047" xlink:href="#DejaVuSans-104"/>
     <use x="195.751953" xlink:href="#DejaVuSans-116"/>
    </g>
   </g>
   <g id="text_46">
    <!-- someth -->
    <g transform="translate(680.327037 359.855461)scale(0.1 -0.1)">
     <use xlink:href="#DejaVuSans-115"/>
     <use x="52.099609" xlink:href="#DejaVuSans-111"/>
     <use x="113.28125" xlink:href="#DejaVuSans-109"/>
     <use x="210.693359" xlink:href="#DejaVuSans-101"/>
     <use x="272.216797" xlink:href="#DejaVuSans-116"/>
     <use x="311.425781" xlink:href="#DejaVuSans-104"/>
    </g>
   </g>
   <g id="text_47">
    <!-- anyon -->
    <g transform="translate(678.011979 622.31547)scale(0.1 -0.1)">
     <use xlink:href="#DejaVuSans-97"/>
     <use x="61.279297" xlink:href="#DejaVuSans-110"/>
     <use x="124.658203" xlink:href="#DejaVuSans-121"/>
     <use x="183.837891" xlink:href="#DejaVuSans-111"/>
     <use x="245.019531" xlink:href="#DejaVuSans-110"/>
    </g>
   </g>
   <g id="text_48">
    <!-- person -->
    <g transform="translate(464.190135 516.02489)scale(0.1 -0.1)">
     <use xlink:href="#DejaVuSans-112"/>
     <use x="63.476562" xlink:href="#DejaVuSans-101"/>
     <use x="125" xlink:href="#DejaVuSans-114"/>
     <use x="166.113281" xlink:href="#DejaVuSans-115"/>
     <use x="218.212891" xlink:href="#DejaVuSans-111"/>
     <use x="279.394531" xlink:href="#DejaVuSans-110"/>
    </g>
   </g>
   <g id="text_49">
    <!-- someon -->
    <g transform="translate(530.231648 533.44257)scale(0.1 -0.1)">
     <use xlink:href="#DejaVuSans-115"/>
     <use x="52.099609" xlink:href="#DejaVuSans-111"/>
     <use x="113.28125" xlink:href="#DejaVuSans-109"/>
     <use x="210.693359" xlink:href="#DejaVuSans-101"/>
     <use x="272.216797" xlink:href="#DejaVuSans-111"/>
     <use x="333.398438" xlink:href="#DejaVuSans-110"/>
    </g>
   </g>
   <g id="text_50">
    <!-- lie -->
    <g transform="translate(752.100746 592.022694)scale(0.1 -0.1)">
     <use xlink:href="#DejaVuSans-108"/>
     <use x="27.783203" xlink:href="#DejaVuSans-105"/>
     <use x="55.566406" xlink:href="#DejaVuSans-101"/>
    </g>
   </g>
   <g id="text_51">
    <!-- democrat -->
    <g transform="translate(894.689258 542.844673)scale(0.1 -0.1)">
     <use xlink:href="#DejaVuSans-100"/>
     <use x="63.476562" xlink:href="#DejaVuSans-101"/>
     <use x="125" xlink:href="#DejaVuSans-109"/>
     <use x="222.412109" xlink:href="#DejaVuSans-111"/>
     <use x="283.59375" xlink:href="#DejaVuSans-99"/>
     <use x="338.574219" xlink:href="#DejaVuSans-114"/>
     <use x="379.6875" xlink:href="#DejaVuSans-97"/>
     <use x="440.966797" xlink:href="#DejaVuSans-116"/>
    </g>
   </g>
   <g id="text_52">
    <!-- governor -->
    <g transform="translate(232.55834 362.217885)scale(0.1 -0.1)">
     <use xlink:href="#DejaVuSans-103"/>
     <use x="63.476562" xlink:href="#DejaVuSans-111"/>
     <use x="124.658203" xlink:href="#DejaVuSans-118"/>
     <use x="183.837891" xlink:href="#DejaVuSans-101"/>
     <use x="245.361328" xlink:href="#DejaVuSans-114"/>
     <use x="284.724609" xlink:href="#DejaVuSans-110"/>
     <use x="348.103516" xlink:href="#DejaVuSans-111"/>
     <use x="409.285156" xlink:href="#DejaVuSans-114"/>
    </g>
   </g>
   <g id="text_53">
    <!-- job -->
    <g transform="translate(547.968859 729.00138)scale(0.1 -0.1)">
     <defs>
      <path d="M 9.421875 54.6875 
L 18.40625 54.6875 
L 18.40625 -0.984375 
Q 18.40625 -11.421875 14.421875 -16.109375 
Q 10.453125 -20.796875 1.609375 -20.796875 
L -1.8125 -20.796875 
L -1.8125 -13.1875 
L 0.59375 -13.1875 
Q 5.71875 -13.1875 7.5625 -10.8125 
Q 9.421875 -8.453125 9.421875 -0.984375 
z
M 9.421875 75.984375 
L 18.40625 75.984375 
L 18.40625 64.59375 
L 9.421875 64.59375 
z
" id="DejaVuSans-106"/>
     </defs>
     <use xlink:href="#DejaVuSans-106"/>
     <use x="27.783203" xlink:href="#DejaVuSans-111"/>
     <use x="88.964844" xlink:href="#DejaVuSans-98"/>
    </g>
   </g>
   <g id="text_54">
    <!-- elect -->
    <g transform="translate(853.217053 527.157115)scale(0.1 -0.1)">
     <use xlink:href="#DejaVuSans-101"/>
     <use x="61.523438" xlink:href="#DejaVuSans-108"/>
     <use x="89.306641" xlink:href="#DejaVuSans-101"/>
     <use x="150.830078" xlink:href="#DejaVuSans-99"/>
     <use x="205.810547" xlink:href="#DejaVuSans-116"/>
    </g>
   </g>
   <g id="text_55">
    <!-- govern -->
    <g transform="translate(202.012377 559.74716)scale(0.1 -0.1)">
     <use xlink:href="#DejaVuSans-103"/>
     <use x="63.476562" xlink:href="#DejaVuSans-111"/>
     <use x="124.658203" xlink:href="#DejaVuSans-118"/>
     <use x="183.837891" xlink:href="#DejaVuSans-101"/>
     <use x="245.361328" xlink:href="#DejaVuSans-114"/>
     <use x="284.724609" xlink:href="#DejaVuSans-110"/>
    </g>
   </g>
   <g id="text_56">
    <!-- america -->
    <g transform="translate(710.379596 534.885932)scale(0.1 -0.1)">
     <use xlink:href="#DejaVuSans-97"/>
     <use x="61.279297" xlink:href="#DejaVuSans-109"/>
     <use x="158.691406" xlink:href="#DejaVuSans-101"/>
     <use x="220.214844" xlink:href="#DejaVuSans-114"/>
     <use x="261.328125" xlink:href="#DejaVuSans-105"/>
     <use x="289.111328" xlink:href="#DejaVuSans-99"/>
     <use x="344.091797" xlink:href="#DejaVuSans-97"/>
    </g>
   </g>
   <g id="text_57">
    <!-- offic -->
    <g transform="translate(555.096945 199.953853)scale(0.1 -0.1)">
     <use xlink:href="#DejaVuSans-111"/>
     <use x="61.181641" xlink:href="#DejaVuSans-102"/>
     <use x="96.386719" xlink:href="#DejaVuSans-102"/>
     <use x="131.591797" xlink:href="#DejaVuSans-105"/>
     <use x="159.375" xlink:href="#DejaVuSans-99"/>
    </g>
   </g>
   <g id="text_58">
    <!-- video -->
    <g transform="translate(761.403363 842.890152)scale(0.1 -0.1)">
     <use xlink:href="#DejaVuSans-118"/>
     <use x="59.179688" xlink:href="#DejaVuSans-105"/>
     <use x="86.962891" xlink:href="#DejaVuSans-100"/>
     <use x="150.439453" xlink:href="#DejaVuSans-101"/>
     <use x="211.962891" xlink:href="#DejaVuSans-111"/>
    </g>
   </g>
   <g id="text_59">
    <!-- death -->
    <g transform="translate(282.832757 660.295685)scale(0.1 -0.1)">
     <use xlink:href="#DejaVuSans-100"/>
     <use x="63.476562" xlink:href="#DejaVuSans-101"/>
     <use x="125" xlink:href="#DejaVuSans-97"/>
     <use x="186.279297" xlink:href="#DejaVuSans-116"/>
     <use x="225.488281" xlink:href="#DejaVuSans-104"/>
    </g>
   </g>
   <g id="text_60">
    <!-- republican -->
    <g transform="translate(207.646656 455.694225)scale(0.1 -0.1)">
     <use xlink:href="#DejaVuSans-114"/>
     <use x="38.863281" xlink:href="#DejaVuSans-101"/>
     <use x="100.386719" xlink:href="#DejaVuSans-112"/>
     <use x="163.863281" xlink:href="#DejaVuSans-117"/>
     <use x="227.242188" xlink:href="#DejaVuSans-98"/>
     <use x="290.71875" xlink:href="#DejaVuSans-108"/>
     <use x="318.501953" xlink:href="#DejaVuSans-105"/>
     <use x="346.285156" xlink:href="#DejaVuSans-99"/>
     <use x="401.265625" xlink:href="#DejaVuSans-97"/>
     <use x="462.544922" xlink:href="#DejaVuSans-110"/>
    </g>
   </g>
   <g id="text_61">
    <!-- florida -->
    <g transform="translate(202.755481 684.732298)scale(0.1 -0.1)">
     <use xlink:href="#DejaVuSans-102"/>
     <use x="35.205078" xlink:href="#DejaVuSans-108"/>
     <use x="62.988281" xlink:href="#DejaVuSans-111"/>
     <use x="124.169922" xlink:href="#DejaVuSans-114"/>
     <use x="165.283203" xlink:href="#DejaVuSans-105"/>
     <use x="193.066406" xlink:href="#DejaVuSans-100"/>
     <use x="256.542969" xlink:href="#DejaVuSans-97"/>
    </g>
   </g>
   <g id="text_62">
    <!-- truth -->
    <g transform="translate(401.852 770.105761)scale(0.1 -0.1)">
     <use xlink:href="#DejaVuSans-116"/>
     <use x="39.208984" xlink:href="#DejaVuSans-114"/>
     <use x="80.322266" xlink:href="#DejaVuSans-117"/>
     <use x="143.701172" xlink:href="#DejaVuSans-116"/>
     <use x="182.910156" xlink:href="#DejaVuSans-104"/>
    </g>
   </g>
   <g id="text_63">
    <!-- children -->
    <g transform="translate(37.955337 531.223255)scale(0.1 -0.1)">
     <use xlink:href="#DejaVuSans-99"/>
     <use x="54.980469" xlink:href="#DejaVuSans-104"/>
     <use x="118.359375" xlink:href="#DejaVuSans-105"/>
     <use x="146.142578" xlink:href="#DejaVuSans-108"/>
     <use x="173.925781" xlink:href="#DejaVuSans-100"/>
     <use x="237.402344" xlink:href="#DejaVuSans-114"/>
     <use x="276.265625" xlink:href="#DejaVuSans-101"/>
     <use x="337.789062" xlink:href="#DejaVuSans-110"/>
    </g>
   </g>
   <g id="text_64">
    <!-- school -->
    <g transform="translate(41.997939 515.230965)scale(0.1 -0.1)">
     <use xlink:href="#DejaVuSans-115"/>
     <use x="52.099609" xlink:href="#DejaVuSans-99"/>
     <use x="107.080078" xlink:href="#DejaVuSans-104"/>
     <use x="170.458984" xlink:href="#DejaVuSans-111"/>
     <use x="231.640625" xlink:href="#DejaVuSans-111"/>
     <use x="292.822266" xlink:href="#DejaVuSans-108"/>
    </g>
   </g>
   <g id="text_65">
    <!-- anyth -->
    <g transform="translate(264.444948 509.198607)scale(0.1 -0.1)">
     <use xlink:href="#DejaVuSans-97"/>
     <use x="61.279297" xlink:href="#DejaVuSans-110"/>
     <use x="124.658203" xlink:href="#DejaVuSans-121"/>
     <use x="183.837891" xlink:href="#DejaVuSans-116"/>
     <use x="223.046875" xlink:href="#DejaVuSans-104"/>
    </g>
   </g>
   <g id="text_66">
    <!-- media -->
    <g transform="translate(456.920172 462.971733)scale(0.1 -0.1)">
     <use xlink:href="#DejaVuSans-109"/>
     <use x="97.412109" xlink:href="#DejaVuSans-101"/>
     <use x="158.935547" xlink:href="#DejaVuSans-100"/>
     <use x="222.412109" xlink:href="#DejaVuSans-105"/>
     <use x="250.195312" xlink:href="#DejaVuSans-97"/>
    </g>
   </g>
   <g id="text_67">
    <!-- famili -->
    <g transform="translate(664.63571 668.510594)scale(0.1 -0.1)">
     <use xlink:href="#DejaVuSans-102"/>
     <use x="35.205078" xlink:href="#DejaVuSans-97"/>
     <use x="96.484375" xlink:href="#DejaVuSans-109"/>
     <use x="193.896484" xlink:href="#DejaVuSans-105"/>
     <use x="221.679688" xlink:href="#DejaVuSans-108"/>
     <use x="249.462891" xlink:href="#DejaVuSans-105"/>
    </g>
   </g>
   <g id="text_68">
    <!-- law -->
    <g transform="translate(840.681084 335.636696)scale(0.1 -0.1)">
     <use xlink:href="#DejaVuSans-108"/>
     <use x="27.783203" xlink:href="#DejaVuSans-97"/>
     <use x="89.0625" xlink:href="#DejaVuSans-119"/>
    </g>
   </g>
   <g id="text_69">
    <!-- word -->
    <g transform="translate(603.18977 551.248672)scale(0.1 -0.1)">
     <use xlink:href="#DejaVuSans-119"/>
     <use x="81.787109" xlink:href="#DejaVuSans-111"/>
     <use x="142.96875" xlink:href="#DejaVuSans-114"/>
     <use x="182.332031" xlink:href="#DejaVuSans-100"/>
    </g>
   </g>
   <g id="text_70">
    <!-- stori -->
    <g transform="translate(863.23511 803.657588)scale(0.1 -0.1)">
     <use xlink:href="#DejaVuSans-115"/>
     <use x="52.099609" xlink:href="#DejaVuSans-116"/>
     <use x="91.308594" xlink:href="#DejaVuSans-111"/>
     <use x="152.490234" xlink:href="#DejaVuSans-114"/>
     <use x="193.603516" xlink:href="#DejaVuSans-105"/>
    </g>
   </g>
   <g id="text_71">
    <!-- border -->
    <g transform="translate(757.232066 307.043517)scale(0.1 -0.1)">
     <use xlink:href="#DejaVuSans-98"/>
     <use x="63.476562" xlink:href="#DejaVuSans-111"/>
     <use x="124.658203" xlink:href="#DejaVuSans-114"/>
     <use x="164.021484" xlink:href="#DejaVuSans-100"/>
     <use x="227.498047" xlink:href="#DejaVuSans-101"/>
     <use x="289.021484" xlink:href="#DejaVuSans-114"/>
    </g>
   </g>
   <g id="text_72">
    <!-- kid -->
    <g transform="translate(79.028549 518.171396)scale(0.1 -0.1)">
     <use xlink:href="#DejaVuSans-107"/>
     <use x="57.910156" xlink:href="#DejaVuSans-105"/>
     <use x="85.693359" xlink:href="#DejaVuSans-100"/>
    </g>
   </g>
   <g id="text_73">
    <!-- lot -->
    <g transform="translate(564.388806 499.719881)scale(0.1 -0.1)">
     <use xlink:href="#DejaVuSans-108"/>
     <use x="27.783203" xlink:href="#DejaVuSans-111"/>
     <use x="88.964844" xlink:href="#DejaVuSans-116"/>
    </g>
   </g>
   <g id="text_74">
    <!-- fact -->
    <g transform="translate(295.109978 515.282267)scale(0.1 -0.1)">
     <use xlink:href="#DejaVuSans-102"/>
     <use x="35.205078" xlink:href="#DejaVuSans-97"/>
     <use x="96.484375" xlink:href="#DejaVuSans-99"/>
     <use x="151.464844" xlink:href="#DejaVuSans-116"/>
    </g>
   </g>
   <g id="text_75">
    <!-- problem -->
    <g transform="translate(389.518557 569.255259)scale(0.1 -0.1)">
     <use xlink:href="#DejaVuSans-112"/>
     <use x="63.476562" xlink:href="#DejaVuSans-114"/>
     <use x="102.339844" xlink:href="#DejaVuSans-111"/>
     <use x="163.521484" xlink:href="#DejaVuSans-98"/>
     <use x="226.998047" xlink:href="#DejaVuSans-108"/>
     <use x="254.78125" xlink:href="#DejaVuSans-101"/>
     <use x="316.304688" xlink:href="#DejaVuSans-109"/>
    </g>
   </g>
   <g id="text_76">
    <!-- report -->
    <g transform="translate(769.174779 783.884612)scale(0.1 -0.1)">
     <use xlink:href="#DejaVuSans-114"/>
     <use x="38.863281" xlink:href="#DejaVuSans-101"/>
     <use x="100.386719" xlink:href="#DejaVuSans-112"/>
     <use x="163.863281" xlink:href="#DejaVuSans-111"/>
     <use x="225.044922" xlink:href="#DejaVuSans-114"/>
     <use x="266.158203" xlink:href="#DejaVuSans-116"/>
    </g>
   </g>
   <g id="text_77">
    <!-- chri -->
    <g transform="translate(987.713885 685.41062)scale(0.1 -0.1)">
     <use xlink:href="#DejaVuSans-99"/>
     <use x="54.980469" xlink:href="#DejaVuSans-104"/>
     <use x="118.359375" xlink:href="#DejaVuSans-114"/>
     <use x="159.472656" xlink:href="#DejaVuSans-105"/>
    </g>
   </g>
   <g id="text_78">
    <!-- other -->
    <g transform="translate(617.338593 450.322385)scale(0.1 -0.1)">
     <use xlink:href="#DejaVuSans-111"/>
     <use x="61.181641" xlink:href="#DejaVuSans-116"/>
     <use x="100.390625" xlink:href="#DejaVuSans-104"/>
     <use x="163.769531" xlink:href="#DejaVuSans-101"/>
     <use x="225.292969" xlink:href="#DejaVuSans-114"/>
    </g>
   </g>
   <g id="text_79">
    <!-- parti -->
    <g transform="translate(242.670433 340.786779)scale(0.1 -0.1)">
     <use xlink:href="#DejaVuSans-112"/>
     <use x="63.476562" xlink:href="#DejaVuSans-97"/>
     <use x="124.755859" xlink:href="#DejaVuSans-114"/>
     <use x="165.869141" xlink:href="#DejaVuSans-116"/>
     <use x="205.078125" xlink:href="#DejaVuSans-105"/>
    </g>
   </g>
   <g id="text_80">
    <!-- case -->
    <g transform="translate(798.046093 321.48982)scale(0.1 -0.1)">
     <use xlink:href="#DejaVuSans-99"/>
     <use x="54.980469" xlink:href="#DejaVuSans-97"/>
     <use x="116.259766" xlink:href="#DejaVuSans-115"/>
     <use x="168.359375" xlink:href="#DejaVuSans-101"/>
    </g>
   </g>
   <g id="text_81">
    <!-- forc -->
    <g transform="translate(672.783885 48.236352)scale(0.1 -0.1)">
     <use xlink:href="#DejaVuSans-102"/>
     <use x="35.205078" xlink:href="#DejaVuSans-111"/>
     <use x="96.386719" xlink:href="#DejaVuSans-114"/>
     <use x="135.25" xlink:href="#DejaVuSans-99"/>
    </g>
   </g>
   <g id="text_82">
    <!-- brother -->
    <g transform="translate(988.303235 704.651695)scale(0.1 -0.1)">
     <use xlink:href="#DejaVuSans-98"/>
     <use x="63.476562" xlink:href="#DejaVuSans-114"/>
     <use x="102.339844" xlink:href="#DejaVuSans-111"/>
     <use x="163.521484" xlink:href="#DejaVuSans-116"/>
     <use x="202.730469" xlink:href="#DejaVuSans-104"/>
     <use x="266.109375" xlink:href="#DejaVuSans-101"/>
     <use x="327.632812" xlink:href="#DejaVuSans-114"/>
    </g>
   </g>
   <g id="text_83">
    <!-- women -->
    <g transform="translate(903.747088 522.701777)scale(0.1 -0.1)">
     <use xlink:href="#DejaVuSans-119"/>
     <use x="81.787109" xlink:href="#DejaVuSans-111"/>
     <use x="142.96875" xlink:href="#DejaVuSans-109"/>
     <use x="240.380859" xlink:href="#DejaVuSans-101"/>
     <use x="301.904297" xlink:href="#DejaVuSans-110"/>
    </g>
   </g>
   <g id="text_84">
    <!-- home -->
    <g transform="translate(773.304383 437.900177)scale(0.1 -0.1)">
     <use xlink:href="#DejaVuSans-104"/>
     <use x="63.378906" xlink:href="#DejaVuSans-111"/>
     <use x="124.560547" xlink:href="#DejaVuSans-109"/>
     <use x="221.972656" xlink:href="#DejaVuSans-101"/>
    </g>
   </g>
   <g id="text_85">
    <!-- viru -->
    <g transform="translate(278.346345 596.995328)scale(0.1 -0.1)">
     <use xlink:href="#DejaVuSans-118"/>
     <use x="59.179688" xlink:href="#DejaVuSans-105"/>
     <use x="86.962891" xlink:href="#DejaVuSans-114"/>
     <use x="128.076172" xlink:href="#DejaVuSans-117"/>
    </g>
   </g>
   <g id="text_86">
    <!-- love -->
    <g transform="translate(367.743171 496.511525)scale(0.1 -0.1)">
     <use xlink:href="#DejaVuSans-108"/>
     <use x="27.783203" xlink:href="#DejaVuSans-111"/>
     <use x="88.964844" xlink:href="#DejaVuSans-118"/>
     <use x="148.144531" xlink:href="#DejaVuSans-101"/>
    </g>
   </g>
   <g id="text_87">
    <!-- point -->
    <g transform="translate(612.215811 383.542331)scale(0.1 -0.1)">
     <use xlink:href="#DejaVuSans-112"/>
     <use x="63.476562" xlink:href="#DejaVuSans-111"/>
     <use x="124.658203" xlink:href="#DejaVuSans-105"/>
     <use x="152.441406" xlink:href="#DejaVuSans-110"/>
     <use x="215.820312" xlink:href="#DejaVuSans-116"/>
    </g>
   </g>
   <g id="text_88">
    <!-- live -->
    <g transform="translate(400.688768 635.923456)scale(0.1 -0.1)">
     <use xlink:href="#DejaVuSans-108"/>
     <use x="27.783203" xlink:href="#DejaVuSans-105"/>
     <use x="55.566406" xlink:href="#DejaVuSans-118"/>
     <use x="114.746094" xlink:href="#DejaVuSans-101"/>
    </g>
   </g>
   <g id="text_89">
    <!-- don -->
    <g transform="translate(725.265717 453.581832)scale(0.1 -0.1)">
     <use xlink:href="#DejaVuSans-100"/>
     <use x="63.476562" xlink:href="#DejaVuSans-111"/>
     <use x="124.658203" xlink:href="#DejaVuSans-110"/>
    </g>
   </g>
   <g id="text_90">
    <!-- interview -->
    <g transform="translate(649.657088 818.62234)scale(0.1 -0.1)">
     <use xlink:href="#DejaVuSans-105"/>
     <use x="27.783203" xlink:href="#DejaVuSans-110"/>
     <use x="91.162109" xlink:href="#DejaVuSans-116"/>
     <use x="130.371094" xlink:href="#DejaVuSans-101"/>
     <use x="191.894531" xlink:href="#DejaVuSans-114"/>
     <use x="233.007812" xlink:href="#DejaVuSans-118"/>
     <use x="292.1875" xlink:href="#DejaVuSans-105"/>
     <use x="319.970703" xlink:href="#DejaVuSans-101"/>
     <use x="381.494141" xlink:href="#DejaVuSans-119"/>
    </g>
   </g>
   <g id="text_91">
    <!-- name -->
    <g transform="translate(711.077786 787.862264)scale(0.1 -0.1)">
     <use xlink:href="#DejaVuSans-110"/>
     <use x="63.378906" xlink:href="#DejaVuSans-97"/>
     <use x="124.658203" xlink:href="#DejaVuSans-109"/>
     <use x="222.070312" xlink:href="#DejaVuSans-101"/>
    </g>
   </g>
   <g id="text_92">
    <!-- power -->
    <g transform="translate(366.08819 358.608816)scale(0.1 -0.1)">
     <use xlink:href="#DejaVuSans-112"/>
     <use x="63.476562" xlink:href="#DejaVuSans-111"/>
     <use x="124.658203" xlink:href="#DejaVuSans-119"/>
     <use x="206.445312" xlink:href="#DejaVuSans-101"/>
     <use x="267.96875" xlink:href="#DejaVuSans-114"/>
    </g>
   </g>
   <g id="text_93">
    <!-- work -->
    <g transform="translate(344.039685 582.732658)scale(0.1 -0.1)">
     <use xlink:href="#DejaVuSans-119"/>
     <use x="81.787109" xlink:href="#DejaVuSans-111"/>
     <use x="142.96875" xlink:href="#DejaVuSans-114"/>
     <use x="184.082031" xlink:href="#DejaVuSans-107"/>
    </g>
   </g>
   <g id="text_94">
    <!-- everyth -->
    <g transform="translate(378.924861 463.295366)scale(0.1 -0.1)">
     <use xlink:href="#DejaVuSans-101"/>
     <use x="61.523438" xlink:href="#DejaVuSans-118"/>
     <use x="120.703125" xlink:href="#DejaVuSans-101"/>
     <use x="182.226562" xlink:href="#DejaVuSans-114"/>
     <use x="223.339844" xlink:href="#DejaVuSans-121"/>
     <use x="282.519531" xlink:href="#DejaVuSans-116"/>
     <use x="321.728516" xlink:href="#DejaVuSans-104"/>
    </g>
   </g>
   <g id="text_95">
    <!-- care -->
    <g transform="translate(447.126316 797.477176)scale(0.1 -0.1)">
     <use xlink:href="#DejaVuSans-99"/>
     <use x="54.980469" xlink:href="#DejaVuSans-97"/>
     <use x="116.259766" xlink:href="#DejaVuSans-114"/>
     <use x="155.123047" xlink:href="#DejaVuSans-101"/>
    </g>
   </g>
   <g id="text_96">
    <!-- wow -->
    <g transform="translate(714.340068 862.86024)scale(0.1 -0.1)">
     <use xlink:href="#DejaVuSans-119"/>
     <use x="81.787109" xlink:href="#DejaVuSans-111"/>
     <use x="142.96875" xlink:href="#DejaVuSans-119"/>
    </g>
   </g>
   <g id="text_97">
    <!-- earth -->
    <g transform="translate(85.425468 686.701699)scale(0.1 -0.1)">
     <use xlink:href="#DejaVuSans-101"/>
     <use x="61.523438" xlink:href="#DejaVuSans-97"/>
     <use x="122.802734" xlink:href="#DejaVuSans-114"/>
     <use x="163.916016" xlink:href="#DejaVuSans-116"/>
     <use x="203.125" xlink:href="#DejaVuSans-104"/>
    </g>
   </g>
   <g id="text_98">
    <!-- american -->
    <g transform="translate(204.857856 512.536386)scale(0.1 -0.1)">
     <use xlink:href="#DejaVuSans-97"/>
     <use x="61.279297" xlink:href="#DejaVuSans-109"/>
     <use x="158.691406" xlink:href="#DejaVuSans-101"/>
     <use x="220.214844" xlink:href="#DejaVuSans-114"/>
     <use x="261.328125" xlink:href="#DejaVuSans-105"/>
     <use x="289.111328" xlink:href="#DejaVuSans-99"/>
     <use x="344.091797" xlink:href="#DejaVuSans-97"/>
     <use x="405.371094" xlink:href="#DejaVuSans-110"/>
    </g>
   </g>
   <g id="text_99">
    <!-- question -->
    <g transform="translate(612.43755 723.085257)scale(0.1 -0.1)">
     <defs>
      <path d="M 14.796875 27.296875 
Q 14.796875 17.390625 18.875 11.75 
Q 22.953125 6.109375 30.078125 6.109375 
Q 37.203125 6.109375 41.296875 11.75 
Q 45.40625 17.390625 45.40625 27.296875 
Q 45.40625 37.203125 41.296875 42.84375 
Q 37.203125 48.484375 30.078125 48.484375 
Q 22.953125 48.484375 18.875 42.84375 
Q 14.796875 37.203125 14.796875 27.296875 
z
M 45.40625 8.203125 
Q 42.578125 3.328125 38.25 0.953125 
Q 33.9375 -1.421875 27.875 -1.421875 
Q 17.96875 -1.421875 11.734375 6.484375 
Q 5.515625 14.40625 5.515625 27.296875 
Q 5.515625 40.1875 11.734375 48.09375 
Q 17.96875 56 27.875 56 
Q 33.9375 56 38.25 53.625 
Q 42.578125 51.265625 45.40625 46.390625 
L 45.40625 54.6875 
L 54.390625 54.6875 
L 54.390625 -20.796875 
L 45.40625 -20.796875 
z
" id="DejaVuSans-113"/>
     </defs>
     <use xlink:href="#DejaVuSans-113"/>
     <use x="63.476562" xlink:href="#DejaVuSans-117"/>
     <use x="126.855469" xlink:href="#DejaVuSans-101"/>
     <use x="188.378906" xlink:href="#DejaVuSans-115"/>
     <use x="240.478516" xlink:href="#DejaVuSans-116"/>
     <use x="279.6875" xlink:href="#DejaVuSans-105"/>
     <use x="307.470703" xlink:href="#DejaVuSans-111"/>
     <use x="368.652344" xlink:href="#DejaVuSans-110"/>
    </g>
   </g>
   <g id="text_100">
    <!-- lord -->
    <g transform="translate(189.689448 601.862538)scale(0.1 -0.1)">
     <use xlink:href="#DejaVuSans-108"/>
     <use x="27.783203" xlink:href="#DejaVuSans-111"/>
     <use x="88.964844" xlink:href="#DejaVuSans-114"/>
     <use x="128.328125" xlink:href="#DejaVuSans-100"/>
    </g>
   </g>
   <g id="text_101">
    <!-- the -->
    <g transform="translate(821.746155 938.155199)scale(0.1 -0.1)">
     <use xlink:href="#DejaVuSans-116"/>
     <use x="39.208984" xlink:href="#DejaVuSans-104"/>
     <use x="102.587891" xlink:href="#DejaVuSans-101"/>
    </g>
   </g>
   <g id="text_102">
    <!-- rate -->
    <g transform="translate(823.444667 760.908426)scale(0.1 -0.1)">
     <use xlink:href="#DejaVuSans-114"/>
     <use x="41.113281" xlink:href="#DejaVuSans-97"/>
     <use x="102.392578" xlink:href="#DejaVuSans-116"/>
     <use x="141.601562" xlink:href="#DejaVuSans-101"/>
    </g>
   </g>
   <g id="text_103">
    <!-- pleas -->
    <g transform="translate(768.208371 673.109388)scale(0.1 -0.1)">
     <use xlink:href="#DejaVuSans-112"/>
     <use x="63.476562" xlink:href="#DejaVuSans-108"/>
     <use x="91.259766" xlink:href="#DejaVuSans-101"/>
     <use x="152.783203" xlink:href="#DejaVuSans-97"/>
     <use x="214.0625" xlink:href="#DejaVuSans-115"/>
    </g>
   </g>
   <g id="text_104">
    <!-- place -->
    <g transform="translate(707.58662 412.930088)scale(0.1 -0.1)">
     <use xlink:href="#DejaVuSans-112"/>
     <use x="63.476562" xlink:href="#DejaVuSans-108"/>
     <use x="91.259766" xlink:href="#DejaVuSans-97"/>
     <use x="152.539062" xlink:href="#DejaVuSans-99"/>
     <use x="207.519531" xlink:href="#DejaVuSans-101"/>
    </g>
   </g>
   <g id="text_105">
    <!-- joe -->
    <g transform="translate(939.850102 557.066444)scale(0.1 -0.1)">
     <use xlink:href="#DejaVuSans-106"/>
     <use x="27.783203" xlink:href="#DejaVuSans-111"/>
     <use x="88.964844" xlink:href="#DejaVuSans-101"/>
    </g>
   </g>
   <g id="text_106">
    <!-- look -->
    <g transform="translate(683.254307 272.231055)scale(0.1 -0.1)">
     <use xlink:href="#DejaVuSans-108"/>
     <use x="27.783203" xlink:href="#DejaVuSans-111"/>
     <use x="88.964844" xlink:href="#DejaVuSans-111"/>
     <use x="150.146484" xlink:href="#DejaVuSans-107"/>
    </g>
   </g>
   <g id="text_107">
    <!-- china -->
    <g transform="translate(648.517451 420.777162)scale(0.1 -0.1)">
     <use xlink:href="#DejaVuSans-99"/>
     <use x="54.980469" xlink:href="#DejaVuSans-104"/>
     <use x="118.359375" xlink:href="#DejaVuSans-105"/>
     <use x="146.142578" xlink:href="#DejaVuSans-110"/>
     <use x="209.521484" xlink:href="#DejaVuSans-97"/>
    </g>
   </g>
   <g id="text_108">
    <!-- just -->
    <g transform="translate(311.898581 565.276044)scale(0.1 -0.1)">
     <use xlink:href="#DejaVuSans-106"/>
     <use x="27.783203" xlink:href="#DejaVuSans-117"/>
     <use x="91.162109" xlink:href="#DejaVuSans-115"/>
     <use x="143.261719" xlink:href="#DejaVuSans-116"/>
    </g>
   </g>
   <g id="text_109">
    <!-- choic -->
    <g transform="translate(179.051146 582.12795)scale(0.1 -0.1)">
     <use xlink:href="#DejaVuSans-99"/>
     <use x="54.980469" xlink:href="#DejaVuSans-104"/>
     <use x="118.359375" xlink:href="#DejaVuSans-111"/>
     <use x="179.541016" xlink:href="#DejaVuSans-105"/>
     <use x="207.324219" xlink:href="#DejaVuSans-99"/>
    </g>
   </g>
   <g id="text_110">
    <!-- part -->
    <g transform="translate(555.045355 611.276368)scale(0.1 -0.1)">
     <use xlink:href="#DejaVuSans-112"/>
     <use x="63.476562" xlink:href="#DejaVuSans-97"/>
     <use x="124.755859" xlink:href="#DejaVuSans-114"/>
     <use x="165.869141" xlink:href="#DejaVuSans-116"/>
    </g>
   </g>
   <g id="text_111">
    <!-- politician -->
    <g transform="translate(522.472782 821.732601)scale(0.1 -0.1)">
     <use xlink:href="#DejaVuSans-112"/>
     <use x="63.476562" xlink:href="#DejaVuSans-111"/>
     <use x="124.658203" xlink:href="#DejaVuSans-108"/>
     <use x="152.441406" xlink:href="#DejaVuSans-105"/>
     <use x="180.224609" xlink:href="#DejaVuSans-116"/>
     <use x="219.433594" xlink:href="#DejaVuSans-105"/>
     <use x="247.216797" xlink:href="#DejaVuSans-99"/>
     <use x="302.197266" xlink:href="#DejaVuSans-105"/>
     <use x="329.980469" xlink:href="#DejaVuSans-97"/>
     <use x="391.259766" xlink:href="#DejaVuSans-110"/>
    </g>
   </g>
   <g id="text_112">
    <!-- woman -->
    <g transform="translate(702.205515 681.873848)scale(0.1 -0.1)">
     <use xlink:href="#DejaVuSans-119"/>
     <use x="81.787109" xlink:href="#DejaVuSans-111"/>
     <use x="142.96875" xlink:href="#DejaVuSans-109"/>
     <use x="240.380859" xlink:href="#DejaVuSans-97"/>
     <use x="301.660156" xlink:href="#DejaVuSans-110"/>
    </g>
   </g>
   <g id="text_113">
    <!-- pillow -->
    <g transform="translate(365.250289 205.394584)scale(0.1 -0.1)">
     <use xlink:href="#DejaVuSans-112"/>
     <use x="63.476562" xlink:href="#DejaVuSans-105"/>
     <use x="91.259766" xlink:href="#DejaVuSans-108"/>
     <use x="119.042969" xlink:href="#DejaVuSans-108"/>
     <use x="146.826172" xlink:href="#DejaVuSans-111"/>
     <use x="208.007812" xlink:href="#DejaVuSans-119"/>
    </g>
   </g>
  </g>
 </g>
 <defs>
  <clipPath id="pf89bd3ed84">
   <rect height="978.48" width="1004.4" x="28.942188" y="7.2"/>
  </clipPath>
 </defs>
</svg>
