<?xml version="1.0" encoding="utf-8" standalone="no"?>
<!DOCTYPE svg PUBLIC "-//W3C//DTD SVG 1.1//EN"
  "http://www.w3.org/Graphics/SVG/1.1/DTD/svg11.dtd">
<!-- Created with matplotlib (https://matplotlib.org/) -->
<svg height="1009.558125pt" version="1.1" viewBox="0 0 1040.542187 1009.558125" width="1040.542187pt" xmlns="http://www.w3.org/2000/svg" xmlns:xlink="http://www.w3.org/1999/xlink">
 <metadata>
  <rdf:RDF xmlns:cc="http://creativecommons.org/ns#" xmlns:dc="http://purl.org/dc/elements/1.1/" xmlns:rdf="http://www.w3.org/1999/02/22-rdf-syntax-ns#">
   <cc:Work>
    <dc:type rdf:resource="http://purl.org/dc/dcmitype/StillImage"/>
    <dc:date>2021-08-11T14:45:26.327939</dc:date>
    <dc:format>image/svg+xml</dc:format>
    <dc:creator>
     <cc:Agent>
      <dc:title>Matplotlib v3.3.4, https://matplotlib.org/</dc:title>
     </cc:Agent>
    </dc:creator>
   </cc:Work>
  </rdf:RDF>
 </metadata>
 <defs>
  <style type="text/css">*{stroke-linecap:butt;stroke-linejoin:round;}</style>
 </defs>
 <g id="figure_1">
  <g id="patch_1">
   <path d="M 0 1009.558125 
L 1040.542187 1009.558125 
L 1040.542187 0 
L 0 0 
z
" style="fill:none;"/>
  </g>
  <g id="axes_1">
   <g id="patch_2">
    <path d="M 28.942188 985.68 
L 1033.342188 985.68 
L 1033.342188 7.2 
L 28.942188 7.2 
z
" style="fill:#ffffff;"/>
   </g>
   <g id="PathCollection_1">
    <defs>
     <path d="M 0 3 
C 0.795609 3 1.55874 2.683901 2.12132 2.12132 
C 2.683901 1.55874 3 0.795609 3 0 
C 3 -0.795609 2.683901 -1.55874 2.12132 -2.12132 
C 1.55874 -2.683901 0.795609 -3 0 -3 
C -0.795609 -3 -1.55874 -2.683901 -2.12132 -2.12132 
C -2.683901 -1.55874 -3 -0.795609 -3 0 
C -3 0.795609 -2.683901 1.55874 -2.12132 2.12132 
C -1.55874 2.683901 -0.795609 3 0 3 
z
" id="m7e03ca6c7e" style="stroke:#00bfbf;"/>
    </defs>
    <g clip-path="url(#p1485b30b16)">
     <use style="fill:#00bfbf;stroke:#00bfbf;" x="514.291234" xlink:href="#m7e03ca6c7e" y="425.356572"/>
     <use style="fill:#00bfbf;stroke:#00bfbf;" x="543.569873" xlink:href="#m7e03ca6c7e" y="510.086168"/>
     <use style="fill:#00bfbf;stroke:#00bfbf;" x="517.382553" xlink:href="#m7e03ca6c7e" y="615.695157"/>
     <use style="fill:#00bfbf;stroke:#00bfbf;" x="371.125449" xlink:href="#m7e03ca6c7e" y="558.710602"/>
     <use style="fill:#00bfbf;stroke:#00bfbf;" x="598.46311" xlink:href="#m7e03ca6c7e" y="621.1398"/>
     <use style="fill:#00bfbf;stroke:#00bfbf;" x="672.182319" xlink:href="#m7e03ca6c7e" y="493.389421"/>
     <use style="fill:#00bfbf;stroke:#00bfbf;" x="905.889546" xlink:href="#m7e03ca6c7e" y="333.606796"/>
     <use style="fill:#00bfbf;stroke:#00bfbf;" x="987.687642" xlink:href="#m7e03ca6c7e" y="431.960669"/>
     <use style="fill:#00bfbf;stroke:#00bfbf;" x="299.169427" xlink:href="#m7e03ca6c7e" y="627.70652"/>
     <use style="fill:#00bfbf;stroke:#00bfbf;" x="917.446454" xlink:href="#m7e03ca6c7e" y="735.737798"/>
     <use style="fill:#00bfbf;stroke:#00bfbf;" x="981.035623" xlink:href="#m7e03ca6c7e" y="562.337548"/>
     <use style="fill:#00bfbf;stroke:#00bfbf;" x="376.951802" xlink:href="#m7e03ca6c7e" y="673.624491"/>
     <use style="fill:#00bfbf;stroke:#00bfbf;" x="905.495906" xlink:href="#m7e03ca6c7e" y="233.137495"/>
     <use style="fill:#00bfbf;stroke:#00bfbf;" x="186.514495" xlink:href="#m7e03ca6c7e" y="527.897807"/>
    </g>
   </g>
   <g id="PathCollection_2">
    <defs>
     <path d="M 0 3 
C 0.795609 3 1.55874 2.683901 2.12132 2.12132 
C 2.683901 1.55874 3 0.795609 3 0 
C 3 -0.795609 2.683901 -1.55874 2.12132 -2.12132 
C 1.55874 -2.683901 0.795609 -3 0 -3 
C -0.795609 -3 -1.55874 -2.683901 -2.12132 -2.12132 
C -2.683901 -1.55874 -3 -0.795609 -3 0 
C -3 0.795609 -2.683901 1.55874 -2.12132 2.12132 
C -1.55874 2.683901 -0.795609 3 0 3 
z
" id="md68c47bed8" style="stroke:#bfbf00;"/>
    </defs>
    <g clip-path="url(#p1485b30b16)">
     <use style="fill:#bfbf00;stroke:#bfbf00;" x="626.636417" xlink:href="#md68c47bed8" y="255.411481"/>
     <use style="fill:#bfbf00;stroke:#bfbf00;" x="416.379659" xlink:href="#md68c47bed8" y="388.325415"/>
     <use style="fill:#bfbf00;stroke:#bfbf00;" x="311.729084" xlink:href="#md68c47bed8" y="198.588563"/>
     <use style="fill:#bfbf00;stroke:#bfbf00;" x="408.239271" xlink:href="#md68c47bed8" y="390.491224"/>
     <use style="fill:#bfbf00;stroke:#bfbf00;" x="505.609935" xlink:href="#md68c47bed8" y="506.948348"/>
     <use style="fill:#bfbf00;stroke:#bfbf00;" x="635.366614" xlink:href="#md68c47bed8" y="520.196697"/>
     <use style="fill:#bfbf00;stroke:#bfbf00;" x="570.816899" xlink:href="#md68c47bed8" y="745.712776"/>
     <use style="fill:#bfbf00;stroke:#bfbf00;" x="693.607659" xlink:href="#md68c47bed8" y="571.743995"/>
     <use style="fill:#bfbf00;stroke:#bfbf00;" x="524.523464" xlink:href="#md68c47bed8" y="482.607394"/>
     <use style="fill:#bfbf00;stroke:#bfbf00;" x="588.854742" xlink:href="#md68c47bed8" y="761.321198"/>
     <use style="fill:#bfbf00;stroke:#bfbf00;" x="559.062035" xlink:href="#md68c47bed8" y="504.986081"/>
     <use style="fill:#bfbf00;stroke:#bfbf00;" x="563.521174" xlink:href="#md68c47bed8" y="520.441273"/>
     <use style="fill:#bfbf00;stroke:#bfbf00;" x="551.517334" xlink:href="#md68c47bed8" y="563.209191"/>
     <use style="fill:#bfbf00;stroke:#bfbf00;" x="516.34466" xlink:href="#md68c47bed8" y="306.048137"/>
     <use style="fill:#bfbf00;stroke:#bfbf00;" x="649.945462" xlink:href="#md68c47bed8" y="568.960693"/>
     <use style="fill:#bfbf00;stroke:#bfbf00;" x="600.450733" xlink:href="#md68c47bed8" y="799.804021"/>
     <use style="fill:#bfbf00;stroke:#bfbf00;" x="681.539894" xlink:href="#md68c47bed8" y="594.631493"/>
     <use style="fill:#bfbf00;stroke:#bfbf00;" x="525.366188" xlink:href="#md68c47bed8" y="549.899927"/>
     <use style="fill:#bfbf00;stroke:#bfbf00;" x="397.16971" xlink:href="#md68c47bed8" y="796.917033"/>
     <use style="fill:#bfbf00;stroke:#bfbf00;" x="551.981413" xlink:href="#md68c47bed8" y="366.501481"/>
     <use style="fill:#bfbf00;stroke:#bfbf00;" x="564.812707" xlink:href="#md68c47bed8" y="404.0635"/>
     <use style="fill:#bfbf00;stroke:#bfbf00;" x="494.347568" xlink:href="#md68c47bed8" y="427.364206"/>
     <use style="fill:#bfbf00;stroke:#bfbf00;" x="613.216707" xlink:href="#md68c47bed8" y="477.305302"/>
     <use style="fill:#bfbf00;stroke:#bfbf00;" x="410.662858" xlink:href="#md68c47bed8" y="311.757446"/>
     <use style="fill:#bfbf00;stroke:#bfbf00;" x="106.298474" xlink:href="#md68c47bed8" y="630.501033"/>
     <use style="fill:#bfbf00;stroke:#bfbf00;" x="609.680153" xlink:href="#md68c47bed8" y="570.39202"/>
     <use style="fill:#bfbf00;stroke:#bfbf00;" x="587.26885" xlink:href="#md68c47bed8" y="431.382742"/>
     <use style="fill:#bfbf00;stroke:#bfbf00;" x="639.660516" xlink:href="#md68c47bed8" y="409.755396"/>
     <use style="fill:#bfbf00;stroke:#bfbf00;" x="585.999129" xlink:href="#md68c47bed8" y="471.309052"/>
     <use style="fill:#bfbf00;stroke:#bfbf00;" x="588.703321" xlink:href="#md68c47bed8" y="149.154411"/>
     <use style="fill:#bfbf00;stroke:#bfbf00;" x="363.519368" xlink:href="#md68c47bed8" y="772.632876"/>
     <use style="fill:#bfbf00;stroke:#bfbf00;" x="429.364434" xlink:href="#md68c47bed8" y="537.592518"/>
     <use style="fill:#bfbf00;stroke:#bfbf00;" x="575.080505" xlink:href="#md68c47bed8" y="270.464788"/>
     <use style="fill:#bfbf00;stroke:#bfbf00;" x="589.716553" xlink:href="#md68c47bed8" y="620.952486"/>
     <use style="fill:#bfbf00;stroke:#bfbf00;" x="446.625782" xlink:href="#md68c47bed8" y="600.452331"/>
     <use style="fill:#bfbf00;stroke:#bfbf00;" x="416.940566" xlink:href="#md68c47bed8" y="500.899431"/>
     <use style="fill:#bfbf00;stroke:#bfbf00;" x="342.296772" xlink:href="#md68c47bed8" y="386.228521"/>
     <use style="fill:#bfbf00;stroke:#bfbf00;" x="629.107327" xlink:href="#md68c47bed8" y="153.142955"/>
     <use style="fill:#bfbf00;stroke:#bfbf00;" x="424.232898" xlink:href="#md68c47bed8" y="814.782387"/>
     <use style="fill:#bfbf00;stroke:#bfbf00;" x="659.672349" xlink:href="#md68c47bed8" y="763.04727"/>
     <use style="fill:#bfbf00;stroke:#bfbf00;" x="492.110001" xlink:href="#md68c47bed8" y="896.01829"/>
     <use style="fill:#bfbf00;stroke:#bfbf00;" x="540.558052" xlink:href="#md68c47bed8" y="410.837445"/>
     <use style="fill:#bfbf00;stroke:#bfbf00;" x="426.376244" xlink:href="#md68c47bed8" y="355.316793"/>
     <use style="fill:#bfbf00;stroke:#bfbf00;" x="737.109163" xlink:href="#md68c47bed8" y="513.202577"/>
     <use style="fill:#bfbf00;stroke:#bfbf00;" x="771.108702" xlink:href="#md68c47bed8" y="456.162924"/>
     <use style="fill:#bfbf00;stroke:#bfbf00;" x="328.892453" xlink:href="#md68c47bed8" y="333.67773"/>
     <use style="fill:#bfbf00;stroke:#bfbf00;" x="361.06912" xlink:href="#md68c47bed8" y="918.665928"/>
     <use style="fill:#bfbf00;stroke:#bfbf00;" x="513.804372" xlink:href="#md68c47bed8" y="804.993767"/>
     <use style="fill:#bfbf00;stroke:#bfbf00;" x="509.625596" xlink:href="#md68c47bed8" y="491.649893"/>
     <use style="fill:#bfbf00;stroke:#bfbf00;" x="462.682667" xlink:href="#md68c47bed8" y="400.750772"/>
     <use style="fill:#bfbf00;stroke:#bfbf00;" x="275.725139" xlink:href="#md68c47bed8" y="374.996407"/>
     <use style="fill:#bfbf00;stroke:#bfbf00;" x="266.640595" xlink:href="#md68c47bed8" y="199.450178"/>
     <use style="fill:#bfbf00;stroke:#bfbf00;" x="844.262036" xlink:href="#md68c47bed8" y="512.920357"/>
     <use style="fill:#bfbf00;stroke:#bfbf00;" x="663.949346" xlink:href="#md68c47bed8" y="115.752734"/>
     <use style="fill:#bfbf00;stroke:#bfbf00;" x="818.596661" xlink:href="#md68c47bed8" y="806.176998"/>
     <use style="fill:#bfbf00;stroke:#bfbf00;" x="289.481017" xlink:href="#md68c47bed8" y="153.587171"/>
     <use style="fill:#bfbf00;stroke:#bfbf00;" x="402.375593" xlink:href="#md68c47bed8" y="131.747221"/>
     <use style="fill:#bfbf00;stroke:#bfbf00;" x="224.376091" xlink:href="#md68c47bed8" y="808.273819"/>
     <use style="fill:#bfbf00;stroke:#bfbf00;" x="277.501475" xlink:href="#md68c47bed8" y="553.424489"/>
     <use style="fill:#bfbf00;stroke:#bfbf00;" x="256.044506" xlink:href="#md68c47bed8" y="701.210298"/>
     <use style="fill:#bfbf00;stroke:#bfbf00;" x="279.525998" xlink:href="#md68c47bed8" y="456.783961"/>
     <use style="fill:#bfbf00;stroke:#bfbf00;" x="115.099686" xlink:href="#md68c47bed8" y="452.558267"/>
     <use style="fill:#bfbf00;stroke:#bfbf00;" x="702.52018" xlink:href="#md68c47bed8" y="432.129387"/>
     <use style="fill:#bfbf00;stroke:#bfbf00;" x="592.529387" xlink:href="#md68c47bed8" y="938.126332"/>
     <use style="fill:#bfbf00;stroke:#bfbf00;" x="850.095296" xlink:href="#md68c47bed8" y="606.964007"/>
     <use style="fill:#bfbf00;stroke:#bfbf00;" x="430.496972" xlink:href="#md68c47bed8" y="639.292594"/>
     <use style="fill:#bfbf00;stroke:#bfbf00;" x="777.823222" xlink:href="#md68c47bed8" y="619.321439"/>
     <use style="fill:#bfbf00;stroke:#bfbf00;" x="546.083986" xlink:href="#md68c47bed8" y="51.676364"/>
     <use style="fill:#bfbf00;stroke:#bfbf00;" x="211.638413" xlink:href="#md68c47bed8" y="293.945622"/>
     <use style="fill:#bfbf00;stroke:#bfbf00;" x="807.474264" xlink:href="#md68c47bed8" y="699.679111"/>
     <use style="fill:#bfbf00;stroke:#bfbf00;" x="482.867068" xlink:href="#md68c47bed8" y="224.440541"/>
     <use style="fill:#bfbf00;stroke:#bfbf00;" x="774.670462" xlink:href="#md68c47bed8" y="351.987458"/>
     <use style="fill:#bfbf00;stroke:#bfbf00;" x="719.215834" xlink:href="#md68c47bed8" y="941.203636"/>
     <use style="fill:#bfbf00;stroke:#bfbf00;" x="436.969243" xlink:href="#md68c47bed8" y="448.89393"/>
     <use style="fill:#bfbf00;stroke:#bfbf00;" x="705.397" xlink:href="#md68c47bed8" y="840.092055"/>
     <use style="fill:#bfbf00;stroke:#bfbf00;" x="363.735926" xlink:href="#md68c47bed8" y="518.084202"/>
     <use style="fill:#bfbf00;stroke:#bfbf00;" x="805.039952" xlink:href="#md68c47bed8" y="173.714558"/>
     <use style="fill:#bfbf00;stroke:#bfbf00;" x="720.652184" xlink:href="#md68c47bed8" y="254.188096"/>
    </g>
   </g>
   <g id="PathCollection_3">
    <defs>
     <path d="M 0 3 
C 0.795609 3 1.55874 2.683901 2.12132 2.12132 
C 2.683901 1.55874 3 0.795609 3 0 
C 3 -0.795609 2.683901 -1.55874 2.12132 -2.12132 
C 1.55874 -2.683901 0.795609 -3 0 -3 
C -0.795609 -3 -1.55874 -2.683901 -2.12132 -2.12132 
C -2.683901 -1.55874 -3 -0.795609 -3 0 
C -3 0.795609 -2.683901 1.55874 -2.12132 2.12132 
C -1.55874 2.683901 -0.795609 3 0 3 
z
" id="ma1e05483bb" style="stroke:#bf00bf;"/>
    </defs>
    <g clip-path="url(#p1485b30b16)">
     <use style="fill:#bf00bf;stroke:#bf00bf;" x="586.816828" xlink:href="#ma1e05483bb" y="326.108769"/>
     <use style="fill:#bf00bf;stroke:#bf00bf;" x="660.577604" xlink:href="#ma1e05483bb" y="332.982727"/>
     <use style="fill:#bf00bf;stroke:#bf00bf;" x="700.461785" xlink:href="#ma1e05483bb" y="732.15272"/>
     <use style="fill:#bf00bf;stroke:#bf00bf;" x="730.748505" xlink:href="#ma1e05483bb" y="651.512602"/>
     <use style="fill:#bf00bf;stroke:#bf00bf;" x="74.596733" xlink:href="#ma1e05483bb" y="642.161809"/>
     <use style="fill:#bf00bf;stroke:#bf00bf;" x="556.106989" xlink:href="#ma1e05483bb" y="820.688447"/>
     <use style="fill:#bf00bf;stroke:#bf00bf;" x="105.878324" xlink:href="#ma1e05483bb" y="332.921334"/>
     <use style="fill:#bf00bf;stroke:#bf00bf;" x="855.190294" xlink:href="#ma1e05483bb" y="431.821379"/>
    </g>
   </g>
   <g id="matplotlib.axis_1">
    <g id="xtick_1">
     <g id="line2d_1">
      <defs>
       <path d="M 0 0 
L 0 3.5 
" id="m18a77c940a" style="stroke:#000000;stroke-width:0.8;"/>
      </defs>
      <g>
       <use style="stroke:#000000;stroke-width:0.8;" x="121.292261" xlink:href="#m18a77c940a" y="985.68"/>
      </g>
     </g>
     <g id="text_1">
      <!-- −10 -->
      <g transform="translate(110.739917 1000.278437)scale(0.1 -0.1)">
       <defs>
        <path d="M 10.59375 35.5 
L 73.1875 35.5 
L 73.1875 27.203125 
L 10.59375 27.203125 
z
" id="DejaVuSans-8722"/>
        <path d="M 12.40625 8.296875 
L 28.515625 8.296875 
L 28.515625 63.921875 
L 10.984375 60.40625 
L 10.984375 69.390625 
L 28.421875 72.90625 
L 38.28125 72.90625 
L 38.28125 8.296875 
L 54.390625 8.296875 
L 54.390625 0 
L 12.40625 0 
z
" id="DejaVuSans-49"/>
        <path d="M 31.78125 66.40625 
Q 24.171875 66.40625 20.328125 58.90625 
Q 16.5 51.421875 16.5 36.375 
Q 16.5 21.390625 20.328125 13.890625 
Q 24.171875 6.390625 31.78125 6.390625 
Q 39.453125 6.390625 43.28125 13.890625 
Q 47.125 21.390625 47.125 36.375 
Q 47.125 51.421875 43.28125 58.90625 
Q 39.453125 66.40625 31.78125 66.40625 
z
M 31.78125 74.21875 
Q 44.046875 74.21875 50.515625 64.515625 
Q 56.984375 54.828125 56.984375 36.375 
Q 56.984375 17.96875 50.515625 8.265625 
Q 44.046875 -1.421875 31.78125 -1.421875 
Q 19.53125 -1.421875 13.0625 8.265625 
Q 6.59375 17.96875 6.59375 36.375 
Q 6.59375 54.828125 13.0625 64.515625 
Q 19.53125 74.21875 31.78125 74.21875 
z
" id="DejaVuSans-48"/>
       </defs>
       <use xlink:href="#DejaVuSans-8722"/>
       <use x="83.789062" xlink:href="#DejaVuSans-49"/>
       <use x="147.412109" xlink:href="#DejaVuSans-48"/>
      </g>
     </g>
    </g>
    <g id="xtick_2">
     <g id="line2d_2">
      <g>
       <use style="stroke:#000000;stroke-width:0.8;" x="248.36438" xlink:href="#m18a77c940a" y="985.68"/>
      </g>
     </g>
     <g id="text_2">
      <!-- −9 -->
      <g transform="translate(240.993287 1000.278437)scale(0.1 -0.1)">
       <defs>
        <path d="M 10.984375 1.515625 
L 10.984375 10.5 
Q 14.703125 8.734375 18.5 7.8125 
Q 22.3125 6.890625 25.984375 6.890625 
Q 35.75 6.890625 40.890625 13.453125 
Q 46.046875 20.015625 46.78125 33.40625 
Q 43.953125 29.203125 39.59375 26.953125 
Q 35.25 24.703125 29.984375 24.703125 
Q 19.046875 24.703125 12.671875 31.3125 
Q 6.296875 37.9375 6.296875 49.421875 
Q 6.296875 60.640625 12.9375 67.421875 
Q 19.578125 74.21875 30.609375 74.21875 
Q 43.265625 74.21875 49.921875 64.515625 
Q 56.59375 54.828125 56.59375 36.375 
Q 56.59375 19.140625 48.40625 8.859375 
Q 40.234375 -1.421875 26.421875 -1.421875 
Q 22.703125 -1.421875 18.890625 -0.6875 
Q 15.09375 0.046875 10.984375 1.515625 
z
M 30.609375 32.421875 
Q 37.25 32.421875 41.125 36.953125 
Q 45.015625 41.5 45.015625 49.421875 
Q 45.015625 57.28125 41.125 61.84375 
Q 37.25 66.40625 30.609375 66.40625 
Q 23.96875 66.40625 20.09375 61.84375 
Q 16.21875 57.28125 16.21875 49.421875 
Q 16.21875 41.5 20.09375 36.953125 
Q 23.96875 32.421875 30.609375 32.421875 
z
" id="DejaVuSans-57"/>
       </defs>
       <use xlink:href="#DejaVuSans-8722"/>
       <use x="83.789062" xlink:href="#DejaVuSans-57"/>
      </g>
     </g>
    </g>
    <g id="xtick_3">
     <g id="line2d_3">
      <g>
       <use style="stroke:#000000;stroke-width:0.8;" x="375.436499" xlink:href="#m18a77c940a" y="985.68"/>
      </g>
     </g>
     <g id="text_3">
      <!-- −8 -->
      <g transform="translate(368.065406 1000.278437)scale(0.1 -0.1)">
       <defs>
        <path d="M 31.78125 34.625 
Q 24.75 34.625 20.71875 30.859375 
Q 16.703125 27.09375 16.703125 20.515625 
Q 16.703125 13.921875 20.71875 10.15625 
Q 24.75 6.390625 31.78125 6.390625 
Q 38.8125 6.390625 42.859375 10.171875 
Q 46.921875 13.96875 46.921875 20.515625 
Q 46.921875 27.09375 42.890625 30.859375 
Q 38.875 34.625 31.78125 34.625 
z
M 21.921875 38.8125 
Q 15.578125 40.375 12.03125 44.71875 
Q 8.5 49.078125 8.5 55.328125 
Q 8.5 64.0625 14.71875 69.140625 
Q 20.953125 74.21875 31.78125 74.21875 
Q 42.671875 74.21875 48.875 69.140625 
Q 55.078125 64.0625 55.078125 55.328125 
Q 55.078125 49.078125 51.53125 44.71875 
Q 48 40.375 41.703125 38.8125 
Q 48.828125 37.15625 52.796875 32.3125 
Q 56.78125 27.484375 56.78125 20.515625 
Q 56.78125 9.90625 50.3125 4.234375 
Q 43.84375 -1.421875 31.78125 -1.421875 
Q 19.734375 -1.421875 13.25 4.234375 
Q 6.78125 9.90625 6.78125 20.515625 
Q 6.78125 27.484375 10.78125 32.3125 
Q 14.796875 37.15625 21.921875 38.8125 
z
M 18.3125 54.390625 
Q 18.3125 48.734375 21.84375 45.5625 
Q 25.390625 42.390625 31.78125 42.390625 
Q 38.140625 42.390625 41.71875 45.5625 
Q 45.3125 48.734375 45.3125 54.390625 
Q 45.3125 60.0625 41.71875 63.234375 
Q 38.140625 66.40625 31.78125 66.40625 
Q 25.390625 66.40625 21.84375 63.234375 
Q 18.3125 60.0625 18.3125 54.390625 
z
" id="DejaVuSans-56"/>
       </defs>
       <use xlink:href="#DejaVuSans-8722"/>
       <use x="83.789062" xlink:href="#DejaVuSans-56"/>
      </g>
     </g>
    </g>
    <g id="xtick_4">
     <g id="line2d_4">
      <g>
       <use style="stroke:#000000;stroke-width:0.8;" x="502.508619" xlink:href="#m18a77c940a" y="985.68"/>
      </g>
     </g>
     <g id="text_4">
      <!-- −7 -->
      <g transform="translate(495.137525 1000.278437)scale(0.1 -0.1)">
       <defs>
        <path d="M 8.203125 72.90625 
L 55.078125 72.90625 
L 55.078125 68.703125 
L 28.609375 0 
L 18.3125 0 
L 43.21875 64.59375 
L 8.203125 64.59375 
z
" id="DejaVuSans-55"/>
       </defs>
       <use xlink:href="#DejaVuSans-8722"/>
       <use x="83.789062" xlink:href="#DejaVuSans-55"/>
      </g>
     </g>
    </g>
    <g id="xtick_5">
     <g id="line2d_5">
      <g>
       <use style="stroke:#000000;stroke-width:0.8;" x="629.580738" xlink:href="#m18a77c940a" y="985.68"/>
      </g>
     </g>
     <g id="text_5">
      <!-- −6 -->
      <g transform="translate(622.209644 1000.278437)scale(0.1 -0.1)">
       <defs>
        <path d="M 33.015625 40.375 
Q 26.375 40.375 22.484375 35.828125 
Q 18.609375 31.296875 18.609375 23.390625 
Q 18.609375 15.53125 22.484375 10.953125 
Q 26.375 6.390625 33.015625 6.390625 
Q 39.65625 6.390625 43.53125 10.953125 
Q 47.40625 15.53125 47.40625 23.390625 
Q 47.40625 31.296875 43.53125 35.828125 
Q 39.65625 40.375 33.015625 40.375 
z
M 52.59375 71.296875 
L 52.59375 62.3125 
Q 48.875 64.0625 45.09375 64.984375 
Q 41.3125 65.921875 37.59375 65.921875 
Q 27.828125 65.921875 22.671875 59.328125 
Q 17.53125 52.734375 16.796875 39.40625 
Q 19.671875 43.65625 24.015625 45.921875 
Q 28.375 48.1875 33.59375 48.1875 
Q 44.578125 48.1875 50.953125 41.515625 
Q 57.328125 34.859375 57.328125 23.390625 
Q 57.328125 12.15625 50.6875 5.359375 
Q 44.046875 -1.421875 33.015625 -1.421875 
Q 20.359375 -1.421875 13.671875 8.265625 
Q 6.984375 17.96875 6.984375 36.375 
Q 6.984375 53.65625 15.1875 63.9375 
Q 23.390625 74.21875 37.203125 74.21875 
Q 40.921875 74.21875 44.703125 73.484375 
Q 48.484375 72.75 52.59375 71.296875 
z
" id="DejaVuSans-54"/>
       </defs>
       <use xlink:href="#DejaVuSans-8722"/>
       <use x="83.789062" xlink:href="#DejaVuSans-54"/>
      </g>
     </g>
    </g>
    <g id="xtick_6">
     <g id="line2d_6">
      <g>
       <use style="stroke:#000000;stroke-width:0.8;" x="756.652857" xlink:href="#m18a77c940a" y="985.68"/>
      </g>
     </g>
     <g id="text_6">
      <!-- −5 -->
      <g transform="translate(749.281763 1000.278437)scale(0.1 -0.1)">
       <defs>
        <path d="M 10.796875 72.90625 
L 49.515625 72.90625 
L 49.515625 64.59375 
L 19.828125 64.59375 
L 19.828125 46.734375 
Q 21.96875 47.46875 24.109375 47.828125 
Q 26.265625 48.1875 28.421875 48.1875 
Q 40.625 48.1875 47.75 41.5 
Q 54.890625 34.8125 54.890625 23.390625 
Q 54.890625 11.625 47.5625 5.09375 
Q 40.234375 -1.421875 26.90625 -1.421875 
Q 22.3125 -1.421875 17.546875 -0.640625 
Q 12.796875 0.140625 7.71875 1.703125 
L 7.71875 11.625 
Q 12.109375 9.234375 16.796875 8.0625 
Q 21.484375 6.890625 26.703125 6.890625 
Q 35.15625 6.890625 40.078125 11.328125 
Q 45.015625 15.765625 45.015625 23.390625 
Q 45.015625 31 40.078125 35.4375 
Q 35.15625 39.890625 26.703125 39.890625 
Q 22.75 39.890625 18.8125 39.015625 
Q 14.890625 38.140625 10.796875 36.28125 
z
" id="DejaVuSans-53"/>
       </defs>
       <use xlink:href="#DejaVuSans-8722"/>
       <use x="83.789062" xlink:href="#DejaVuSans-53"/>
      </g>
     </g>
    </g>
    <g id="xtick_7">
     <g id="line2d_7">
      <g>
       <use style="stroke:#000000;stroke-width:0.8;" x="883.724976" xlink:href="#m18a77c940a" y="985.68"/>
      </g>
     </g>
     <g id="text_7">
      <!-- −4 -->
      <g transform="translate(876.353882 1000.278437)scale(0.1 -0.1)">
       <defs>
        <path d="M 37.796875 64.3125 
L 12.890625 25.390625 
L 37.796875 25.390625 
z
M 35.203125 72.90625 
L 47.609375 72.90625 
L 47.609375 25.390625 
L 58.015625 25.390625 
L 58.015625 17.1875 
L 47.609375 17.1875 
L 47.609375 0 
L 37.796875 0 
L 37.796875 17.1875 
L 4.890625 17.1875 
L 4.890625 26.703125 
z
" id="DejaVuSans-52"/>
       </defs>
       <use xlink:href="#DejaVuSans-8722"/>
       <use x="83.789062" xlink:href="#DejaVuSans-52"/>
      </g>
     </g>
    </g>
    <g id="xtick_8">
     <g id="line2d_8">
      <g>
       <use style="stroke:#000000;stroke-width:0.8;" x="1010.797095" xlink:href="#m18a77c940a" y="985.68"/>
      </g>
     </g>
     <g id="text_8">
      <!-- −3 -->
      <g transform="translate(1003.426001 1000.278437)scale(0.1 -0.1)">
       <defs>
        <path d="M 40.578125 39.3125 
Q 47.65625 37.796875 51.625 33 
Q 55.609375 28.21875 55.609375 21.1875 
Q 55.609375 10.40625 48.1875 4.484375 
Q 40.765625 -1.421875 27.09375 -1.421875 
Q 22.515625 -1.421875 17.65625 -0.515625 
Q 12.796875 0.390625 7.625 2.203125 
L 7.625 11.71875 
Q 11.71875 9.328125 16.59375 8.109375 
Q 21.484375 6.890625 26.8125 6.890625 
Q 36.078125 6.890625 40.9375 10.546875 
Q 45.796875 14.203125 45.796875 21.1875 
Q 45.796875 27.640625 41.28125 31.265625 
Q 36.765625 34.90625 28.71875 34.90625 
L 20.21875 34.90625 
L 20.21875 43.015625 
L 29.109375 43.015625 
Q 36.375 43.015625 40.234375 45.921875 
Q 44.09375 48.828125 44.09375 54.296875 
Q 44.09375 59.90625 40.109375 62.90625 
Q 36.140625 65.921875 28.71875 65.921875 
Q 24.65625 65.921875 20.015625 65.03125 
Q 15.375 64.15625 9.8125 62.3125 
L 9.8125 71.09375 
Q 15.4375 72.65625 20.34375 73.4375 
Q 25.25 74.21875 29.59375 74.21875 
Q 40.828125 74.21875 47.359375 69.109375 
Q 53.90625 64.015625 53.90625 55.328125 
Q 53.90625 49.265625 50.4375 45.09375 
Q 46.96875 40.921875 40.578125 39.3125 
z
" id="DejaVuSans-51"/>
       </defs>
       <use xlink:href="#DejaVuSans-8722"/>
       <use x="83.789062" xlink:href="#DejaVuSans-51"/>
      </g>
     </g>
    </g>
   </g>
   <g id="matplotlib.axis_2">
    <g id="ytick_1">
     <g id="line2d_9">
      <defs>
       <path d="M 0 0 
L -3.5 0 
" id="md1e9d86894" style="stroke:#000000;stroke-width:0.8;"/>
      </defs>
      <g>
       <use style="stroke:#000000;stroke-width:0.8;" x="28.942188" xlink:href="#md1e9d86894" y="890.153938"/>
      </g>
     </g>
     <g id="text_9">
      <!-- −5 -->
      <g transform="translate(7.2 893.953157)scale(0.1 -0.1)">
       <use xlink:href="#DejaVuSans-8722"/>
       <use x="83.789062" xlink:href="#DejaVuSans-53"/>
      </g>
     </g>
    </g>
    <g id="ytick_2">
     <g id="line2d_10">
      <g>
       <use style="stroke:#000000;stroke-width:0.8;" x="28.942188" xlink:href="#md1e9d86894" y="778.72981"/>
      </g>
     </g>
     <g id="text_10">
      <!-- −4 -->
      <g transform="translate(7.2 782.529029)scale(0.1 -0.1)">
       <use xlink:href="#DejaVuSans-8722"/>
       <use x="83.789062" xlink:href="#DejaVuSans-52"/>
      </g>
     </g>
    </g>
    <g id="ytick_3">
     <g id="line2d_11">
      <g>
       <use style="stroke:#000000;stroke-width:0.8;" x="28.942188" xlink:href="#md1e9d86894" y="667.305681"/>
      </g>
     </g>
     <g id="text_11">
      <!-- −3 -->
      <g transform="translate(7.2 671.1049)scale(0.1 -0.1)">
       <use xlink:href="#DejaVuSans-8722"/>
       <use x="83.789062" xlink:href="#DejaVuSans-51"/>
      </g>
     </g>
    </g>
    <g id="ytick_4">
     <g id="line2d_12">
      <g>
       <use style="stroke:#000000;stroke-width:0.8;" x="28.942188" xlink:href="#md1e9d86894" y="555.881553"/>
      </g>
     </g>
     <g id="text_12">
      <!-- −2 -->
      <g transform="translate(7.2 559.680772)scale(0.1 -0.1)">
       <defs>
        <path d="M 19.1875 8.296875 
L 53.609375 8.296875 
L 53.609375 0 
L 7.328125 0 
L 7.328125 8.296875 
Q 12.9375 14.109375 22.625 23.890625 
Q 32.328125 33.6875 34.8125 36.53125 
Q 39.546875 41.84375 41.421875 45.53125 
Q 43.3125 49.21875 43.3125 52.78125 
Q 43.3125 58.59375 39.234375 62.25 
Q 35.15625 65.921875 28.609375 65.921875 
Q 23.96875 65.921875 18.8125 64.3125 
Q 13.671875 62.703125 7.8125 59.421875 
L 7.8125 69.390625 
Q 13.765625 71.78125 18.9375 73 
Q 24.125 74.21875 28.421875 74.21875 
Q 39.75 74.21875 46.484375 68.546875 
Q 53.21875 62.890625 53.21875 53.421875 
Q 53.21875 48.921875 51.53125 44.890625 
Q 49.859375 40.875 45.40625 35.40625 
Q 44.1875 33.984375 37.640625 27.21875 
Q 31.109375 20.453125 19.1875 8.296875 
z
" id="DejaVuSans-50"/>
       </defs>
       <use xlink:href="#DejaVuSans-8722"/>
       <use x="83.789062" xlink:href="#DejaVuSans-50"/>
      </g>
     </g>
    </g>
    <g id="ytick_5">
     <g id="line2d_13">
      <g>
       <use style="stroke:#000000;stroke-width:0.8;" x="28.942188" xlink:href="#md1e9d86894" y="444.457425"/>
      </g>
     </g>
     <g id="text_13">
      <!-- −1 -->
      <g transform="translate(7.2 448.256644)scale(0.1 -0.1)">
       <use xlink:href="#DejaVuSans-8722"/>
       <use x="83.789062" xlink:href="#DejaVuSans-49"/>
      </g>
     </g>
    </g>
    <g id="ytick_6">
     <g id="line2d_14">
      <g>
       <use style="stroke:#000000;stroke-width:0.8;" x="28.942188" xlink:href="#md1e9d86894" y="333.033296"/>
      </g>
     </g>
     <g id="text_14">
      <!-- 0 -->
      <g transform="translate(15.579688 336.832515)scale(0.1 -0.1)">
       <use xlink:href="#DejaVuSans-48"/>
      </g>
     </g>
    </g>
    <g id="ytick_7">
     <g id="line2d_15">
      <g>
       <use style="stroke:#000000;stroke-width:0.8;" x="28.942188" xlink:href="#md1e9d86894" y="221.609168"/>
      </g>
     </g>
     <g id="text_15">
      <!-- 1 -->
      <g transform="translate(15.579688 225.408387)scale(0.1 -0.1)">
       <use xlink:href="#DejaVuSans-49"/>
      </g>
     </g>
    </g>
    <g id="ytick_8">
     <g id="line2d_16">
      <g>
       <use style="stroke:#000000;stroke-width:0.8;" x="28.942188" xlink:href="#md1e9d86894" y="110.18504"/>
      </g>
     </g>
     <g id="text_16">
      <!-- 2 -->
      <g transform="translate(15.579688 113.984259)scale(0.1 -0.1)">
       <use xlink:href="#DejaVuSans-50"/>
      </g>
     </g>
    </g>
   </g>
   <g id="patch_3">
    <path d="M 28.942188 985.68 
L 28.942188 7.2 
" style="fill:none;stroke:#000000;stroke-linecap:square;stroke-linejoin:miter;stroke-width:0.8;"/>
   </g>
   <g id="patch_4">
    <path d="M 1033.342188 985.68 
L 1033.342188 7.2 
" style="fill:none;stroke:#000000;stroke-linecap:square;stroke-linejoin:miter;stroke-width:0.8;"/>
   </g>
   <g id="patch_5">
    <path d="M 28.942188 985.68 
L 1033.342188 985.68 
" style="fill:none;stroke:#000000;stroke-linecap:square;stroke-linejoin:miter;stroke-width:0.8;"/>
   </g>
   <g id="patch_6">
    <path d="M 28.942188 7.2 
L 1033.342188 7.2 
" style="fill:none;stroke:#000000;stroke-linecap:square;stroke-linejoin:miter;stroke-width:0.8;"/>
   </g>
   <g id="text_17">
    <!-- peopl -->
    <g transform="translate(627.143693 252.347418)scale(0.1 -0.1)">
     <defs>
      <path d="M 18.109375 8.203125 
L 18.109375 -20.796875 
L 9.078125 -20.796875 
L 9.078125 54.6875 
L 18.109375 54.6875 
L 18.109375 46.390625 
Q 20.953125 51.265625 25.265625 53.625 
Q 29.59375 56 35.59375 56 
Q 45.5625 56 51.78125 48.09375 
Q 58.015625 40.1875 58.015625 27.296875 
Q 58.015625 14.40625 51.78125 6.484375 
Q 45.5625 -1.421875 35.59375 -1.421875 
Q 29.59375 -1.421875 25.265625 0.953125 
Q 20.953125 3.328125 18.109375 8.203125 
z
M 48.6875 27.296875 
Q 48.6875 37.203125 44.609375 42.84375 
Q 40.53125 48.484375 33.40625 48.484375 
Q 26.265625 48.484375 22.1875 42.84375 
Q 18.109375 37.203125 18.109375 27.296875 
Q 18.109375 17.390625 22.1875 11.75 
Q 26.265625 6.109375 33.40625 6.109375 
Q 40.53125 6.109375 44.609375 11.75 
Q 48.6875 17.390625 48.6875 27.296875 
z
" id="DejaVuSans-112"/>
      <path d="M 56.203125 29.59375 
L 56.203125 25.203125 
L 14.890625 25.203125 
Q 15.484375 15.921875 20.484375 11.0625 
Q 25.484375 6.203125 34.421875 6.203125 
Q 39.59375 6.203125 44.453125 7.46875 
Q 49.3125 8.734375 54.109375 11.28125 
L 54.109375 2.78125 
Q 49.265625 0.734375 44.1875 -0.34375 
Q 39.109375 -1.421875 33.890625 -1.421875 
Q 20.796875 -1.421875 13.15625 6.1875 
Q 5.515625 13.8125 5.515625 26.8125 
Q 5.515625 40.234375 12.765625 48.109375 
Q 20.015625 56 32.328125 56 
Q 43.359375 56 49.78125 48.890625 
Q 56.203125 41.796875 56.203125 29.59375 
z
M 47.21875 32.234375 
Q 47.125 39.59375 43.09375 43.984375 
Q 39.0625 48.390625 32.421875 48.390625 
Q 24.90625 48.390625 20.390625 44.140625 
Q 15.875 39.890625 15.1875 32.171875 
z
" id="DejaVuSans-101"/>
      <path d="M 30.609375 48.390625 
Q 23.390625 48.390625 19.1875 42.75 
Q 14.984375 37.109375 14.984375 27.296875 
Q 14.984375 17.484375 19.15625 11.84375 
Q 23.34375 6.203125 30.609375 6.203125 
Q 37.796875 6.203125 41.984375 11.859375 
Q 46.1875 17.53125 46.1875 27.296875 
Q 46.1875 37.015625 41.984375 42.703125 
Q 37.796875 48.390625 30.609375 48.390625 
z
M 30.609375 56 
Q 42.328125 56 49.015625 48.375 
Q 55.71875 40.765625 55.71875 27.296875 
Q 55.71875 13.875 49.015625 6.21875 
Q 42.328125 -1.421875 30.609375 -1.421875 
Q 18.84375 -1.421875 12.171875 6.21875 
Q 5.515625 13.875 5.515625 27.296875 
Q 5.515625 40.765625 12.171875 48.375 
Q 18.84375 56 30.609375 56 
z
" id="DejaVuSans-111"/>
      <path d="M 9.421875 75.984375 
L 18.40625 75.984375 
L 18.40625 0 
L 9.421875 0 
z
" id="DejaVuSans-108"/>
     </defs>
     <use xlink:href="#DejaVuSans-112"/>
     <use x="63.476562" xlink:href="#DejaVuSans-101"/>
     <use x="125" xlink:href="#DejaVuSans-111"/>
     <use x="186.181641" xlink:href="#DejaVuSans-112"/>
     <use x="249.658203" xlink:href="#DejaVuSans-108"/>
    </g>
   </g>
   <g id="text_18">
    <!-- cnn -->
    <g transform="translate(416.716306 385.261353)scale(0.1 -0.1)">
     <defs>
      <path d="M 48.78125 52.59375 
L 48.78125 44.1875 
Q 44.96875 46.296875 41.140625 47.34375 
Q 37.3125 48.390625 33.40625 48.390625 
Q 24.65625 48.390625 19.8125 42.84375 
Q 14.984375 37.3125 14.984375 27.296875 
Q 14.984375 17.28125 19.8125 11.734375 
Q 24.65625 6.203125 33.40625 6.203125 
Q 37.3125 6.203125 41.140625 7.25 
Q 44.96875 8.296875 48.78125 10.40625 
L 48.78125 2.09375 
Q 45.015625 0.34375 40.984375 -0.53125 
Q 36.96875 -1.421875 32.421875 -1.421875 
Q 20.0625 -1.421875 12.78125 6.34375 
Q 5.515625 14.109375 5.515625 27.296875 
Q 5.515625 40.671875 12.859375 48.328125 
Q 20.21875 56 33.015625 56 
Q 37.15625 56 41.109375 55.140625 
Q 45.0625 54.296875 48.78125 52.59375 
z
" id="DejaVuSans-99"/>
      <path d="M 54.890625 33.015625 
L 54.890625 0 
L 45.90625 0 
L 45.90625 32.71875 
Q 45.90625 40.484375 42.875 44.328125 
Q 39.84375 48.1875 33.796875 48.1875 
Q 26.515625 48.1875 22.3125 43.546875 
Q 18.109375 38.921875 18.109375 30.90625 
L 18.109375 0 
L 9.078125 0 
L 9.078125 54.6875 
L 18.109375 54.6875 
L 18.109375 46.1875 
Q 21.34375 51.125 25.703125 53.5625 
Q 30.078125 56 35.796875 56 
Q 45.21875 56 50.046875 50.171875 
Q 54.890625 44.34375 54.890625 33.015625 
z
" id="DejaVuSans-110"/>
     </defs>
     <use xlink:href="#DejaVuSans-99"/>
     <use x="54.980469" xlink:href="#DejaVuSans-110"/>
     <use x="118.359375" xlink:href="#DejaVuSans-110"/>
    </g>
   </g>
   <g id="text_19">
    <!-- trump -->
    <g transform="translate(514.849238 433.939384)scale(0.1 -0.1)">
     <defs>
      <path d="M 18.3125 70.21875 
L 18.3125 54.6875 
L 36.8125 54.6875 
L 36.8125 47.703125 
L 18.3125 47.703125 
L 18.3125 18.015625 
Q 18.3125 11.328125 20.140625 9.421875 
Q 21.96875 7.515625 27.59375 7.515625 
L 36.8125 7.515625 
L 36.8125 0 
L 27.59375 0 
Q 17.1875 0 13.234375 3.875 
Q 9.28125 7.765625 9.28125 18.015625 
L 9.28125 47.703125 
L 2.6875 47.703125 
L 2.6875 54.6875 
L 9.28125 54.6875 
L 9.28125 70.21875 
z
" id="DejaVuSans-116"/>
      <path d="M 41.109375 46.296875 
Q 39.59375 47.171875 37.8125 47.578125 
Q 36.03125 48 33.890625 48 
Q 26.265625 48 22.1875 43.046875 
Q 18.109375 38.09375 18.109375 28.8125 
L 18.109375 0 
L 9.078125 0 
L 9.078125 54.6875 
L 18.109375 54.6875 
L 18.109375 46.1875 
Q 20.953125 51.171875 25.484375 53.578125 
Q 30.03125 56 36.53125 56 
Q 37.453125 56 38.578125 55.875 
Q 39.703125 55.765625 41.0625 55.515625 
z
" id="DejaVuSans-114"/>
      <path d="M 8.5 21.578125 
L 8.5 54.6875 
L 17.484375 54.6875 
L 17.484375 21.921875 
Q 17.484375 14.15625 20.5 10.265625 
Q 23.53125 6.390625 29.59375 6.390625 
Q 36.859375 6.390625 41.078125 11.03125 
Q 45.3125 15.671875 45.3125 23.6875 
L 45.3125 54.6875 
L 54.296875 54.6875 
L 54.296875 0 
L 45.3125 0 
L 45.3125 8.40625 
Q 42.046875 3.421875 37.71875 1 
Q 33.40625 -1.421875 27.6875 -1.421875 
Q 18.265625 -1.421875 13.375 4.4375 
Q 8.5 10.296875 8.5 21.578125 
z
M 31.109375 56 
z
" id="DejaVuSans-117"/>
      <path d="M 52 44.1875 
Q 55.375 50.25 60.0625 53.125 
Q 64.75 56 71.09375 56 
Q 79.640625 56 84.28125 50.015625 
Q 88.921875 44.046875 88.921875 33.015625 
L 88.921875 0 
L 79.890625 0 
L 79.890625 32.71875 
Q 79.890625 40.578125 77.09375 44.375 
Q 74.3125 48.1875 68.609375 48.1875 
Q 61.625 48.1875 57.5625 43.546875 
Q 53.515625 38.921875 53.515625 30.90625 
L 53.515625 0 
L 44.484375 0 
L 44.484375 32.71875 
Q 44.484375 40.625 41.703125 44.40625 
Q 38.921875 48.1875 33.109375 48.1875 
Q 26.21875 48.1875 22.15625 43.53125 
Q 18.109375 38.875 18.109375 30.90625 
L 18.109375 0 
L 9.078125 0 
L 9.078125 54.6875 
L 18.109375 54.6875 
L 18.109375 46.1875 
Q 21.1875 51.21875 25.484375 53.609375 
Q 29.78125 56 35.6875 56 
Q 41.65625 56 45.828125 52.96875 
Q 50 49.953125 52 44.1875 
z
" id="DejaVuSans-109"/>
     </defs>
     <use xlink:href="#DejaVuSans-116"/>
     <use x="39.208984" xlink:href="#DejaVuSans-114"/>
     <use x="80.322266" xlink:href="#DejaVuSans-117"/>
     <use x="143.701172" xlink:href="#DejaVuSans-109"/>
     <use x="241.113281" xlink:href="#DejaVuSans-112"/>
    </g>
   </g>
   <g id="text_20">
    <!-- time -->
    <g transform="translate(520.562642 507.022106)scale(0.1 -0.1)">
     <defs>
      <path d="M 9.421875 54.6875 
L 18.40625 54.6875 
L 18.40625 0 
L 9.421875 0 
z
M 9.421875 75.984375 
L 18.40625 75.984375 
L 18.40625 64.59375 
L 9.421875 64.59375 
z
" id="DejaVuSans-105"/>
     </defs>
     <use xlink:href="#DejaVuSans-116"/>
     <use x="39.208984" xlink:href="#DejaVuSans-105"/>
     <use x="66.992188" xlink:href="#DejaVuSans-109"/>
     <use x="164.404297" xlink:href="#DejaVuSans-101"/>
    </g>
   </g>
   <g id="text_21">
    <!-- cuomo -->
    <g transform="translate(312.347038 195.524501)scale(0.1 -0.1)">
     <use xlink:href="#DejaVuSans-99"/>
     <use x="54.980469" xlink:href="#DejaVuSans-117"/>
     <use x="118.359375" xlink:href="#DejaVuSans-111"/>
     <use x="179.541016" xlink:href="#DejaVuSans-109"/>
     <use x="276.953125" xlink:href="#DejaVuSans-111"/>
    </g>
   </g>
   <g id="text_22">
    <!-- news -->
    <g transform="translate(408.716571 399.074037)scale(0.1 -0.1)">
     <defs>
      <path d="M 4.203125 54.6875 
L 13.1875 54.6875 
L 24.421875 12.015625 
L 35.59375 54.6875 
L 46.1875 54.6875 
L 57.421875 12.015625 
L 68.609375 54.6875 
L 77.59375 54.6875 
L 63.28125 0 
L 52.6875 0 
L 40.921875 44.828125 
L 29.109375 0 
L 18.5 0 
z
" id="DejaVuSans-119"/>
      <path d="M 44.28125 53.078125 
L 44.28125 44.578125 
Q 40.484375 46.53125 36.375 47.5 
Q 32.28125 48.484375 27.875 48.484375 
Q 21.1875 48.484375 17.84375 46.4375 
Q 14.5 44.390625 14.5 40.28125 
Q 14.5 37.15625 16.890625 35.375 
Q 19.28125 33.59375 26.515625 31.984375 
L 29.59375 31.296875 
Q 39.15625 29.25 43.1875 25.515625 
Q 47.21875 21.78125 47.21875 15.09375 
Q 47.21875 7.46875 41.1875 3.015625 
Q 35.15625 -1.421875 24.609375 -1.421875 
Q 20.21875 -1.421875 15.453125 -0.5625 
Q 10.6875 0.296875 5.421875 2 
L 5.421875 11.28125 
Q 10.40625 8.6875 15.234375 7.390625 
Q 20.0625 6.109375 24.8125 6.109375 
Q 31.15625 6.109375 34.5625 8.28125 
Q 37.984375 10.453125 37.984375 14.40625 
Q 37.984375 18.0625 35.515625 20.015625 
Q 33.0625 21.96875 24.703125 23.78125 
L 21.578125 24.515625 
Q 13.234375 26.265625 9.515625 29.90625 
Q 5.8125 33.546875 5.8125 39.890625 
Q 5.8125 47.609375 11.28125 51.796875 
Q 16.75 56 26.8125 56 
Q 31.78125 56 36.171875 55.265625 
Q 40.578125 54.546875 44.28125 53.078125 
z
" id="DejaVuSans-115"/>
     </defs>
     <use xlink:href="#DejaVuSans-110"/>
     <use x="63.378906" xlink:href="#DejaVuSans-101"/>
     <use x="124.902344" xlink:href="#DejaVuSans-119"/>
     <use x="206.689453" xlink:href="#DejaVuSans-115"/>
    </g>
   </g>
   <g id="text_23">
    <!-- year -->
    <g transform="translate(482.888565 503.884286)scale(0.1 -0.1)">
     <defs>
      <path d="M 32.171875 -5.078125 
Q 28.375 -14.84375 24.75 -17.8125 
Q 21.140625 -20.796875 15.09375 -20.796875 
L 7.90625 -20.796875 
L 7.90625 -13.28125 
L 13.1875 -13.28125 
Q 16.890625 -13.28125 18.9375 -11.515625 
Q 21 -9.765625 23.484375 -3.21875 
L 25.09375 0.875 
L 2.984375 54.6875 
L 12.5 54.6875 
L 29.59375 11.921875 
L 46.6875 54.6875 
L 56.203125 54.6875 
z
" id="DejaVuSans-121"/>
      <path d="M 34.28125 27.484375 
Q 23.390625 27.484375 19.1875 25 
Q 14.984375 22.515625 14.984375 16.5 
Q 14.984375 11.71875 18.140625 8.90625 
Q 21.296875 6.109375 26.703125 6.109375 
Q 34.1875 6.109375 38.703125 11.40625 
Q 43.21875 16.703125 43.21875 25.484375 
L 43.21875 27.484375 
z
M 52.203125 31.203125 
L 52.203125 0 
L 43.21875 0 
L 43.21875 8.296875 
Q 40.140625 3.328125 35.546875 0.953125 
Q 30.953125 -1.421875 24.3125 -1.421875 
Q 15.921875 -1.421875 10.953125 3.296875 
Q 6 8.015625 6 15.921875 
Q 6 25.140625 12.171875 29.828125 
Q 18.359375 34.515625 30.609375 34.515625 
L 43.21875 34.515625 
L 43.21875 35.40625 
Q 43.21875 41.609375 39.140625 45 
Q 35.0625 48.390625 27.6875 48.390625 
Q 23 48.390625 18.546875 47.265625 
Q 14.109375 46.140625 10.015625 43.890625 
L 10.015625 52.203125 
Q 14.9375 54.109375 19.578125 55.046875 
Q 24.21875 56 28.609375 56 
Q 40.484375 56 46.34375 49.84375 
Q 52.203125 43.703125 52.203125 31.203125 
z
" id="DejaVuSans-97"/>
     </defs>
     <use xlink:href="#DejaVuSans-121"/>
     <use x="59.179688" xlink:href="#DejaVuSans-101"/>
     <use x="120.703125" xlink:href="#DejaVuSans-97"/>
     <use x="181.982422" xlink:href="#DejaVuSans-114"/>
    </g>
   </g>
   <g id="text_24">
    <!-- man -->
    <g transform="translate(635.774741 517.132635)scale(0.1 -0.1)">
     <use xlink:href="#DejaVuSans-109"/>
     <use x="97.412109" xlink:href="#DejaVuSans-97"/>
     <use x="158.691406" xlink:href="#DejaVuSans-110"/>
    </g>
   </g>
   <g id="text_25">
    <!-- covid -->
    <g transform="translate(571.308035 742.648713)scale(0.1 -0.1)">
     <defs>
      <path d="M 2.984375 54.6875 
L 12.5 54.6875 
L 29.59375 8.796875 
L 46.6875 54.6875 
L 56.203125 54.6875 
L 35.6875 0 
L 23.484375 0 
z
" id="DejaVuSans-118"/>
      <path d="M 45.40625 46.390625 
L 45.40625 75.984375 
L 54.390625 75.984375 
L 54.390625 0 
L 45.40625 0 
L 45.40625 8.203125 
Q 42.578125 3.328125 38.25 0.953125 
Q 33.9375 -1.421875 27.875 -1.421875 
Q 17.96875 -1.421875 11.734375 6.484375 
Q 5.515625 14.40625 5.515625 27.296875 
Q 5.515625 40.1875 11.734375 48.09375 
Q 17.96875 56 27.875 56 
Q 33.9375 56 38.25 53.625 
Q 42.578125 51.265625 45.40625 46.390625 
z
M 14.796875 27.296875 
Q 14.796875 17.390625 18.875 11.75 
Q 22.953125 6.109375 30.078125 6.109375 
Q 37.203125 6.109375 41.296875 11.75 
Q 45.40625 17.390625 45.40625 27.296875 
Q 45.40625 37.203125 41.296875 42.84375 
Q 37.203125 48.484375 30.078125 48.484375 
Q 22.953125 48.484375 18.875 42.84375 
Q 14.796875 37.203125 14.796875 27.296875 
z
" id="DejaVuSans-100"/>
     </defs>
     <use xlink:href="#DejaVuSans-99"/>
     <use x="54.980469" xlink:href="#DejaVuSans-111"/>
     <use x="116.162109" xlink:href="#DejaVuSans-118"/>
     <use x="175.341797" xlink:href="#DejaVuSans-105"/>
     <use x="203.125" xlink:href="#DejaVuSans-100"/>
    </g>
   </g>
   <g id="text_26">
    <!-- god -->
    <g transform="translate(693.953529 568.679933)scale(0.1 -0.1)">
     <defs>
      <path d="M 45.40625 27.984375 
Q 45.40625 37.75 41.375 43.109375 
Q 37.359375 48.484375 30.078125 48.484375 
Q 22.859375 48.484375 18.828125 43.109375 
Q 14.796875 37.75 14.796875 27.984375 
Q 14.796875 18.265625 18.828125 12.890625 
Q 22.859375 7.515625 30.078125 7.515625 
Q 37.359375 7.515625 41.375 12.890625 
Q 45.40625 18.265625 45.40625 27.984375 
z
M 54.390625 6.78125 
Q 54.390625 -7.171875 48.1875 -13.984375 
Q 42 -20.796875 29.203125 -20.796875 
Q 24.46875 -20.796875 20.265625 -20.09375 
Q 16.0625 -19.390625 12.109375 -17.921875 
L 12.109375 -9.1875 
Q 16.0625 -11.328125 19.921875 -12.34375 
Q 23.78125 -13.375 27.78125 -13.375 
Q 36.625 -13.375 41.015625 -8.765625 
Q 45.40625 -4.15625 45.40625 5.171875 
L 45.40625 9.625 
Q 42.625 4.78125 38.28125 2.390625 
Q 33.9375 0 27.875 0 
Q 17.828125 0 11.671875 7.65625 
Q 5.515625 15.328125 5.515625 27.984375 
Q 5.515625 40.671875 11.671875 48.328125 
Q 17.828125 56 27.875 56 
Q 33.9375 56 38.28125 53.609375 
Q 42.625 51.21875 45.40625 46.390625 
L 45.40625 54.6875 
L 54.390625 54.6875 
z
" id="DejaVuSans-103"/>
     </defs>
     <use xlink:href="#DejaVuSans-103"/>
     <use x="63.476562" xlink:href="#DejaVuSans-111"/>
     <use x="124.658203" xlink:href="#DejaVuSans-100"/>
    </g>
   </g>
   <g id="text_27">
    <!-- guy -->
    <g transform="translate(524.867028 479.543332)scale(0.1 -0.1)">
     <use xlink:href="#DejaVuSans-103"/>
     <use x="63.476562" xlink:href="#DejaVuSans-117"/>
     <use x="126.855469" xlink:href="#DejaVuSans-121"/>
    </g>
   </g>
   <g id="text_28">
    <!-- vaccin -->
    <g transform="translate(589.449639 758.257135)scale(0.1 -0.1)">
     <use xlink:href="#DejaVuSans-118"/>
     <use x="59.179688" xlink:href="#DejaVuSans-97"/>
     <use x="120.458984" xlink:href="#DejaVuSans-99"/>
     <use x="175.439453" xlink:href="#DejaVuSans-99"/>
     <use x="230.419922" xlink:href="#DejaVuSans-105"/>
     <use x="258.203125" xlink:href="#DejaVuSans-110"/>
    </g>
   </g>
   <g id="text_29">
    <!-- thing -->
    <g transform="translate(559.539336 501.922019)scale(0.1 -0.1)">
     <defs>
      <path d="M 54.890625 33.015625 
L 54.890625 0 
L 45.90625 0 
L 45.90625 32.71875 
Q 45.90625 40.484375 42.875 44.328125 
Q 39.84375 48.1875 33.796875 48.1875 
Q 26.515625 48.1875 22.3125 43.546875 
Q 18.109375 38.921875 18.109375 30.90625 
L 18.109375 0 
L 9.078125 0 
L 9.078125 75.984375 
L 18.109375 75.984375 
L 18.109375 46.1875 
Q 21.34375 51.125 25.703125 53.5625 
Q 30.078125 56 35.796875 56 
Q 45.21875 56 50.046875 50.171875 
Q 54.890625 44.34375 54.890625 33.015625 
z
" id="DejaVuSans-104"/>
     </defs>
     <use xlink:href="#DejaVuSans-116"/>
     <use x="39.208984" xlink:href="#DejaVuSans-104"/>
     <use x="102.587891" xlink:href="#DejaVuSans-105"/>
     <use x="130.371094" xlink:href="#DejaVuSans-110"/>
     <use x="193.75" xlink:href="#DejaVuSans-103"/>
    </g>
   </g>
   <g id="text_30">
    <!-- way -->
    <g transform="translate(563.892407 517.377211)scale(0.1 -0.1)">
     <use xlink:href="#DejaVuSans-119"/>
     <use x="81.787109" xlink:href="#DejaVuSans-97"/>
     <use x="143.066406" xlink:href="#DejaVuSans-121"/>
    </g>
   </g>
   <g id="text_31">
    <!-- countri -->
    <g transform="translate(552.165264 560.145128)scale(0.1 -0.1)">
     <use xlink:href="#DejaVuSans-99"/>
     <use x="54.980469" xlink:href="#DejaVuSans-111"/>
     <use x="116.162109" xlink:href="#DejaVuSans-117"/>
     <use x="179.541016" xlink:href="#DejaVuSans-110"/>
     <use x="242.919922" xlink:href="#DejaVuSans-116"/>
     <use x="282.128906" xlink:href="#DejaVuSans-114"/>
     <use x="323.242188" xlink:href="#DejaVuSans-105"/>
    </g>
   </g>
   <g id="text_32">
    <!-- biden -->
    <g transform="translate(516.86116 302.984075)scale(0.1 -0.1)">
     <defs>
      <path d="M 48.6875 27.296875 
Q 48.6875 37.203125 44.609375 42.84375 
Q 40.53125 48.484375 33.40625 48.484375 
Q 26.265625 48.484375 22.1875 42.84375 
Q 18.109375 37.203125 18.109375 27.296875 
Q 18.109375 17.390625 22.1875 11.75 
Q 26.265625 6.109375 33.40625 6.109375 
Q 40.53125 6.109375 44.609375 11.75 
Q 48.6875 17.390625 48.6875 27.296875 
z
M 18.109375 46.390625 
Q 20.953125 51.265625 25.265625 53.625 
Q 29.59375 56 35.59375 56 
Q 45.5625 56 51.78125 48.09375 
Q 58.015625 40.1875 58.015625 27.296875 
Q 58.015625 14.40625 51.78125 6.484375 
Q 45.5625 -1.421875 35.59375 -1.421875 
Q 29.59375 -1.421875 25.265625 0.953125 
Q 20.953125 3.328125 18.109375 8.203125 
L 18.109375 0 
L 9.078125 0 
L 9.078125 75.984375 
L 18.109375 75.984375 
z
" id="DejaVuSans-98"/>
     </defs>
     <use xlink:href="#DejaVuSans-98"/>
     <use x="63.476562" xlink:href="#DejaVuSans-105"/>
     <use x="91.259766" xlink:href="#DejaVuSans-100"/>
     <use x="154.736328" xlink:href="#DejaVuSans-101"/>
     <use x="216.259766" xlink:href="#DejaVuSans-110"/>
    </g>
   </g>
   <g id="text_33">
    <!-- tax -->
    <g transform="translate(587.109665 323.044707)scale(0.1 -0.1)">
     <defs>
      <path d="M 54.890625 54.6875 
L 35.109375 28.078125 
L 55.90625 0 
L 45.3125 0 
L 29.390625 21.484375 
L 13.484375 0 
L 2.875 0 
L 24.125 28.609375 
L 4.6875 54.6875 
L 15.28125 54.6875 
L 29.78125 35.203125 
L 44.28125 54.6875 
z
" id="DejaVuSans-120"/>
     </defs>
     <use xlink:href="#DejaVuSans-116"/>
     <use x="39.208984" xlink:href="#DejaVuSans-97"/>
     <use x="100.488281" xlink:href="#DejaVuSans-120"/>
    </g>
   </g>
   <g id="text_34">
    <!-- life -->
    <g transform="translate(650.231381 565.89663)scale(0.1 -0.1)">
     <defs>
      <path d="M 37.109375 75.984375 
L 37.109375 68.5 
L 28.515625 68.5 
Q 23.6875 68.5 21.796875 66.546875 
Q 19.921875 64.59375 19.921875 59.515625 
L 19.921875 54.6875 
L 34.71875 54.6875 
L 34.71875 47.703125 
L 19.921875 47.703125 
L 19.921875 0 
L 10.890625 0 
L 10.890625 47.703125 
L 2.296875 47.703125 
L 2.296875 54.6875 
L 10.890625 54.6875 
L 10.890625 58.5 
Q 10.890625 67.625 15.140625 71.796875 
Q 19.390625 75.984375 28.609375 75.984375 
z
" id="DejaVuSans-102"/>
     </defs>
     <use xlink:href="#DejaVuSans-108"/>
     <use x="27.783203" xlink:href="#DejaVuSans-105"/>
     <use x="55.566406" xlink:href="#DejaVuSans-102"/>
     <use x="90.771484" xlink:href="#DejaVuSans-101"/>
    </g>
   </g>
   <g id="text_35">
    <!-- mask -->
    <g transform="translate(600.944174 796.739958)scale(0.1 -0.1)">
     <defs>
      <path d="M 9.078125 75.984375 
L 18.109375 75.984375 
L 18.109375 31.109375 
L 44.921875 54.6875 
L 56.390625 54.6875 
L 27.390625 29.109375 
L 57.625 0 
L 45.90625 0 
L 18.109375 26.703125 
L 18.109375 0 
L 9.078125 0 
z
" id="DejaVuSans-107"/>
     </defs>
     <use xlink:href="#DejaVuSans-109"/>
     <use x="97.412109" xlink:href="#DejaVuSans-97"/>
     <use x="158.691406" xlink:href="#DejaVuSans-115"/>
     <use x="210.791016" xlink:href="#DejaVuSans-107"/>
    </g>
   </g>
   <g id="text_36">
    <!-- world -->
    <g transform="translate(682.04717 591.56743)scale(0.1 -0.1)">
     <use xlink:href="#DejaVuSans-119"/>
     <use x="81.787109" xlink:href="#DejaVuSans-111"/>
     <use x="142.96875" xlink:href="#DejaVuSans-114"/>
     <use x="184.082031" xlink:href="#DejaVuSans-108"/>
     <use x="211.865234" xlink:href="#DejaVuSans-100"/>
    </g>
   </g>
   <g id="text_37">
    <!-- day -->
    <g transform="translate(525.70514 546.835865)scale(0.1 -0.1)">
     <use xlink:href="#DejaVuSans-100"/>
     <use x="63.476562" xlink:href="#DejaVuSans-97"/>
     <use x="124.755859" xlink:href="#DejaVuSans-121"/>
    </g>
   </g>
   <g id="text_38">
    <!-- state -->
    <g transform="translate(517.848325 612.631095)scale(0.1 -0.1)">
     <use xlink:href="#DejaVuSans-115"/>
     <use x="52.099609" xlink:href="#DejaVuSans-116"/>
     <use x="91.308594" xlink:href="#DejaVuSans-97"/>
     <use x="152.587891" xlink:href="#DejaVuSans-116"/>
     <use x="191.796875" xlink:href="#DejaVuSans-101"/>
    </g>
   </g>
   <g id="text_39">
    <!-- desanti -->
    <g transform="translate(397.852227 793.85297)scale(0.1 -0.1)">
     <use xlink:href="#DejaVuSans-100"/>
     <use x="63.476562" xlink:href="#DejaVuSans-101"/>
     <use x="125" xlink:href="#DejaVuSans-115"/>
     <use x="177.099609" xlink:href="#DejaVuSans-97"/>
     <use x="238.378906" xlink:href="#DejaVuSans-110"/>
     <use x="301.757812" xlink:href="#DejaVuSans-116"/>
     <use x="340.966797" xlink:href="#DejaVuSans-105"/>
    </g>
   </g>
   <g id="text_40">
    <!-- presid -->
    <g transform="translate(552.54864 363.437418)scale(0.1 -0.1)">
     <use xlink:href="#DejaVuSans-112"/>
     <use x="63.476562" xlink:href="#DejaVuSans-114"/>
     <use x="102.339844" xlink:href="#DejaVuSans-101"/>
     <use x="163.863281" xlink:href="#DejaVuSans-115"/>
     <use x="215.962891" xlink:href="#DejaVuSans-105"/>
     <use x="243.746094" xlink:href="#DejaVuSans-100"/>
    </g>
   </g>
   <g id="text_41">
    <!-- money -->
    <g transform="translate(565.439885 400.999438)scale(0.1 -0.1)">
     <use xlink:href="#DejaVuSans-109"/>
     <use x="97.412109" xlink:href="#DejaVuSans-111"/>
     <use x="158.59375" xlink:href="#DejaVuSans-110"/>
     <use x="221.972656" xlink:href="#DejaVuSans-101"/>
     <use x="283.496094" xlink:href="#DejaVuSans-121"/>
    </g>
   </g>
   <g id="text_42">
    <!-- noth -->
    <g transform="translate(471.216156 424.300143)scale(0.1 -0.1)">
     <use xlink:href="#DejaVuSans-110"/>
     <use x="63.378906" xlink:href="#DejaVuSans-111"/>
     <use x="124.560547" xlink:href="#DejaVuSans-116"/>
     <use x="163.769531" xlink:href="#DejaVuSans-104"/>
    </g>
   </g>
   <g id="text_43">
    <!-- one -->
    <g transform="translate(613.557966 474.24124)scale(0.1 -0.1)">
     <use xlink:href="#DejaVuSans-111"/>
     <use x="61.181641" xlink:href="#DejaVuSans-110"/>
     <use x="124.560547" xlink:href="#DejaVuSans-101"/>
    </g>
   </g>
   <g id="text_44">
    <!-- lol -->
    <g transform="translate(410.879603 308.693384)scale(0.1 -0.1)">
     <use xlink:href="#DejaVuSans-108"/>
     <use x="27.783203" xlink:href="#DejaVuSans-111"/>
     <use x="88.964844" xlink:href="#DejaVuSans-108"/>
    </g>
   </g>
   <g id="text_45">
    <!-- space -->
    <g transform="translate(106.838032 627.43697)scale(0.1 -0.1)">
     <use xlink:href="#DejaVuSans-115"/>
     <use x="52.099609" xlink:href="#DejaVuSans-112"/>
     <use x="115.576172" xlink:href="#DejaVuSans-97"/>
     <use x="176.855469" xlink:href="#DejaVuSans-99"/>
     <use x="231.835938" xlink:href="#DejaVuSans-101"/>
    </g>
   </g>
   <g id="text_46">
    <!-- everyon -->
    <g transform="translate(568.222137 578.974832)scale(0.1 -0.1)">
     <use xlink:href="#DejaVuSans-101"/>
     <use x="61.523438" xlink:href="#DejaVuSans-118"/>
     <use x="120.703125" xlink:href="#DejaVuSans-101"/>
     <use x="182.226562" xlink:href="#DejaVuSans-114"/>
     <use x="223.339844" xlink:href="#DejaVuSans-121"/>
     <use x="282.519531" xlink:href="#DejaVuSans-111"/>
     <use x="343.701172" xlink:href="#DejaVuSans-110"/>
    </g>
   </g>
   <g id="text_47">
    <!-- thank -->
    <g transform="translate(371.651172 555.646539)scale(0.1 -0.1)">
     <use xlink:href="#DejaVuSans-116"/>
     <use x="39.208984" xlink:href="#DejaVuSans-104"/>
     <use x="102.587891" xlink:href="#DejaVuSans-97"/>
     <use x="163.867188" xlink:href="#DejaVuSans-110"/>
     <use x="227.246094" xlink:href="#DejaVuSans-107"/>
    </g>
   </g>
   <g id="text_48">
    <!-- right -->
    <g transform="translate(598.898906 618.075737)scale(0.1 -0.1)">
     <use xlink:href="#DejaVuSans-114"/>
     <use x="41.113281" xlink:href="#DejaVuSans-105"/>
     <use x="68.896484" xlink:href="#DejaVuSans-103"/>
     <use x="132.373047" xlink:href="#DejaVuSans-104"/>
     <use x="195.751953" xlink:href="#DejaVuSans-116"/>
    </g>
   </g>
   <g id="text_49">
    <!-- someth -->
    <g transform="translate(587.955978 428.318679)scale(0.1 -0.1)">
     <use xlink:href="#DejaVuSans-115"/>
     <use x="52.099609" xlink:href="#DejaVuSans-111"/>
     <use x="113.28125" xlink:href="#DejaVuSans-109"/>
     <use x="210.693359" xlink:href="#DejaVuSans-101"/>
     <use x="272.216797" xlink:href="#DejaVuSans-116"/>
     <use x="311.425781" xlink:href="#DejaVuSans-104"/>
    </g>
   </g>
   <g id="text_50">
    <!-- anyon -->
    <g transform="translate(640.227743 406.691333)scale(0.1 -0.1)">
     <use xlink:href="#DejaVuSans-97"/>
     <use x="61.279297" xlink:href="#DejaVuSans-110"/>
     <use x="124.658203" xlink:href="#DejaVuSans-121"/>
     <use x="183.837891" xlink:href="#DejaVuSans-111"/>
     <use x="245.019531" xlink:href="#DejaVuSans-110"/>
    </g>
   </g>
   <g id="text_51">
    <!-- person -->
    <g transform="translate(672.811803 490.325359)scale(0.1 -0.1)">
     <use xlink:href="#DejaVuSans-112"/>
     <use x="63.476562" xlink:href="#DejaVuSans-101"/>
     <use x="125" xlink:href="#DejaVuSans-114"/>
     <use x="166.113281" xlink:href="#DejaVuSans-115"/>
     <use x="218.212891" xlink:href="#DejaVuSans-111"/>
     <use x="279.394531" xlink:href="#DejaVuSans-110"/>
    </g>
   </g>
   <g id="text_52">
    <!-- someon -->
    <g transform="translate(545.594677 468.24499)scale(0.1 -0.1)">
     <use xlink:href="#DejaVuSans-115"/>
     <use x="52.099609" xlink:href="#DejaVuSans-111"/>
     <use x="113.28125" xlink:href="#DejaVuSans-109"/>
     <use x="210.693359" xlink:href="#DejaVuSans-101"/>
     <use x="272.216797" xlink:href="#DejaVuSans-111"/>
     <use x="333.398438" xlink:href="#DejaVuSans-110"/>
    </g>
   </g>
   <g id="text_53">
    <!-- lie -->
    <g transform="translate(660.796655 329.918665)scale(0.1 -0.1)">
     <use xlink:href="#DejaVuSans-108"/>
     <use x="27.783203" xlink:href="#DejaVuSans-105"/>
     <use x="55.566406" xlink:href="#DejaVuSans-101"/>
    </g>
   </g>
   <g id="text_54">
    <!-- democrat -->
    <g transform="translate(539.803756 146.090349)scale(0.1 -0.1)">
     <use xlink:href="#DejaVuSans-100"/>
     <use x="63.476562" xlink:href="#DejaVuSans-101"/>
     <use x="125" xlink:href="#DejaVuSans-109"/>
     <use x="222.412109" xlink:href="#DejaVuSans-111"/>
     <use x="283.59375" xlink:href="#DejaVuSans-99"/>
     <use x="338.574219" xlink:href="#DejaVuSans-114"/>
     <use x="379.6875" xlink:href="#DejaVuSans-97"/>
     <use x="440.966797" xlink:href="#DejaVuSans-116"/>
    </g>
   </g>
   <g id="text_55">
    <!-- governor -->
    <g transform="translate(364.34715 769.568813)scale(0.1 -0.1)">
     <use xlink:href="#DejaVuSans-103"/>
     <use x="63.476562" xlink:href="#DejaVuSans-111"/>
     <use x="124.658203" xlink:href="#DejaVuSans-118"/>
     <use x="183.837891" xlink:href="#DejaVuSans-101"/>
     <use x="245.361328" xlink:href="#DejaVuSans-114"/>
     <use x="284.724609" xlink:href="#DejaVuSans-110"/>
     <use x="348.103516" xlink:href="#DejaVuSans-111"/>
     <use x="409.285156" xlink:href="#DejaVuSans-114"/>
    </g>
   </g>
   <g id="text_56">
    <!-- job -->
    <g transform="translate(429.643436 534.528455)scale(0.1 -0.1)">
     <defs>
      <path d="M 9.421875 54.6875 
L 18.40625 54.6875 
L 18.40625 -0.984375 
Q 18.40625 -11.421875 14.421875 -16.109375 
Q 10.453125 -20.796875 1.609375 -20.796875 
L -1.8125 -20.796875 
L -1.8125 -13.1875 
L 0.59375 -13.1875 
Q 5.71875 -13.1875 7.5625 -10.8125 
Q 9.421875 -8.453125 9.421875 -0.984375 
z
M 9.421875 75.984375 
L 18.40625 75.984375 
L 18.40625 64.59375 
L 9.421875 64.59375 
z
" id="DejaVuSans-106"/>
     </defs>
     <use xlink:href="#DejaVuSans-106"/>
     <use x="27.783203" xlink:href="#DejaVuSans-111"/>
     <use x="88.964844" xlink:href="#DejaVuSans-98"/>
    </g>
   </g>
   <g id="text_57">
    <!-- elect -->
    <g transform="translate(575.532442 267.400726)scale(0.1 -0.1)">
     <use xlink:href="#DejaVuSans-101"/>
     <use x="61.523438" xlink:href="#DejaVuSans-108"/>
     <use x="89.306641" xlink:href="#DejaVuSans-101"/>
     <use x="150.830078" xlink:href="#DejaVuSans-99"/>
     <use x="205.810547" xlink:href="#DejaVuSans-116"/>
    </g>
   </g>
   <g id="text_58">
    <!-- govern -->
    <g transform="translate(554.26304 617.888424)scale(0.1 -0.1)">
     <use xlink:href="#DejaVuSans-103"/>
     <use x="63.476562" xlink:href="#DejaVuSans-111"/>
     <use x="124.658203" xlink:href="#DejaVuSans-118"/>
     <use x="183.837891" xlink:href="#DejaVuSans-101"/>
     <use x="245.361328" xlink:href="#DejaVuSans-114"/>
     <use x="284.724609" xlink:href="#DejaVuSans-110"/>
    </g>
   </g>
   <g id="text_59">
    <!-- america -->
    <g transform="translate(447.372861 597.388268)scale(0.1 -0.1)">
     <use xlink:href="#DejaVuSans-97"/>
     <use x="61.279297" xlink:href="#DejaVuSans-109"/>
     <use x="158.691406" xlink:href="#DejaVuSans-101"/>
     <use x="220.214844" xlink:href="#DejaVuSans-114"/>
     <use x="261.328125" xlink:href="#DejaVuSans-105"/>
     <use x="289.111328" xlink:href="#DejaVuSans-99"/>
     <use x="344.091797" xlink:href="#DejaVuSans-97"/>
    </g>
   </g>
   <g id="text_60">
    <!-- offic -->
    <g transform="translate(417.339469 497.835369)scale(0.1 -0.1)">
     <use xlink:href="#DejaVuSans-111"/>
     <use x="61.181641" xlink:href="#DejaVuSans-102"/>
     <use x="96.386719" xlink:href="#DejaVuSans-102"/>
     <use x="131.591797" xlink:href="#DejaVuSans-105"/>
     <use x="159.375" xlink:href="#DejaVuSans-99"/>
    </g>
   </g>
   <g id="text_61">
    <!-- video -->
    <g transform="translate(342.799436 383.164458)scale(0.1 -0.1)">
     <use xlink:href="#DejaVuSans-118"/>
     <use x="59.179688" xlink:href="#DejaVuSans-105"/>
     <use x="86.962891" xlink:href="#DejaVuSans-100"/>
     <use x="150.439453" xlink:href="#DejaVuSans-101"/>
     <use x="211.962891" xlink:href="#DejaVuSans-111"/>
    </g>
   </g>
   <g id="text_62">
    <!-- death -->
    <g transform="translate(700.994424 729.088657)scale(0.1 -0.1)">
     <use xlink:href="#DejaVuSans-100"/>
     <use x="63.476562" xlink:href="#DejaVuSans-101"/>
     <use x="125" xlink:href="#DejaVuSans-97"/>
     <use x="186.279297" xlink:href="#DejaVuSans-116"/>
     <use x="225.488281" xlink:href="#DejaVuSans-104"/>
    </g>
   </g>
   <g id="text_63">
    <!-- republican -->
    <g transform="translate(630.078069 150.078892)scale(0.1 -0.1)">
     <use xlink:href="#DejaVuSans-114"/>
     <use x="38.863281" xlink:href="#DejaVuSans-101"/>
     <use x="100.386719" xlink:href="#DejaVuSans-112"/>
     <use x="163.863281" xlink:href="#DejaVuSans-117"/>
     <use x="227.242188" xlink:href="#DejaVuSans-98"/>
     <use x="290.71875" xlink:href="#DejaVuSans-108"/>
     <use x="318.501953" xlink:href="#DejaVuSans-105"/>
     <use x="346.285156" xlink:href="#DejaVuSans-99"/>
     <use x="401.265625" xlink:href="#DejaVuSans-97"/>
     <use x="462.544922" xlink:href="#DejaVuSans-110"/>
    </g>
   </g>
   <g id="text_64">
    <!-- florida -->
    <g transform="translate(424.823183 811.718324)scale(0.1 -0.1)">
     <use xlink:href="#DejaVuSans-102"/>
     <use x="35.205078" xlink:href="#DejaVuSans-108"/>
     <use x="62.988281" xlink:href="#DejaVuSans-111"/>
     <use x="124.169922" xlink:href="#DejaVuSans-114"/>
     <use x="165.283203" xlink:href="#DejaVuSans-105"/>
     <use x="193.066406" xlink:href="#DejaVuSans-100"/>
     <use x="256.542969" xlink:href="#DejaVuSans-97"/>
    </g>
   </g>
   <g id="text_65">
    <!-- truth -->
    <g transform="translate(906.343789 330.542733)scale(0.1 -0.1)">
     <use xlink:href="#DejaVuSans-116"/>
     <use x="39.208984" xlink:href="#DejaVuSans-114"/>
     <use x="80.322266" xlink:href="#DejaVuSans-117"/>
     <use x="143.701172" xlink:href="#DejaVuSans-116"/>
     <use x="182.910156" xlink:href="#DejaVuSans-104"/>
    </g>
   </g>
   <g id="text_66">
    <!-- children -->
    <g transform="translate(660.417122 759.983207)scale(0.1 -0.1)">
     <use xlink:href="#DejaVuSans-99"/>
     <use x="54.980469" xlink:href="#DejaVuSans-104"/>
     <use x="118.359375" xlink:href="#DejaVuSans-105"/>
     <use x="146.142578" xlink:href="#DejaVuSans-108"/>
     <use x="173.925781" xlink:href="#DejaVuSans-100"/>
     <use x="237.402344" xlink:href="#DejaVuSans-114"/>
     <use x="276.265625" xlink:href="#DejaVuSans-101"/>
     <use x="337.789062" xlink:href="#DejaVuSans-110"/>
    </g>
   </g>
   <g id="text_67">
    <!-- school -->
    <g transform="translate(492.700286 892.954228)scale(0.1 -0.1)">
     <use xlink:href="#DejaVuSans-115"/>
     <use x="52.099609" xlink:href="#DejaVuSans-99"/>
     <use x="107.080078" xlink:href="#DejaVuSans-104"/>
     <use x="170.458984" xlink:href="#DejaVuSans-111"/>
     <use x="231.640625" xlink:href="#DejaVuSans-111"/>
     <use x="292.822266" xlink:href="#DejaVuSans-108"/>
    </g>
   </g>
   <g id="text_68">
    <!-- anyth -->
    <g transform="translate(541.08608 419.420258)scale(0.1 -0.1)">
     <use xlink:href="#DejaVuSans-97"/>
     <use x="61.279297" xlink:href="#DejaVuSans-110"/>
     <use x="124.658203" xlink:href="#DejaVuSans-121"/>
     <use x="183.837891" xlink:href="#DejaVuSans-116"/>
     <use x="223.046875" xlink:href="#DejaVuSans-104"/>
    </g>
   </g>
   <g id="text_69">
    <!-- media -->
    <g transform="translate(426.950388 352.25273)scale(0.1 -0.1)">
     <use xlink:href="#DejaVuSans-109"/>
     <use x="97.412109" xlink:href="#DejaVuSans-101"/>
     <use x="158.935547" xlink:href="#DejaVuSans-100"/>
     <use x="222.412109" xlink:href="#DejaVuSans-105"/>
     <use x="250.195312" xlink:href="#DejaVuSans-97"/>
    </g>
   </g>
   <g id="text_70">
    <!-- famili -->
    <g transform="translate(737.625663 510.138514)scale(0.1 -0.1)">
     <use xlink:href="#DejaVuSans-102"/>
     <use x="35.205078" xlink:href="#DejaVuSans-97"/>
     <use x="96.484375" xlink:href="#DejaVuSans-109"/>
     <use x="193.896484" xlink:href="#DejaVuSans-105"/>
     <use x="221.679688" xlink:href="#DejaVuSans-108"/>
     <use x="249.462891" xlink:href="#DejaVuSans-105"/>
    </g>
   </g>
   <g id="text_71">
    <!-- law -->
    <g transform="translate(988.003537 428.896607)scale(0.1 -0.1)">
     <use xlink:href="#DejaVuSans-108"/>
     <use x="27.783203" xlink:href="#DejaVuSans-97"/>
     <use x="89.0625" xlink:href="#DejaVuSans-119"/>
    </g>
   </g>
   <g id="text_72">
    <!-- word -->
    <g transform="translate(771.560638 453.098862)scale(0.1 -0.1)">
     <use xlink:href="#DejaVuSans-119"/>
     <use x="81.787109" xlink:href="#DejaVuSans-111"/>
     <use x="142.96875" xlink:href="#DejaVuSans-114"/>
     <use x="182.332031" xlink:href="#DejaVuSans-100"/>
    </g>
   </g>
   <g id="text_73">
    <!-- stori -->
    <g transform="translate(329.30058 330.613668)scale(0.1 -0.1)">
     <use xlink:href="#DejaVuSans-115"/>
     <use x="52.099609" xlink:href="#DejaVuSans-116"/>
     <use x="91.308594" xlink:href="#DejaVuSans-111"/>
     <use x="152.490234" xlink:href="#DejaVuSans-114"/>
     <use x="193.603516" xlink:href="#DejaVuSans-105"/>
    </g>
   </g>
   <g id="text_74">
    <!-- border -->
    <g transform="translate(361.675545 915.601865)scale(0.1 -0.1)">
     <use xlink:href="#DejaVuSans-98"/>
     <use x="63.476562" xlink:href="#DejaVuSans-111"/>
     <use x="124.658203" xlink:href="#DejaVuSans-114"/>
     <use x="164.021484" xlink:href="#DejaVuSans-100"/>
     <use x="227.498047" xlink:href="#DejaVuSans-101"/>
     <use x="289.021484" xlink:href="#DejaVuSans-114"/>
    </g>
   </g>
   <g id="text_75">
    <!-- kid -->
    <g transform="translate(514.081068 801.929704)scale(0.1 -0.1)">
     <use xlink:href="#DejaVuSans-107"/>
     <use x="57.910156" xlink:href="#DejaVuSans-105"/>
     <use x="85.693359" xlink:href="#DejaVuSans-100"/>
    </g>
   </g>
   <g id="text_76">
    <!-- lot -->
    <g transform="translate(509.860787 488.585831)scale(0.1 -0.1)">
     <use xlink:href="#DejaVuSans-108"/>
     <use x="27.783203" xlink:href="#DejaVuSans-111"/>
     <use x="88.964844" xlink:href="#DejaVuSans-116"/>
    </g>
   </g>
   <g id="text_77">
    <!-- fact -->
    <g transform="translate(463.035455 397.68671)scale(0.1 -0.1)">
     <use xlink:href="#DejaVuSans-102"/>
     <use x="35.205078" xlink:href="#DejaVuSans-97"/>
     <use x="96.484375" xlink:href="#DejaVuSans-99"/>
     <use x="151.464844" xlink:href="#DejaVuSans-116"/>
    </g>
   </g>
   <g id="text_78">
    <!-- problem -->
    <g transform="translate(731.504807 648.44854)scale(0.1 -0.1)">
     <use xlink:href="#DejaVuSans-112"/>
     <use x="63.476562" xlink:href="#DejaVuSans-114"/>
     <use x="102.339844" xlink:href="#DejaVuSans-111"/>
     <use x="163.521484" xlink:href="#DejaVuSans-98"/>
     <use x="226.998047" xlink:href="#DejaVuSans-108"/>
     <use x="254.78125" xlink:href="#DejaVuSans-101"/>
     <use x="316.304688" xlink:href="#DejaVuSans-109"/>
    </g>
   </g>
   <g id="text_79">
    <!-- report -->
    <g transform="translate(276.283142 371.932344)scale(0.1 -0.1)">
     <use xlink:href="#DejaVuSans-114"/>
     <use x="38.863281" xlink:href="#DejaVuSans-101"/>
     <use x="100.386719" xlink:href="#DejaVuSans-112"/>
     <use x="163.863281" xlink:href="#DejaVuSans-111"/>
     <use x="225.044922" xlink:href="#DejaVuSans-114"/>
     <use x="266.158203" xlink:href="#DejaVuSans-116"/>
    </g>
   </g>
   <g id="text_80">
    <!-- chri -->
    <g transform="translate(266.988771 196.386116)scale(0.1 -0.1)">
     <use xlink:href="#DejaVuSans-99"/>
     <use x="54.980469" xlink:href="#DejaVuSans-104"/>
     <use x="118.359375" xlink:href="#DejaVuSans-114"/>
     <use x="159.472656" xlink:href="#DejaVuSans-105"/>
    </g>
   </g>
   <g id="text_81">
    <!-- other -->
    <g transform="translate(844.750865 509.856295)scale(0.1 -0.1)">
     <use xlink:href="#DejaVuSans-111"/>
     <use x="61.181641" xlink:href="#DejaVuSans-116"/>
     <use x="100.390625" xlink:href="#DejaVuSans-104"/>
     <use x="163.769531" xlink:href="#DejaVuSans-101"/>
     <use x="225.292969" xlink:href="#DejaVuSans-114"/>
    </g>
   </g>
   <g id="text_82">
    <!-- parti -->
    <g transform="translate(664.378225 112.688672)scale(0.1 -0.1)">
     <use xlink:href="#DejaVuSans-112"/>
     <use x="63.476562" xlink:href="#DejaVuSans-97"/>
     <use x="124.755859" xlink:href="#DejaVuSans-114"/>
     <use x="165.869141" xlink:href="#DejaVuSans-116"/>
     <use x="205.078125" xlink:href="#DejaVuSans-105"/>
    </g>
   </g>
   <g id="text_83">
    <!-- case -->
    <g transform="translate(819.020928 803.112935)scale(0.1 -0.1)">
     <use xlink:href="#DejaVuSans-99"/>
     <use x="54.980469" xlink:href="#DejaVuSans-97"/>
     <use x="116.259766" xlink:href="#DejaVuSans-115"/>
     <use x="168.359375" xlink:href="#DejaVuSans-101"/>
    </g>
   </g>
   <g id="text_84">
    <!-- forc -->
    <g transform="translate(74.947215 639.097747)scale(0.1 -0.1)">
     <use xlink:href="#DejaVuSans-102"/>
     <use x="35.205078" xlink:href="#DejaVuSans-111"/>
     <use x="96.386719" xlink:href="#DejaVuSans-114"/>
     <use x="135.25" xlink:href="#DejaVuSans-99"/>
    </g>
   </g>
   <g id="text_85">
    <!-- brother -->
    <g transform="translate(290.156616 150.523108)scale(0.1 -0.1)">
     <use xlink:href="#DejaVuSans-98"/>
     <use x="63.476562" xlink:href="#DejaVuSans-114"/>
     <use x="102.339844" xlink:href="#DejaVuSans-111"/>
     <use x="163.521484" xlink:href="#DejaVuSans-116"/>
     <use x="202.730469" xlink:href="#DejaVuSans-104"/>
     <use x="266.109375" xlink:href="#DejaVuSans-101"/>
     <use x="327.632812" xlink:href="#DejaVuSans-114"/>
    </g>
   </g>
   <g id="text_86">
    <!-- women -->
    <g transform="translate(403.044275 128.683158)scale(0.1 -0.1)">
     <use xlink:href="#DejaVuSans-119"/>
     <use x="81.787109" xlink:href="#DejaVuSans-111"/>
     <use x="142.96875" xlink:href="#DejaVuSans-109"/>
     <use x="240.380859" xlink:href="#DejaVuSans-101"/>
     <use x="301.904297" xlink:href="#DejaVuSans-110"/>
    </g>
   </g>
   <g id="text_87">
    <!-- home -->
    <g transform="translate(224.894896 805.209757)scale(0.1 -0.1)">
     <use xlink:href="#DejaVuSans-104"/>
     <use x="63.378906" xlink:href="#DejaVuSans-111"/>
     <use x="124.560547" xlink:href="#DejaVuSans-109"/>
     <use x="221.972656" xlink:href="#DejaVuSans-101"/>
    </g>
   </g>
   <g id="text_88">
    <!-- viru -->
    <g transform="translate(556.462082 817.624384)scale(0.1 -0.1)">
     <use xlink:href="#DejaVuSans-118"/>
     <use x="59.179688" xlink:href="#DejaVuSans-105"/>
     <use x="86.962891" xlink:href="#DejaVuSans-114"/>
     <use x="128.076172" xlink:href="#DejaVuSans-117"/>
    </g>
   </g>
   <g id="text_89">
    <!-- love -->
    <g transform="translate(299.554496 624.642457)scale(0.1 -0.1)">
     <use xlink:href="#DejaVuSans-108"/>
     <use x="27.783203" xlink:href="#DejaVuSans-111"/>
     <use x="88.964844" xlink:href="#DejaVuSans-118"/>
     <use x="148.144531" xlink:href="#DejaVuSans-101"/>
    </g>
   </g>
   <g id="text_90">
    <!-- point -->
    <g transform="translate(277.969552 550.360427)scale(0.1 -0.1)">
     <use xlink:href="#DejaVuSans-112"/>
     <use x="63.476562" xlink:href="#DejaVuSans-111"/>
     <use x="124.658203" xlink:href="#DejaVuSans-105"/>
     <use x="152.441406" xlink:href="#DejaVuSans-110"/>
     <use x="215.820312" xlink:href="#DejaVuSans-116"/>
    </g>
   </g>
   <g id="text_91">
    <!-- live -->
    <g transform="translate(917.773878 732.673736)scale(0.1 -0.1)">
     <use xlink:href="#DejaVuSans-108"/>
     <use x="27.783203" xlink:href="#DejaVuSans-105"/>
     <use x="55.566406" xlink:href="#DejaVuSans-118"/>
     <use x="114.746094" xlink:href="#DejaVuSans-101"/>
    </g>
   </g>
   <g id="text_92">
    <!-- don -->
    <g transform="translate(256.390376 698.146236)scale(0.1 -0.1)">
     <use xlink:href="#DejaVuSans-100"/>
     <use x="63.476562" xlink:href="#DejaVuSans-111"/>
     <use x="124.658203" xlink:href="#DejaVuSans-110"/>
    </g>
   </g>
   <g id="text_93">
    <!-- interview -->
    <g transform="translate(280.38145 453.719899)scale(0.1 -0.1)">
     <use xlink:href="#DejaVuSans-105"/>
     <use x="27.783203" xlink:href="#DejaVuSans-110"/>
     <use x="91.162109" xlink:href="#DejaVuSans-116"/>
     <use x="130.371094" xlink:href="#DejaVuSans-101"/>
     <use x="191.894531" xlink:href="#DejaVuSans-114"/>
     <use x="233.007812" xlink:href="#DejaVuSans-118"/>
     <use x="292.1875" xlink:href="#DejaVuSans-105"/>
     <use x="319.970703" xlink:href="#DejaVuSans-101"/>
     <use x="381.494141" xlink:href="#DejaVuSans-119"/>
    </g>
   </g>
   <g id="text_94">
    <!-- name -->
    <g transform="translate(115.620797 449.494205)scale(0.1 -0.1)">
     <use xlink:href="#DejaVuSans-110"/>
     <use x="63.378906" xlink:href="#DejaVuSans-97"/>
     <use x="124.658203" xlink:href="#DejaVuSans-109"/>
     <use x="222.070312" xlink:href="#DejaVuSans-101"/>
    </g>
   </g>
   <g id="text_95">
    <!-- power -->
    <g transform="translate(981.600544 559.273485)scale(0.1 -0.1)">
     <use xlink:href="#DejaVuSans-112"/>
     <use x="63.476562" xlink:href="#DejaVuSans-111"/>
     <use x="124.658203" xlink:href="#DejaVuSans-119"/>
     <use x="206.445312" xlink:href="#DejaVuSans-101"/>
     <use x="267.96875" xlink:href="#DejaVuSans-114"/>
    </g>
   </g>
   <g id="text_96">
    <!-- work -->
    <g transform="translate(377.394515 670.560429)scale(0.1 -0.1)">
     <use xlink:href="#DejaVuSans-119"/>
     <use x="81.787109" xlink:href="#DejaVuSans-111"/>
     <use x="142.96875" xlink:href="#DejaVuSans-114"/>
     <use x="184.082031" xlink:href="#DejaVuSans-107"/>
    </g>
   </g>
   <g id="text_97">
    <!-- everyth -->
    <g transform="translate(703.22806 429.065325)scale(0.1 -0.1)">
     <use xlink:href="#DejaVuSans-101"/>
     <use x="61.523438" xlink:href="#DejaVuSans-118"/>
     <use x="120.703125" xlink:href="#DejaVuSans-101"/>
     <use x="182.226562" xlink:href="#DejaVuSans-114"/>
     <use x="223.339844" xlink:href="#DejaVuSans-121"/>
     <use x="282.519531" xlink:href="#DejaVuSans-116"/>
     <use x="321.728516" xlink:href="#DejaVuSans-104"/>
    </g>
   </g>
   <g id="text_98">
    <!-- care -->
    <g transform="translate(592.928291 935.06227)scale(0.1 -0.1)">
     <use xlink:href="#DejaVuSans-99"/>
     <use x="54.980469" xlink:href="#DejaVuSans-97"/>
     <use x="116.259766" xlink:href="#DejaVuSans-114"/>
     <use x="155.123047" xlink:href="#DejaVuSans-101"/>
    </g>
   </g>
   <g id="text_99">
    <!-- wow -->
    <g transform="translate(905.906338 230.073433)scale(0.1 -0.1)">
     <use xlink:href="#DejaVuSans-119"/>
     <use x="81.787109" xlink:href="#DejaVuSans-111"/>
     <use x="142.96875" xlink:href="#DejaVuSans-119"/>
    </g>
   </g>
   <g id="text_100">
    <!-- earth -->
    <g transform="translate(850.586431 603.899944)scale(0.1 -0.1)">
     <use xlink:href="#DejaVuSans-101"/>
     <use x="61.523438" xlink:href="#DejaVuSans-97"/>
     <use x="122.802734" xlink:href="#DejaVuSans-114"/>
     <use x="163.916016" xlink:href="#DejaVuSans-116"/>
     <use x="203.125" xlink:href="#DejaVuSans-104"/>
    </g>
   </g>
   <g id="text_101">
    <!-- american -->
    <g transform="translate(431.361647 636.228531)scale(0.1 -0.1)">
     <use xlink:href="#DejaVuSans-97"/>
     <use x="61.279297" xlink:href="#DejaVuSans-109"/>
     <use x="158.691406" xlink:href="#DejaVuSans-101"/>
     <use x="220.214844" xlink:href="#DejaVuSans-114"/>
     <use x="261.328125" xlink:href="#DejaVuSans-105"/>
     <use x="289.111328" xlink:href="#DejaVuSans-99"/>
     <use x="344.091797" xlink:href="#DejaVuSans-97"/>
     <use x="405.371094" xlink:href="#DejaVuSans-110"/>
    </g>
   </g>
   <g id="text_102">
    <!-- question -->
    <g transform="translate(106.676131 329.857272)scale(0.1 -0.1)">
     <defs>
      <path d="M 14.796875 27.296875 
Q 14.796875 17.390625 18.875 11.75 
Q 22.953125 6.109375 30.078125 6.109375 
Q 37.203125 6.109375 41.296875 11.75 
Q 45.40625 17.390625 45.40625 27.296875 
Q 45.40625 37.203125 41.296875 42.84375 
Q 37.203125 48.484375 30.078125 48.484375 
Q 22.953125 48.484375 18.875 42.84375 
Q 14.796875 37.203125 14.796875 27.296875 
z
M 45.40625 8.203125 
Q 42.578125 3.328125 38.25 0.953125 
Q 33.9375 -1.421875 27.875 -1.421875 
Q 17.96875 -1.421875 11.734375 6.484375 
Q 5.515625 14.40625 5.515625 27.296875 
Q 5.515625 40.1875 11.734375 48.09375 
Q 17.96875 56 27.875 56 
Q 33.9375 56 38.25 53.625 
Q 42.578125 51.265625 45.40625 46.390625 
L 45.40625 54.6875 
L 54.390625 54.6875 
L 54.390625 -20.796875 
L 45.40625 -20.796875 
z
" id="DejaVuSans-113"/>
     </defs>
     <use xlink:href="#DejaVuSans-113"/>
     <use x="63.476562" xlink:href="#DejaVuSans-117"/>
     <use x="126.855469" xlink:href="#DejaVuSans-101"/>
     <use x="188.378906" xlink:href="#DejaVuSans-115"/>
     <use x="240.478516" xlink:href="#DejaVuSans-116"/>
     <use x="279.6875" xlink:href="#DejaVuSans-105"/>
     <use x="307.470703" xlink:href="#DejaVuSans-111"/>
     <use x="368.652344" xlink:href="#DejaVuSans-110"/>
    </g>
   </g>
   <g id="text_103">
    <!-- lord -->
    <g transform="translate(778.178315 616.257376)scale(0.1 -0.1)">
     <use xlink:href="#DejaVuSans-108"/>
     <use x="27.783203" xlink:href="#DejaVuSans-111"/>
     <use x="88.964844" xlink:href="#DejaVuSans-114"/>
     <use x="128.328125" xlink:href="#DejaVuSans-100"/>
    </g>
   </g>
   <g id="text_104">
    <!-- the -->
    <g transform="translate(546.386046 48.612301)scale(0.1 -0.1)">
     <use xlink:href="#DejaVuSans-116"/>
     <use x="39.208984" xlink:href="#DejaVuSans-104"/>
     <use x="102.587891" xlink:href="#DejaVuSans-101"/>
    </g>
   </g>
   <g id="text_105">
    <!-- rate -->
    <g transform="translate(212.011952 290.881559)scale(0.1 -0.1)">
     <use xlink:href="#DejaVuSans-114"/>
     <use x="41.113281" xlink:href="#DejaVuSans-97"/>
     <use x="102.392578" xlink:href="#DejaVuSans-116"/>
     <use x="141.601562" xlink:href="#DejaVuSans-101"/>
    </g>
   </g>
   <g id="text_106">
    <!-- pleas -->
    <g transform="translate(187.00563 524.833745)scale(0.1 -0.1)">
     <use xlink:href="#DejaVuSans-112"/>
     <use x="63.476562" xlink:href="#DejaVuSans-108"/>
     <use x="91.259766" xlink:href="#DejaVuSans-101"/>
     <use x="152.783203" xlink:href="#DejaVuSans-97"/>
     <use x="214.0625" xlink:href="#DejaVuSans-115"/>
    </g>
   </g>
   <g id="text_107">
    <!-- place -->
    <g transform="translate(807.970011 696.615049)scale(0.1 -0.1)">
     <use xlink:href="#DejaVuSans-112"/>
     <use x="63.476562" xlink:href="#DejaVuSans-108"/>
     <use x="91.259766" xlink:href="#DejaVuSans-97"/>
     <use x="152.539062" xlink:href="#DejaVuSans-99"/>
     <use x="207.519531" xlink:href="#DejaVuSans-101"/>
    </g>
   </g>
   <g id="text_108">
    <!-- joe -->
    <g transform="translate(483.143764 221.376479)scale(0.1 -0.1)">
     <use xlink:href="#DejaVuSans-106"/>
     <use x="27.783203" xlink:href="#DejaVuSans-111"/>
     <use x="88.964844" xlink:href="#DejaVuSans-101"/>
    </g>
   </g>
   <g id="text_109">
    <!-- look -->
    <g transform="translate(775.050919 348.923395)scale(0.1 -0.1)">
     <use xlink:href="#DejaVuSans-108"/>
     <use x="27.783203" xlink:href="#DejaVuSans-111"/>
     <use x="88.964844" xlink:href="#DejaVuSans-111"/>
     <use x="150.146484" xlink:href="#DejaVuSans-107"/>
    </g>
   </g>
   <g id="text_110">
    <!-- china -->
    <g transform="translate(719.718498 938.139574)scale(0.1 -0.1)">
     <use xlink:href="#DejaVuSans-99"/>
     <use x="54.980469" xlink:href="#DejaVuSans-104"/>
     <use x="118.359375" xlink:href="#DejaVuSans-105"/>
     <use x="146.142578" xlink:href="#DejaVuSans-110"/>
     <use x="209.521484" xlink:href="#DejaVuSans-97"/>
    </g>
   </g>
   <g id="text_111">
    <!-- just -->
    <g transform="translate(437.308195 445.829868)scale(0.1 -0.1)">
     <use xlink:href="#DejaVuSans-106"/>
     <use x="27.783203" xlink:href="#DejaVuSans-117"/>
     <use x="91.162109" xlink:href="#DejaVuSans-115"/>
     <use x="143.261719" xlink:href="#DejaVuSans-116"/>
    </g>
   </g>
   <g id="text_112">
    <!-- choic -->
    <g transform="translate(705.881218 837.027992)scale(0.1 -0.1)">
     <use xlink:href="#DejaVuSans-99"/>
     <use x="54.980469" xlink:href="#DejaVuSans-104"/>
     <use x="118.359375" xlink:href="#DejaVuSans-111"/>
     <use x="179.541016" xlink:href="#DejaVuSans-105"/>
     <use x="207.324219" xlink:href="#DejaVuSans-99"/>
    </g>
   </g>
   <g id="text_113">
    <!-- part -->
    <g transform="translate(364.111772 515.020139)scale(0.1 -0.1)">
     <use xlink:href="#DejaVuSans-112"/>
     <use x="63.476562" xlink:href="#DejaVuSans-97"/>
     <use x="124.755859" xlink:href="#DejaVuSans-114"/>
     <use x="165.869141" xlink:href="#DejaVuSans-116"/>
    </g>
   </g>
   <g id="text_114">
    <!-- politician -->
    <g transform="translate(805.881569 170.650495)scale(0.1 -0.1)">
     <use xlink:href="#DejaVuSans-112"/>
     <use x="63.476562" xlink:href="#DejaVuSans-111"/>
     <use x="124.658203" xlink:href="#DejaVuSans-108"/>
     <use x="152.441406" xlink:href="#DejaVuSans-105"/>
     <use x="180.224609" xlink:href="#DejaVuSans-116"/>
     <use x="219.433594" xlink:href="#DejaVuSans-105"/>
     <use x="247.216797" xlink:href="#DejaVuSans-99"/>
     <use x="302.197266" xlink:href="#DejaVuSans-105"/>
     <use x="329.980469" xlink:href="#DejaVuSans-97"/>
     <use x="391.259766" xlink:href="#DejaVuSans-110"/>
    </g>
   </g>
   <g id="text_115">
    <!-- woman -->
    <g transform="translate(855.858976 428.757317)scale(0.1 -0.1)">
     <use xlink:href="#DejaVuSans-119"/>
     <use x="81.787109" xlink:href="#DejaVuSans-111"/>
     <use x="142.96875" xlink:href="#DejaVuSans-109"/>
     <use x="240.380859" xlink:href="#DejaVuSans-97"/>
     <use x="301.660156" xlink:href="#DejaVuSans-110"/>
    </g>
   </g>
   <g id="text_116">
    <!-- pillow -->
    <g transform="translate(721.18713 251.124033)scale(0.1 -0.1)">
     <use xlink:href="#DejaVuSans-112"/>
     <use x="63.476562" xlink:href="#DejaVuSans-105"/>
     <use x="91.259766" xlink:href="#DejaVuSans-108"/>
     <use x="119.042969" xlink:href="#DejaVuSans-108"/>
     <use x="146.826172" xlink:href="#DejaVuSans-111"/>
     <use x="208.007812" xlink:href="#DejaVuSans-119"/>
    </g>
   </g>
  </g>
 </g>
 <defs>
  <clipPath id="p1485b30b16">
   <rect height="978.48" width="1004.4" x="28.942188" y="7.2"/>
  </clipPath>
 </defs>
</svg>
